<svg width="177" height="136" viewBox="0 0 177 136" fill="none" xmlns="http://www.w3.org/2000/svg">
<path d="M155.355 51.0934C155.355 51.6786 155.342 52.2615 155.316 52.8402C155.282 53.6105 155.225 54.3749 155.145 55.1332C153.799 67.9966 146.098 78.97 135.237 84.8546C129.809 87.7964 123.591 89.4673 116.982 89.4673C110.373 89.4673 104.546 87.9002 99.2395 85.1273C98.459 84.7199 97.6943 84.2864 96.9465 83.8265C85.9463 77.08 78.6094 64.9435 78.6094 51.0934C78.6094 45.7941 79.6831 40.7459 81.6252 36.1543C87.452 22.3831 101.089 12.7207 116.983 12.7207C138.176 12.7207 155.355 29.9004 155.355 51.0934Z" fill="#ECF3FE"/>
<path d="M129.133 67.5314C129.133 91.2872 114.119 111.534 93.0616 119.304H54.8722C40.4669 113.988 28.8887 102.833 23.0125 88.7093C22.6979 87.9537 22.3991 87.189 22.1184 86.4163C19.9718 80.5254 18.8008 74.1655 18.8008 67.5318C18.8012 37.0642 43.5001 12.3652 73.9673 12.3652H74.1001C74.8678 12.3667 75.6318 12.3845 76.3924 12.4177C105.735 13.6868 129.133 37.8764 129.133 67.5318V67.5314Z" fill="#ECF3FE"/>
<path d="M74.0985 12.3652V86.416H22.1172C22.3982 87.1886 22.6967 87.9533 23.0113 88.7089H74.1445C75.3831 88.7089 76.3907 87.7005 76.3907 86.4616V12.4177C75.6302 12.3849 74.8662 12.3671 74.0985 12.3652Z" fill="white"/>
<path d="M99.1927 52.8398C97.9541 52.8398 96.9453 53.8483 96.9453 55.0872V83.8266C97.693 84.2861 98.4578 84.7199 99.2383 85.1274V55.1332H155.144C155.223 54.3749 155.28 53.6106 155.314 52.8402H99.1923L99.1927 52.8398Z" fill="white"/>
<g style="mix-blend-mode:multiply" opacity="0.18">
<path d="M136.14 33.073C132.994 50.1022 132.582 67.4422 134.847 84.459C129.418 87.4009 123.2 89.0718 116.591 89.0718C95.3985 89.0718 78.2188 71.8909 78.2188 50.6983C78.2188 45.3989 79.2924 40.3507 81.2346 35.7591L134.554 31.2591C135.612 31.149 136.357 32.0544 136.14 33.0734V33.073Z" fill="#003889"/>
</g>
<path d="M132.656 117.885C132.656 117.885 141.762 68.5032 153.487 58.6043C154.323 57.8992 155.605 58.2036 156.029 59.2109C157.116 61.7933 157.226 68.6821 147.851 86.6997C133.879 113.551 132.656 117.885 132.656 117.885Z" fill="#33DA82"/>
<path d="M132.575 119.924C132.575 119.924 150.831 80.617 162.609 75.3342C163.301 75.0238 164.109 75.412 164.289 76.1488C164.813 78.2871 163.907 83.9041 151.753 97.4233C134.507 116.607 132.574 119.924 132.574 119.924H132.575Z" fill="#33DA82"/>
<path d="M133.458 119.406C133.458 119.406 125.776 82.9476 131.161 73.244C131.478 72.674 132.234 72.525 132.737 72.9392C134.2 74.1412 136.469 78.4744 135.068 94.0402C133.08 116.128 133.458 119.406 133.458 119.406V119.406Z" fill="#33DA82"/>
<path d="M88.154 125.122C120.144 125.122 146.078 123.446 146.078 121.378C146.078 119.311 120.144 117.635 88.154 117.635C56.1637 117.635 30.2305 119.311 30.2305 121.378C30.2305 123.446 56.1637 125.122 88.154 125.122Z" fill="#D7E4F9"/>
<path d="M33.9635 60.9791C33.9092 61.0546 33.848 61.1243 33.7797 61.1911C33.3787 61.5782 32.7657 61.7797 31.9862 61.8095C29.3118 61.9094 24.6968 59.9843 20.1165 56.653C13.9796 52.1885 10.2296 46.8854 11.7409 44.8097C13.2507 42.7344 19.451 44.6693 25.5864 49.1357C27.2011 50.3109 28.6498 51.5423 29.8808 52.7578C30.9563 53.8191 31.8651 54.8682 32.5729 55.8563C34.1404 58.0402 34.7308 59.925 33.9635 60.9791Z" fill="#C4D7F2"/>
<path d="M48.0028 58.9927C45.4371 63.8775 42.2492 67.5784 39.8268 68.7747C39.2522 69.0584 38.7199 69.2022 38.2506 69.1863C37.9775 69.1776 37.7236 69.1146 37.4957 68.9954C36.2153 68.3228 35.9806 65.9936 36.6499 62.8846V62.8827C36.8514 61.9508 37.1332 60.9507 37.4942 59.9015V59.8997C38.0654 58.2408 38.829 56.4651 39.7729 54.6682C43.3037 47.9495 48.0081 43.4711 50.2815 44.6655C52.553 45.8599 51.5336 52.2737 48.0028 58.9923V58.9927Z" fill="#C4D7F2"/>
<path d="M37.9495 78.6902C37.7514 79.0037 37.4523 79.2402 37.0633 79.4028C36.5729 79.6111 35.9425 79.7024 35.1996 79.6812C32.4517 79.6111 28.1709 78.0383 23.8396 75.3182C17.4133 71.2811 13.3117 66.2473 14.6759 64.072C16.0419 61.8986 22.3596 63.4081 28.7855 67.4451C30.7068 68.652 32.4196 69.9464 33.8419 71.2283C34.7405 72.039 35.5215 72.8434 36.1662 73.6156C37.914 75.7121 38.6497 77.5757 37.9491 78.6898L37.9495 78.6902Z" fill="#C4D7F2"/>
<path d="M29.8769 52.7582C30.4986 55.2398 31.2309 58.3085 31.9824 61.8098C32.7618 61.78 33.3749 61.5786 33.7759 61.1915C34.5779 64.8958 35.4064 69.0978 36.1613 73.6162C35.5166 72.844 34.7356 72.04 33.837 71.2289C33.8879 71.5107 33.9385 71.7948 33.9875 72.0785C34.4025 74.4481 34.8126 76.9984 35.1944 79.6814C35.9368 79.7026 36.5676 79.6113 37.0581 79.403C38.9376 92.5476 39.9415 107.542 37.9359 120.571H46.7382C46.0731 114.704 43.0674 89.5419 38.2472 69.1868C38.7165 69.2026 39.2492 69.0589 39.8234 68.7752C39.0877 65.6854 38.3102 62.7013 37.4904 59.9024C37.1297 60.9516 36.8475 61.9517 36.6461 62.8835C34.6406 55.5311 32.3744 49.2765 29.875 45.502C29.9101 45.6227 31.08 49.5568 32.5686 55.8566C31.8609 54.869 30.9521 53.8198 29.8765 52.7582H29.8769Z" fill="#A1C0E5"/>
<path d="M33.7794 61.1919C34.5815 64.8962 35.4099 69.0981 36.1648 73.6166C36.4783 75.4957 36.7813 77.4277 37.0616 79.4034C38.9411 92.5479 39.945 107.543 37.9395 120.571H46.7417C46.0766 114.704 43.071 89.5423 38.2507 69.1872C37.7376 67.0224 37.2053 64.912 36.65 62.8854V62.8835C34.6445 55.5311 32.3783 49.2765 29.8789 45.502C29.914 45.6227 31.0839 49.5568 32.5726 55.8566C32.9577 57.4838 33.3659 59.272 33.7794 61.1915V61.1919Z" fill="#C4D7F2"/>
<path d="M136.11 119.436C136.411 120.433 135.746 121.398 134.682 121.377H70.463C69.3716 121.32 68.2149 120.539 67.9324 119.436C60.1993 91.1447 60.2 61.3079 67.9324 33.0159C68.0112 32.707 68.1595 32.4229 68.3556 32.1731C68.8578 31.5318 69.6772 31.1157 70.4626 31.0745H134.682C135.745 31.0538 136.411 32.0188 136.11 33.0159C128.377 61.3071 128.377 91.1451 136.11 119.436H136.11Z" fill="#3B82F4"/>
<path d="M84.8906 43.4739H114.101C115.251 43.5007 116.256 42.5255 116.539 41.4752C116.785 40.4343 116.065 39.4681 114.979 39.4806C105.242 39.4806 95.5052 39.4806 85.7681 39.4806C84.6717 39.5368 83.5245 40.3475 83.3042 41.4752C83.0605 42.5255 83.8052 43.4837 84.8902 43.4739H84.8906Z" fill="white"/>
<path d="M73.9878 53.494H121.514C122.308 53.4728 122.978 52.8741 123.113 52.0958C123.229 51.324 122.705 50.6992 121.935 50.6992H74.4092C73.6147 50.7207 72.9352 51.3145 72.7972 52.0958C72.6806 52.8677 73.2171 53.494 73.9878 53.494Z" fill="white"/>
<path d="M73.021 61.906H120.547C121.333 61.8883 121.982 61.2786 122.073 60.5014C122.149 59.7258 121.591 59.0977 120.821 59.0977H73.2952C72.5079 59.1161 71.85 59.7209 71.7568 60.5014C71.6809 61.2771 72.2506 61.906 73.021 61.906Z" fill="white"/>
<path d="M85.472 70.3475H120.016C120.787 70.3475 121.434 69.7167 121.469 68.9392C121.504 68.1617 120.914 67.5312 120.143 67.5312H85.5988C84.8284 67.5312 84.169 68.1617 84.1343 68.9392C84.0992 69.7167 84.7017 70.3475 85.472 70.3475Z" fill="white"/>
<path d="M85.3879 78.8025C96.9027 78.8025 108.417 78.8025 119.932 78.8025C120.703 78.8025 121.317 78.1717 121.311 77.3934C121.305 76.6152 120.683 75.9844 119.912 75.9844H85.3676C84.5972 75.9844 83.9709 76.6152 83.9766 77.3934C83.9823 78.1717 84.6176 78.8025 85.3879 78.8025Z" fill="white"/>
<path d="M72.7609 87.2522H120.287C121.057 87.2522 121.638 86.6226 121.592 85.8451C121.546 85.0679 120.89 84.4375 120.119 84.4375C104.277 84.4375 88.4353 84.4375 72.5934 84.4375C71.823 84.4375 71.2296 85.0679 71.276 85.8451C71.3224 86.6222 71.9905 87.2522 72.7609 87.2522Z" fill="white"/>
<g style="mix-blend-mode:multiply" opacity="0.18">
<path d="M121.728 98.0932C121.655 99.0107 121.574 99.9274 121.485 100.843C121.291 102.864 121.059 104.884 120.792 106.899C120.669 107.826 120.539 108.751 120.4 109.676C119.893 113.072 119.283 116.457 118.568 119.827C118.445 120.455 118.052 120.997 117.541 121.377H70.463C69.3716 121.32 68.2149 120.538 67.9324 119.436C60.1993 91.1444 60.2 61.3076 67.9324 33.0156C68.0112 32.7066 68.1595 32.4226 68.3556 32.1728C75.2954 31.8065 82.2347 31.4405 89.1744 31.0742H113.577C113.726 31.2794 113.844 31.5073 113.919 31.7525C115.946 37.983 117.605 44.3093 118.895 50.6975C119.083 51.6278 119.263 52.5592 119.435 53.4918C119.78 55.3551 120.093 57.2241 120.374 59.096C120.514 60.0241 120.646 60.9537 120.77 61.8833C122.373 73.8764 122.696 86.017 121.729 98.0924L121.728 98.0932Z" fill="#003889"/>
</g>
<path d="M110.654 121.377C89.2474 121.377 67.8408 121.377 46.4346 121.377C45.3715 121.398 44.7053 120.433 45.0063 119.436C52.7394 91.1447 52.7398 61.3071 45.0063 33.0163C44.7049 32.0185 45.3715 31.0538 46.4346 31.0745C67.8408 31.0745 89.2474 31.0745 110.654 31.0745C111.745 31.1319 112.902 31.9136 113.184 33.0163C120.917 61.3075 120.917 91.1447 113.184 119.436C112.902 120.539 111.745 121.32 110.654 121.377Z" fill="white"/>
<path d="M96.2242 43.4719H67.0136C65.8637 43.4987 64.8591 42.5235 64.5754 41.4732C64.3302 40.4324 65.05 39.4662 66.1357 39.4786C75.8728 39.4786 85.6096 39.4786 95.3467 39.4786C96.443 39.5348 97.5903 40.3456 97.8106 41.4732C98.0543 42.5235 97.3096 43.4818 96.2246 43.4719H96.2242Z" fill="#33DA82"/>
<path d="M107.13 53.494H59.604C58.8099 53.4728 58.1398 52.8741 58.0044 52.0958C57.8882 51.324 58.4122 50.6992 59.1826 50.6992H106.708C107.503 50.7207 108.182 51.3145 108.32 52.0958C108.437 52.8677 107.901 53.494 107.13 53.494Z" fill="#ECF3FE"/>
<path d="M108.098 61.906H60.572C59.7854 61.8883 59.1369 61.2786 59.046 60.5014C58.9701 59.7258 59.5274 59.0977 60.2977 59.0977H107.824C108.611 59.1161 109.269 59.7209 109.362 60.5014C109.438 61.2771 108.868 61.906 108.098 61.906Z" fill="#ECF3FE"/>
<path d="M95.6467 70.3475H61.1024C60.332 70.3475 59.685 69.7167 59.6499 68.9392C59.6148 68.1617 60.2049 67.5312 60.9756 67.5312H95.5199C96.2903 67.5312 96.9497 68.1617 96.9845 68.9392C97.0195 69.7167 96.417 70.3475 95.6467 70.3475Z" fill="#ECF3FE"/>
<path d="M95.7279 78.8025C84.2132 78.8025 72.6984 78.8025 61.1836 78.8025C60.4133 78.8025 59.7991 78.1717 59.8047 77.3934C59.8104 76.6152 60.4332 75.9844 61.204 75.9844H95.7483C96.5187 75.9844 97.1449 76.6152 97.1393 77.3934C97.1336 78.1717 96.4983 78.8025 95.7279 78.8025Z" fill="#ECF3FE"/>
<path d="M108.357 87.2522H60.8313C60.0609 87.2522 59.48 86.6226 59.526 85.8451C59.5724 85.0679 60.2281 84.4375 60.9988 84.4375C76.8408 84.4375 92.6827 84.4375 108.525 84.4375C109.295 84.4375 109.888 85.0679 109.842 85.8451C109.796 86.6222 109.128 87.2522 108.357 87.2522Z" fill="#ECF3FE"/>
<path d="M106.852 100.843C91.01 100.843 75.1681 100.843 59.3261 100.843C58.5557 100.843 58.0279 100.218 58.14 99.4458C58.2709 98.6678 58.9387 98.0676 59.7317 98.0469C75.5736 98.0469 91.4156 98.0469 107.258 98.0469C108.028 98.0469 108.568 98.6735 108.456 99.4458C108.323 100.227 107.646 100.822 106.852 100.843Z" fill="#ECF3FE"/>
<path d="M105.241 109.677C89.3989 109.677 73.557 109.677 57.715 109.677C56.9446 109.677 56.4516 109.056 56.6066 108.289C56.7847 107.513 57.4751 106.924 58.276 106.9C74.118 106.9 89.9599 106.9 105.802 106.9C106.572 106.9 107.077 107.523 106.923 108.289C106.742 109.069 106.043 109.652 105.241 109.677Z" fill="#ECF3FE"/>
<g style="mix-blend-mode:multiply" opacity="0.2">
<path d="M123.915 99.6894L114.931 90.1458L114.222 89.3928C115.891 87.5835 115.491 84.2968 115.668 82.3324C115.844 80.3808 113.237 78.4089 112.235 77.7268C112.451 77.557 112.586 77.451 112.586 77.451L111.786 76.6278L110.965 77.3461L110.551 75.8703L110.459 75.5428C110.546 75.3813 110.622 75.2086 110.688 75.0271C112.156 75.7748 112.478 74.2548 112.309 72.7937C112.213 71.96 111.957 71.1455 111.665 70.7844C110.852 69.7802 109.859 70.2796 109.52 70.2261C109.18 70.1725 108.914 69.3271 107.193 68.8974C105.471 68.4677 104.283 70.5268 105.081 71.903C105.435 72.5134 105.835 72.7862 106.341 72.8775C106.315 73.0291 106.295 73.1842 106.284 73.3426C106.274 73.4882 106.27 73.6369 106.274 73.787C106.303 74.9992 106.793 76.0189 107.5 76.5324L107.443 77.5129L107.442 77.5302L106.742 76.6916L106.059 77.173L106.443 77.6038C105.993 77.8143 105.073 78.2663 104.257 78.8069L100.164 74.4586L98.7219 72.9261C100.733 69.893 101.997 66.3369 102.22 62.5341C102.873 51.4211 94.3932 42.4121 83.2802 42.4121C72.1672 42.4121 62.6293 51.4211 61.9767 62.5341C61.3244 73.6471 69.8037 82.6561 80.9174 82.6561C84.2784 82.6561 87.4946 81.831 90.3652 80.374L92.9551 83.1258C92.4318 83.3804 92.5695 83.8086 93.0637 84.6129C93.636 85.5436 94.5143 85.4678 94.5143 85.4678C94.5143 85.4678 94.7829 85.4889 95.1258 85.432L100.59 91.2369C100.206 92.1268 101.35 93.7672 102.797 93.8506C102.89 93.8558 102.976 93.8577 103.056 93.8566L103.427 94.2501L98.3578 102.98L98.2971 118.683H98.5804L98.5567 119.367C98.5201 119.346 98.4865 119.324 98.4582 119.301C98.3597 119.222 98.2141 119.229 98.1156 119.319C97.6233 119.771 96.4832 120.803 96.2984 120.858C96.0614 120.927 94.5947 120.92 94.4641 121.292C94.3336 121.665 94.2355 122.146 95.2994 122.27C96.3633 122.395 100.423 122.27 100.485 122.27C100.547 122.27 101.078 121.952 101.071 121.68C101.064 121.409 101.029 119.359 100.51 119.608C100.495 119.615 100.478 119.622 100.461 119.628L100.581 118.683H101.084L102.709 103.943L106.255 99.4865C106.192 100.19 106.125 100.929 106.061 101.644C105.862 103.844 105.684 105.817 105.684 105.817L109.76 118.429H110.155L110.409 119.293C110.367 119.284 110.328 119.274 110.294 119.262C110.173 119.219 110.035 119.27 109.967 119.385C109.631 119.959 108.849 121.276 108.687 121.384C108.479 121.523 107.055 121.971 107.045 122.359C107.035 122.747 107.09 123.226 108.159 123.011C109.229 122.797 113.123 121.419 113.183 121.4C113.243 121.381 113.658 120.919 113.566 120.668C113.475 120.417 112.802 118.517 112.376 118.91C112.364 118.921 112.35 118.933 112.336 118.944L112.236 118.429H112.72L110.402 105.766L110.678 105.178L111.689 103.027L115.78 107.373C116.779 108.434 118.138 108.964 119.529 108.964C120.92 108.964 122.341 108.434 123.464 107.373C125.71 105.251 125.912 101.811 123.915 99.6898L123.915 99.6894Z" fill="#003889"/>
</g>
<path d="M109.719 117.82L110.352 119.611L112.196 119.144L111.633 116.922L109.719 117.82Z" fill="white"/>
<path d="M110.122 119.262C109.999 119.219 109.863 119.271 109.802 119.386C109.5 119.959 108.795 121.276 108.639 121.384C108.439 121.523 107.042 121.972 107.055 122.36C107.067 122.747 107.15 123.227 108.207 123.012C109.264 122.797 113.077 121.42 113.137 121.401C113.196 121.381 113.584 120.92 113.477 120.669C113.371 120.418 112.586 118.518 112.184 118.911C111.847 119.24 110.601 119.431 110.122 119.262H110.122Z" fill="#15315E"/>
<path d="M109.437 105.765L112.499 118.429H109.539L104.723 105.816C104.723 105.816 104.785 103.844 104.854 101.643C104.938 98.9698 105.03 95.9589 105.03 95.7363L112.499 98.3194L109.678 105.178L109.437 105.765Z" fill="#15315E"/>
<path d="M112.5 98.3194L109.68 105.178L106.35 100.87L104.855 101.643C104.939 98.9698 105.032 95.9589 105.032 95.7363L112.5 98.3194Z" fill="#072542"/>
<path d="M108.617 78.1869V80.6305H104.82V76.1226L107.613 75.2266L107.832 75.8717L108.617 78.1869Z" fill="#FDC8AA"/>
<path d="M109.228 77.4769L106.397 79.5409L104.099 77.4769C104.099 77.4769 100.756 78.9713 100.3 80.2626C99.8445 81.5544 100.3 88.9747 100.3 88.9747H111.747V80.5916L109.227 77.4766L109.228 77.4769Z" fill="#F4B545"/>
<path d="M98.3516 117.804L98.3968 119.703L100.295 119.832L100.451 117.545L98.3516 117.804Z" fill="white"/>
<path d="M98.2874 119.301C98.184 119.222 98.0391 119.229 97.9456 119.319C97.4797 119.771 96.4003 120.803 96.2185 120.858C95.9857 120.927 94.5182 120.92 94.4095 121.292C94.3008 121.665 94.2311 122.146 95.3021 122.27C96.3735 122.395 100.426 122.27 100.488 122.27C100.55 122.27 101.062 121.952 101.039 121.68C101.016 121.409 100.861 119.359 100.356 119.608C99.9337 119.816 98.6899 119.61 98.2866 119.301H98.2874Z" fill="#15315E"/>
<path d="M104.073 76.6914L106.074 78.9327L106.226 80.1237L103.418 77.1728L104.073 76.6914Z" fill="#1F3A6F"/>
<path d="M107.832 75.8717C107.454 76.5183 106.271 78.2552 104.82 77.5135V76.1222L107.613 75.2266L107.832 75.8717Z" fill="#EFA37D"/>
<path d="M101.992 93.8555L97.2305 102.979L98.0914 118.681H100.877L101.637 103.942L109.07 93.8555H101.992Z" fill="#1F3A6F"/>
<path d="M109.291 82.6562C109.291 82.6562 109.973 87.9734 108.098 87.4414V88.3721H111.237V82.6562H109.291Z" fill="#E59D29"/>
<path d="M122.595 107.374C121.534 108.434 120.144 108.964 118.753 108.964C117.362 108.964 115.972 108.434 114.911 107.374L101.841 94.3037L99.1595 91.6225L90.6629 83.1258L87.0781 79.5411L94.7618 71.8574L97.3626 74.4583L110.722 87.8175L113.051 90.1463L122.594 99.6899C124.716 101.811 124.716 105.251 122.594 107.374H122.595Z" fill="#36588E"/>
<path d="M107.848 74.9905L108.102 73.1359L109.411 72.793C109.669 74.2775 109.426 75.825 107.848 74.9905Z" fill="#1F3A6F"/>
<path d="M108.083 73.4033C108.232 75.2195 107.313 76.7772 106.029 76.8832C104.745 76.9888 103.584 75.6024 103.434 73.7863C103.421 73.6361 103.416 73.4875 103.418 73.3418C103.438 71.7234 104.31 70.4041 105.487 70.3064C106.398 70.2317 107.248 70.9081 107.718 71.9554C107.91 72.384 108.039 72.8752 108.083 73.403L108.083 73.4033Z" fill="#FDC8AA"/>
<path d="M107.718 71.9554L107.464 73.5754C107.464 73.5754 107.273 72.8073 105.22 73.263C104.364 73.4531 103.793 73.432 103.418 73.3418C103.438 71.7234 104.309 70.4041 105.487 70.3064C106.398 70.2317 107.247 70.9081 107.718 71.9554Z" fill="#EFA37D"/>
<path d="M104.062 68.8974C105.809 69.3271 106.124 70.1726 106.467 70.2261C106.81 70.2797 107.773 69.7802 108.645 70.7845C108.958 71.1455 109.262 71.96 109.407 72.7938L108.098 73.1367L108.132 72.8904C108.132 72.8904 107.83 74.118 107.5 74.0904C107.17 74.0629 107.92 72.3886 105.968 72.6659C104.016 72.9432 103.005 73.2793 102.127 71.9031C101.248 70.5272 102.315 68.4677 104.062 68.8978L104.062 68.8974Z" fill="#1F3A6F"/>
<path d="M107.656 73.4295C107.711 73.2046 107.854 73.0058 108.064 72.9092C108.237 72.8296 108.471 72.8104 108.716 73.0515C109.207 73.5336 108.491 74.6688 107.888 74.442L107.636 74.1146C107.593 73.8192 107.617 73.5913 107.657 73.4298L107.656 73.4295Z" fill="#FDC8AA"/>
<path d="M109.113 76.6289L109.961 77.4521C109.961 77.4521 106.656 80.1748 106.656 80.1239V78.8955L109.113 76.6289Z" fill="#1F3A6F"/>
<path d="M90.9538 83.0172C90.9538 83.0172 94.1258 81.8394 94.3159 83.7389C94.5057 85.6384 92.3595 85.4675 92.3595 85.4675C92.3595 85.4675 91.4857 85.5434 90.8587 84.6126C90.2321 83.6819 90.1118 83.2545 90.9538 83.0172Z" fill="#FDC8AA"/>
<g style="mix-blend-mode:multiply" opacity="0.22">
<path d="M112.526 90.6961L112.865 91.0723L110.178 91.9766L110.074 91.605C108.306 92.1931 105.364 93.1465 104.304 93.3389C102.915 93.5913 102.92 94.2839 101.841 94.3046L99.1602 91.6235C99.1866 91.5374 99.2269 91.4578 99.2809 91.3873C99.8954 90.5841 103.006 91.6691 103.006 91.6691L109.359 89.0517L109.278 88.7563L109.889 87.7754L110.264 88.1911C110.429 88.0764 110.592 87.9489 110.722 87.8188L113.051 90.1476C112.9 90.3483 112.725 90.532 112.526 90.6969V90.6961Z" fill="#003889"/>
</g>
<g style="mix-blend-mode:multiply" opacity="0.22">
<path d="M97.3626 74.4583C96.5146 76.0895 94.2865 79.9338 90.6629 83.1258L87.0781 79.5411L94.7618 71.8574L97.3626 74.4583Z" fill="#003889"/>
</g>
<path d="M109.239 87.9746L102.591 91.153C102.591 91.153 99.4251 90.2412 98.855 91.0772C98.2854 91.9128 99.5896 93.7618 101.134 93.8504C102.679 93.9391 102.442 93.1159 103.979 92.7488C105.516 92.3818 111.012 90.1529 111.012 90.1529L109.239 87.975V87.9746Z" fill="#FDC8AA"/>
<path d="M109.228 77.4766C109.228 77.4766 113.407 79.9205 113.331 82.3327C113.255 84.7449 114.167 89.1517 110.862 90.3676L108.883 87.8033C108.883 87.8033 110.216 87.0247 110.33 86.4739C110.444 85.9231 109.248 82.5228 109.248 82.5228L109.229 77.4766H109.228Z" fill="#F4B545"/>
<path d="M108.691 87.8977L109.768 91.0633L112.402 90.0123L109.249 86.8848L108.691 87.8977Z" fill="white"/>
<path d="M78.5985 42.4121C67.4852 42.4121 58.4766 51.4211 58.4766 62.5341C58.4766 73.6471 67.4852 82.6561 78.5985 82.6561C89.7119 82.6561 98.7201 73.6471 98.7201 62.5341C98.7201 51.4211 89.7115 42.4121 78.5985 42.4121ZM78.5985 80.0277C68.9369 80.0277 61.1049 72.1954 61.1049 62.5341C61.1049 52.8728 68.9373 45.0409 78.5985 45.0409C88.2598 45.0409 96.0918 52.8724 96.0918 62.5341C96.0918 72.1958 88.2594 80.0277 78.5985 80.0277Z" fill="#36588E"/>
<path d="M96.0888 62.5409C96.0888 66.742 94.6073 70.5973 92.1392 73.6131C90.7803 75.2734 89.1223 76.6791 87.2469 77.7482C87.2435 77.7501 87.2394 77.7528 87.2356 77.7543C87.0507 77.8599 86.8632 77.9625 86.6746 78.0602C86.5158 78.144 86.3554 78.2244 86.1932 78.3024C84.7091 79.0192 83.1083 79.5323 81.4276 79.8058C80.506 79.9556 79.5598 80.0341 78.5952 80.0341C77.1714 80.0341 75.7876 79.8639 74.4626 79.5429C73.4961 79.3094 72.5609 78.9947 71.6645 78.6069C71.271 78.4375 70.8855 78.2534 70.5071 78.0553C70.2867 77.9414 70.0698 77.8218 69.8555 77.6977C69.8363 77.6871 69.8174 77.6754 69.7986 77.6649C68.4966 76.9058 67.3015 75.9834 66.2414 74.9256C63.0663 71.7592 61.1016 67.3792 61.1016 62.5405C61.1016 54.4478 66.5964 47.6398 74.0578 45.6414C74.1989 45.6033 74.3404 45.5671 74.483 45.5332C74.5298 45.5218 74.5773 45.5109 74.6249 45.4996C74.7271 45.4754 74.8305 45.4528 74.9342 45.4313C75.0425 45.4079 75.1519 45.3857 75.2609 45.3649C76.3407 45.1559 77.4555 45.0469 78.5955 45.0469C79.6666 45.0469 80.715 45.1435 81.7325 45.3272C81.8407 45.3464 81.9494 45.3672 82.0573 45.3894C82.175 45.4128 82.2908 45.4377 82.4074 45.4637H82.4081C82.4564 45.4739 82.5047 45.4853 82.5519 45.4958C82.6832 45.526 82.8129 45.5581 82.9427 45.5916C90.5008 47.5236 96.0891 54.3792 96.0891 62.5405L96.0888 62.5409Z" fill="#ECF3FE"/>
<g style="mix-blend-mode:multiply" opacity="0.22">
<path d="M90.4326 54.9857C89.7928 53.5359 84.3489 52.4324 84.3463 52.4317L84.0931 51.1135L83.998 51.1894C83.9539 50.7495 83.9045 50.2556 83.8596 49.7958C83.8354 49.5528 83.8139 49.3351 83.7981 49.1597C84.1829 48.6776 84.5209 48.1034 84.7914 47.4635C85.0661 47.3745 85.5097 47.1557 85.8613 46.6222C86.0107 46.3966 86.1439 46.1141 86.2409 45.7613C86.5778 44.5375 85.8466 44.6703 85.4388 44.825C85.4535 44.6544 85.4622 44.4881 85.4648 44.3277C85.853 43.9475 86.2499 42.4565 86.159 42.1951C86.0666 41.928 87.5058 40.4525 86.8075 39.8247C86.1092 39.1974 81.3029 38.8884 79.2528 40.5985C77.5778 41.9963 78.2433 43.4898 78.3848 43.9384C78.398 43.9799 78.4282 44.0082 78.4659 44.0188C78.3923 44.273 78.3308 44.5424 78.2818 44.8253C78.0026 44.708 77.5356 44.6039 77.3352 45.0924C77.2711 45.249 77.2341 45.4652 77.2394 45.7617C77.2609 46.9478 77.8921 47.3375 78.2516 47.4639C78.3716 48.1898 78.6002 48.8322 78.9182 49.3498L78.3191 51.2033L78.3059 51.2441L78.1761 51.1143L77.5842 52.4324L77.6152 52.5403H77.6144C76.7094 52.5603 71.0063 52.9206 68.3326 58.7184C66.9417 61.7327 66.1823 68.348 65.7695 74.4354C65.9242 74.6022 66.0823 74.7655 66.243 74.9263C67.3035 75.9841 68.4983 76.9065 69.8002 77.6656C69.8191 77.6761 69.8375 77.6878 69.8572 77.6984C70.0714 77.8221 70.2884 77.9421 70.5087 78.056C70.8871 78.2541 71.2726 78.4382 71.6661 78.6076C72.5625 78.995 73.4977 79.3097 74.4643 79.5436C75.6104 79.8212 76.8007 79.9861 78.023 80.0257C78.7896 80.0008 79.5494 79.928 80.3005 79.8095C82.0155 79.5398 83.6819 79.0335 85.2562 78.3254C85.4282 78.2484 85.5991 78.1688 85.7681 78.0866C85.9696 77.99 86.1699 77.8893 86.368 77.7848L86.3755 77.8183L86.3801 77.7787C88.3909 76.7235 90.2274 75.336 91.7972 73.6971C92.2114 72.5439 92.5336 71.3955 92.6788 70.3459C93.3428 65.5242 91.3294 57.0196 90.433 54.9872L90.4326 54.9857ZM86.5747 75.2616L87.5258 70.4719L87.3157 64.4659V64.4641L87.3164 64.4667C87.3387 64.584 88.0547 68.3393 88.1404 69.7706C88.2268 71.2159 86.5925 75.2183 86.5747 75.262V75.2616Z" fill="#003889"/>
</g>
<path d="M87.2361 77.7542C87.0513 77.8598 86.8638 77.9624 86.6751 78.0601C86.5163 78.1439 86.356 78.2242 86.1938 78.3023C84.7096 79.0191 83.1089 79.5322 81.4282 79.8057C80.5065 79.9555 79.5604 80.0339 78.5957 80.0339C77.1719 80.0339 75.7881 79.8638 74.4632 79.5428C73.4966 79.3092 72.5614 78.9946 71.665 78.6068C71.2716 78.4374 70.886 78.2533 70.5076 78.0552C70.2873 77.9413 70.0704 77.8217 69.8561 77.6976V76.4496L69.7188 75.4676L69.8572 75.4649L72.3279 75.4121L85.2785 75.1363L86.8143 75.1035V76.4496L87.092 77.3112L87.2354 77.7538L87.2361 77.7542Z" fill="#1F3A6F"/>
<path d="M87.2491 76.4496V77.7877L87.2378 77.7538C87.0529 77.8594 86.8654 77.962 86.6768 78.0597L86.2256 78.0763L71.6667 78.6064C71.2732 78.437 70.8877 78.2529 70.5093 78.0548C70.289 77.9409 70.072 77.8213 69.8577 77.6972C69.8385 77.6866 69.8196 77.6749 69.8008 77.6644V76.4492H87.2487L87.2491 76.4496Z" fill="white"/>
<path d="M81.76 52.1792C81.76 52.1792 81.4137 56.085 78.2839 56.0386C75.1546 55.9922 75.453 52.4818 75.453 52.4818L75.7721 50.826L76.2543 48.3184H80.8957C80.8957 48.3417 80.9957 48.7948 81.1311 49.4003C81.4133 50.6645 81.7596 52.1792 81.7596 52.1792H81.76Z" fill="#FDC8AA"/>
<path d="M88.3718 54.6595C87.5456 53.1901 81.9572 52.0723 81.9572 52.0723L81.7569 52.1647L79.3617 53.272L78.869 53.5002L78.4947 53.673L78.2416 53.5526L77.753 53.3195L75.4989 52.2458L75.3608 52.1802C75.3608 52.1802 75.3178 52.1794 75.2389 52.1817C74.3358 52.2017 68.6799 52.5665 66.7506 58.4408C65.7161 61.5879 65.844 68.6088 66.2413 74.9264C67.3017 75.9842 68.4965 76.9066 69.7985 77.6657C69.8173 77.6762 69.8358 77.6879 69.8554 77.6985V76.4505H86.8141L86.4915 77.339L86.2229 78.0773L86.158 78.2568L86.1927 78.3029C86.3546 78.2244 86.5153 78.144 86.6741 78.0607C86.8627 77.9629 87.0502 77.8603 87.2351 77.7547L87.2464 77.7887V77.7487C89.1214 76.6795 90.7798 75.2738 92.1387 73.6135C92.4051 72.4455 92.5798 71.2824 92.5899 70.2189C92.6348 65.3341 89.5285 56.7186 88.371 54.6599L88.3718 54.6595ZM87.1185 75.201L86.4727 64.2612L86.4734 64.2638C86.5108 64.3823 87.7093 68.1866 87.9791 69.6368C88.2529 71.1089 87.1189 75.201 87.1189 75.201H87.1185Z" fill="#F4B545"/>
<path d="M81.1324 49.4003C80.4202 50.4563 78.4878 52.6844 75.7734 50.826L76.2556 48.3184H80.897C80.897 48.3417 80.997 48.7948 81.1324 49.4003Z" fill="#EFA37D"/>
<path d="M78.7031 53.2854L81.5371 50.7344L81.9596 52.0699L80.5347 55.5965L78.7031 53.2854Z" fill="white"/>
<path d="M78.4522 53.2854L75.6178 50.7344L75.1953 52.0699L76.6202 55.5965L78.4522 53.2854Z" fill="white"/>
<path d="M78.5508 52.918H79.1929L79.6754 53.9L79.0473 54.2791L80.5537 70.2173L78.7051 72.4427L76.4453 70.5938L78.2256 54.2848L77.5069 54.0596L77.8717 52.978L78.5508 52.918Z" fill="#1F3A6F"/>
<path d="M69.8717 63.9863C70.5179 68.1404 71.4988 72.7324 72.634 76.4492H69.8555L69.8717 63.9863Z" fill="#E59D29"/>
<path d="M82.081 44.7371C82.081 47.828 80.475 50.3338 78.4936 50.3338C76.5122 50.3338 74.9062 47.828 74.9062 44.7371C74.9062 41.6462 76.5122 40.084 78.4936 40.084C80.475 40.084 82.081 41.6462 82.081 44.7371Z" fill="#FDC8AA"/>
<path d="M75.1148 43.526C75.0432 43.5781 74.9455 43.549 74.9089 43.4653C74.71 43.0111 73.8533 41.4986 75.3484 40.0824C77.1785 38.3493 82.024 38.6624 82.8031 39.2984C83.5821 39.9345 82.3319 41.4292 82.4586 41.6993C82.5854 41.9698 82.3707 43.5313 82.0195 43.8814C82.0195 43.8814 79.3311 44.0723 78.1537 43.0386C77.1547 42.1619 75.5717 43.1929 75.1145 43.5257L75.1148 43.526Z" fill="#1F3A6F"/>
<path d="M75.1549 44.4791C75.1549 44.4791 73.7541 43.6317 73.9971 45.3136C74.24 46.995 75.4789 47.098 75.4789 47.098L75.1549 44.4794V44.4791Z" fill="#FDC8AA"/>
<path d="M81.8397 44.4791C81.8397 44.4791 83.2405 43.6317 82.9975 45.3136C82.7546 46.995 81.5156 47.098 81.5156 47.098L81.8397 44.4794V44.4791Z" fill="#FDC8AA"/>
<path d="M82.0469 45.2425C82.0469 45.2425 82.3204 44.8702 82.5135 45.0373C82.7067 45.204 82.4211 46.1347 82.2804 46.2309C82.1397 46.3271 82.5505 45.358 82.3653 45.2938C82.18 45.2297 82.0469 45.2425 82.0469 45.2425Z" fill="#EFA37D"/>
<path d="M74.9848 45.2425C74.9848 45.2425 74.7113 44.8702 74.5181 45.0373C74.3249 45.204 74.6105 46.1347 74.7512 46.2309C74.892 46.3271 74.4811 45.358 74.6664 45.2938C74.8516 45.2297 74.9848 45.2425 74.9848 45.2425Z" fill="#EFA37D"/>
<path d="M87.4548 70.3473L87.119 75.2012L86.8149 76.4503H85.207L85.9714 62.541L86.4727 64.2609L87.4548 70.3473Z" fill="#E59D29"/>
<g style="mix-blend-mode:multiply" opacity="0.21">
<path d="M68.6308 64.2012C69.1895 62.8702 67.9577 63.6742 68.1894 63.4908C68.4206 63.3064 68.9639 62.5843 68.8379 62.4326C68.713 62.2802 68.0475 62.8729 67.4243 63.3399C66.8014 63.807 66.9984 65.8185 66.9984 65.8185L66.7735 66.1701L66.5585 66.0702L62.8357 72.387L57.8434 74.8966C58.0282 74.5623 58.0863 74.1153 58.1048 73.8644C58.1139 73.7388 58.1776 73.6188 58.2768 73.5354L58.3297 73.4909C58.4006 73.4313 58.4277 73.3351 58.3953 73.254C58.2829 72.9706 58.0377 72.2825 57.9901 71.5567C58.3153 71.2903 58.8597 70.3649 58.4292 69.6247C57.9905 68.8706 55.427 67.9708 53.5403 69.2769C53.5392 69.2761 53.5384 69.275 53.5373 69.2739L53.4603 69.2067C53.2404 69.0151 52.8929 69.0486 52.6847 69.2825L52.5308 69.455C51.7661 69.0094 49.7847 68.1251 47.8516 69.5066C45.3873 71.2681 45.2036 73.5373 43.6489 74.196C42.0942 74.8547 37.9738 73.5331 36.8559 77.4955C35.7377 81.4579 40.3626 81.7974 42.1965 79.3879C44.0303 76.9779 46.7655 80.686 48.4167 77.5638C50.068 74.4416 48.1176 72.5432 49.7145 71.1907C50.5803 70.4577 51.396 70.1868 51.9619 70.0921L51.9173 70.1423C51.7087 70.3758 51.7182 70.7207 51.9381 70.9127L52.0151 70.9798C52.0486 71.0089 52.0852 71.0323 52.1237 71.0511C51.3631 72.8522 52.6213 74.0391 53.317 74.5567C53.5362 74.7196 53.8214 74.7585 54.1156 74.7008L53.8489 76.2279C53.8489 76.2279 53.8493 76.2279 53.85 76.2279C53.85 76.2279 53.8497 76.2279 53.8493 76.2279C53.8493 76.2279 51.4846 76.6572 50.1861 78.656C50.1287 78.7443 50.0737 78.8356 50.0209 78.9299C50.0084 78.9435 49.9952 78.9555 49.9831 78.9699C49.9446 79.0144 49.9092 79.06 49.8756 79.1064L44.7709 85.6006C44.6038 85.7941 44.4996 86.0175 44.454 86.2453C44.4536 86.2476 44.4532 86.2495 44.4529 86.2518C44.4468 86.2819 44.4415 86.3117 44.4378 86.3419C44.377 86.7724 44.5279 87.2085 44.8799 87.485L44.881 87.4858C44.9173 87.5141 44.955 87.5401 44.9935 87.5639L46.8843 88.8775L45.9136 89.6222C45.8291 89.6871 45.8087 89.804 45.868 89.8836L47.9346 92.6746C47.4464 94.6013 47.0182 96.1994 47.0182 96.1994C47.6396 95.9553 48.2153 95.6806 48.7506 95.3815L48.5216 96.2779L46.6617 103.561L39.6431 114.17L39.8865 114.354L39.7311 114.595L39.3791 115.143C38.139 114.194 36.0312 118.46 36.0312 118.46L36.3666 118.778C36.3666 118.778 37.3849 117.378 37.8772 117.234C38.3695 117.089 37.6142 118.782 37.6041 119.407C37.5939 120.033 38.8309 121.388 39.7216 121.419C40.6123 121.449 39.9838 119.606 39.6979 119.718C39.653 119.735 39.6126 119.739 39.5749 119.735C39.3051 119.218 40.3324 116.917 40.3324 116.917C40.3324 116.917 40.4312 116.801 40.6101 116.591C40.8108 116.357 41.1126 116.004 41.4891 115.563L41.9875 115.94L49.6843 105.604L50.2344 104.414L51.5989 101.465C52.7402 103.868 53.8866 105.725 53.8866 105.725L52.9748 117.504L53.277 117.549L53.2645 117.732L53.214 118.467C51.6129 118.431 51.8491 122.99 51.8491 122.99L52.3131 123.048C52.3131 123.048 52.5311 121.365 52.9046 120.97C53.2781 120.575 53.4456 122.337 53.7508 122.834C54.056 123.332 55.8586 123.688 56.6814 123.203C57.5042 122.717 56.0072 121.628 55.8039 121.88C55.7722 121.919 55.7375 121.945 55.7017 121.963C55.1965 121.711 54.9701 119.315 54.9701 119.315C54.9701 119.315 55.0328 119.021 55.1418 118.508C55.1825 118.317 55.2297 118.095 55.2825 117.848L55.8231 117.928L58.2716 104.143L56.3585 93.8638L56.1698 92.8493C56.2072 92.8021 56.234 92.752 56.2468 92.6984C56.3679 92.1985 56.3845 91.0471 56.406 89.8154L56.4309 88.6485C56.4641 87.4865 56.5328 86.414 56.7297 85.9171C57.2005 84.7314 58.7514 84.2349 58.619 82.6093C58.5768 82.0887 58.4311 81.6703 58.2542 81.2949C58.0814 80.4355 57.8592 79.2204 57.8351 78.539L64.3221 74.4846C64.5786 74.3405 64.774 74.1277 64.8989 73.8855C64.9012 73.8814 64.9038 73.8772 64.9061 73.8731L64.9064 73.8719C64.9117 73.8617 64.9155 73.8508 64.9208 73.8406C64.9291 73.8229 64.9374 73.8055 64.9449 73.7878C64.9521 73.772 64.9604 73.7561 64.9668 73.7399L68.1328 66.8013L67.943 66.713C67.9589 66.6844 67.9728 66.6602 67.9845 66.6413C68.4436 65.9061 68.0709 65.5307 68.6304 64.2005L68.6308 64.2012ZM57.9822 71.2764C57.9822 71.2684 57.9814 71.2613 57.9814 71.2534C57.9814 71.2613 57.9818 71.2688 57.9818 71.2767L57.9822 71.2764ZM57.9841 71.4326C57.9841 71.4356 57.9841 71.4386 57.9845 71.4416C57.9845 71.4386 57.9845 71.4356 57.9841 71.4326ZM47.6068 86.2804L49.2324 84.5639C49.2607 85.1309 49.3003 85.6802 49.3354 86.1959C49.3418 86.3597 49.3025 86.6675 49.2297 87.0787L48.8423 87.376L47.6071 86.2804H47.6068Z" fill="#003889"/>
</g>
<path d="M55.5842 82.2742C55.5842 82.2742 54.5652 78.8336 54.6859 78.1436C54.8066 77.4536 54.0846 77.0431 53.547 76.9397C53.0094 76.8364 52.3477 77.2706 52.3477 77.2706C52.3477 77.2706 54.5965 81.4778 54.8572 81.5401C55.1179 81.6019 55.5838 82.2742 55.5838 82.2742H55.5842Z" fill="#1E67D3"/>
<path d="M51.7273 78.3337C51.2493 77.5177 51.5232 76.4689 52.3392 75.9909C52.3879 75.9622 52.4377 75.9366 52.4883 75.9132L59.5668 72.2228C60.1912 71.8572 60.9936 72.0666 61.3596 72.691C61.7251 73.3154 61.5157 74.1178 60.8914 74.4837L54.2108 78.8536C54.1659 78.886 54.1192 78.9169 54.0701 78.9456C53.2541 79.4236 52.2053 79.1497 51.7273 78.3337Z" fill="#3B82F4"/>
<path d="M63.4964 67.8414L62.1484 67.2329L62.9531 65.8185C62.9531 65.8185 62.6128 63.807 63.2025 63.3399C63.7922 62.8729 64.4158 62.2802 64.5512 62.4326C64.6878 62.5843 64.1958 63.3067 63.9778 63.4908C63.759 63.6742 64.9338 62.8702 64.4697 64.2012C64.0053 65.5311 64.4045 65.9068 63.9978 66.6421C63.9178 66.787 63.736 67.2276 63.496 67.8414H63.4964Z" fill="#FDC8AA"/>
<path d="M61.4314 73.8709V73.872H61.431C61.1341 74.5318 60.3585 74.8261 59.6987 74.5292C59.0388 74.2323 58.7446 73.4566 59.0415 72.7968L59.0422 72.7953C59.0618 72.7519 59.0837 72.7104 59.1071 72.6701L62.5281 66.0684L64.1545 66.8002L61.4824 73.7388C61.468 73.7833 61.451 73.8271 61.4314 73.8709Z" fill="#3B82F4"/>
<path d="M52.9062 114.534L52.9081 115.33L52.9145 117.731L52.9187 119.5L55.1449 122.387C55.1449 122.387 56.2031 122.176 55.6716 121.971C55.1393 121.768 54.733 119.313 54.733 119.313C54.733 119.313 54.7744 119.019 54.8469 118.506C54.9378 117.865 55.077 116.884 55.243 115.71C55.283 115.43 55.3237 115.139 55.3664 114.84L52.9062 114.533V114.534Z" fill="#FDC8AA"/>
<path d="M55.2236 121.89C55.2236 121.89 55.5635 122.13 55.7488 121.878C55.934 121.626 57.5087 122.715 56.7202 123.201C55.9321 123.686 54.1043 123.33 53.7632 122.833C53.4226 122.335 53.1298 120.573 52.7842 120.968C52.4387 121.363 52.3406 123.047 52.3406 123.047L51.8724 122.988C51.8724 122.988 51.3103 118.419 52.92 118.465C52.92 118.465 53.329 120.22 55.2232 121.89H55.2236Z" fill="#1F3A6F"/>
<path d="M52.9062 115.33L52.9127 117.731C53.3303 117.895 54.2919 118.283 54.845 118.506C54.9359 117.866 55.0751 116.884 55.2411 115.71C54.593 115.605 53.6872 115.457 52.9062 115.33Z" fill="#EFA37D"/>
<path d="M38.332 116.038L38.7357 119.81C38.7357 119.81 39.7162 120.234 39.3778 119.753C39.0394 119.272 39.9241 116.916 39.9241 116.916C39.9241 116.916 40.0146 116.801 40.1787 116.591C40.5907 116.066 41.4641 114.95 42.5423 113.574C42.5853 113.519 42.6294 113.463 42.6732 113.407L40.7925 111.734L40.2896 112.614L39.1575 114.594L38.332 116.038Z" fill="#FDC8AA"/>
<path d="M39.1562 114.594L40.1775 116.59C40.5895 116.065 41.4628 114.95 42.541 113.574C41.8095 113.257 40.9731 112.902 40.2884 112.613L39.1562 114.594Z" fill="#EFA37D"/>
<path d="M39.0466 119.426C39.0466 119.426 39.2081 119.829 39.4865 119.716C39.7649 119.604 40.5247 121.448 39.6313 121.417C38.738 121.386 37.4048 120.031 37.3704 119.406C37.3361 118.78 37.9706 117.088 37.4889 117.232C37.0067 117.376 36.0885 118.777 36.0885 118.777L35.7305 118.459C35.7305 118.459 37.5383 114.183 38.8463 115.145C38.8463 115.145 38.3113 116.898 39.0466 119.427V119.426Z" fill="#1F3A6F"/>
<path d="M39.0391 114.169L41.5094 115.939L48.4706 105.603L48.9358 104.414L50.0902 101.464L51.6283 97.5355L49.0746 94.1734L48.9882 94.0598L47.4516 92.4406L47.3671 92.3516L46.6435 96.277L45.3024 103.56L39.0391 114.169Z" fill="#1F3A6F"/>
<path d="M48.9347 104.415L51.6269 97.5359L48.9876 94.0605L47.6328 94.9384C47.6415 95.0327 48.679 101.056 48.9347 104.415Z" fill="#072542"/>
<path d="M47.6024 95.6696C48.0958 97.5381 49.1023 99.6565 50.0908 101.465C51.4033 103.867 52.6818 105.725 52.6818 105.725L52.6086 117.504L55.4871 117.927L56.9539 104.142L54.3089 93.8629L53.8872 92.2221L53.7894 91.8438L47.5001 92.3063C47.4994 92.3085 47.4986 92.3104 47.4979 92.3127C47.4813 92.3549 47.4662 92.3976 47.4518 92.4413C47.1715 93.2985 47.2738 94.4291 47.602 95.6696H47.6024Z" fill="#1F3A6F"/>
<path d="M46.6406 96.2775C46.9911 96.1009 47.3114 95.8911 47.5989 95.6697C48.287 95.1411 48.7899 94.5477 49.0713 94.1742C49.2437 93.9464 49.3335 93.8007 49.3335 93.8007C51.8657 94.3021 53.6716 94.0063 54.3054 93.8634L53.8837 92.2227L47.4947 92.3132C47.4781 92.3554 47.4631 92.3981 47.4487 92.4418L47.3638 92.3528L46.6406 96.2778V96.2775Z" fill="#072542"/>
<path d="M46.772 90.0098C46.6026 91.6101 46.5569 93.4534 47.1681 93.4965C47.4171 93.5138 48.2075 93.5553 49.171 93.5636C51.1954 93.5836 53.9841 93.4636 54.1146 92.6978C54.3081 91.5671 53.729 87.1015 54.1146 85.9165C54.5009 84.7308 56.0168 84.2343 55.7685 82.6087C55.5203 80.9819 54.3353 80.3478 54.2798 78.9417C54.2251 77.5357 51.6617 76.2409 50.5453 76.2266C50.5453 76.2266 47.2854 76.826 46.5618 79.9067C45.8383 82.9875 47.1681 87.157 46.9199 88.8384C46.8686 89.1874 46.8157 89.5903 46.772 90.0094V90.0102V90.0098Z" fill="white"/>
<path d="M49.168 93.5625C48.1343 94.606 46.815 95.5178 45.1328 96.198C45.1328 96.198 46.8882 87.2773 46.7354 86.1734C46.7086 85.9807 46.6807 85.7826 46.6524 85.5811C46.6068 85.2503 46.5607 84.9096 46.5185 84.5621C46.3317 83.0225 46.2227 81.3577 46.5547 79.9256C46.5562 79.9188 46.5581 79.9128 46.5592 79.9064C47.2828 76.8264 50.5431 76.2266 50.5431 76.2266L49.8342 77.1625C49.7452 77.2799 49.7211 77.4221 49.7528 77.5523C49.7837 77.6794 49.8667 77.7945 49.9957 77.8594C50.4737 78.1004 51.2014 78.5196 51.8047 79.0866C52.3943 79.6415 52.8652 80.3376 52.8652 81.1472C52.8652 82.8909 53.3854 89.313 49.1684 93.5632L49.168 93.5625Z" fill="#3B82F4"/>
<path d="M50.543 76.2266C50.543 76.2266 50.6535 76.2266 51.522 77.4534C52.3897 78.6803 53.5343 79.9618 53.5479 79.3556C53.5614 78.7493 52.6937 77.9356 52.487 77.026C52.3915 76.6057 52.5372 76.1353 52.722 75.7508C52.9359 75.3034 53.2034 74.9722 53.2034 74.9722L51.0262 73.3594L50.9278 73.6683L50.7505 74.2278L50.5437 76.2262L50.543 76.2266Z" fill="#FDC8AA"/>
<path d="M50.9297 73.6683C51.5725 74.8243 52.2897 75.449 52.7243 75.7508C52.9382 75.3034 53.2057 74.9722 53.2057 74.9722L51.0285 73.3594L50.9301 73.6683H50.9297Z" fill="#EFA37D"/>
<path d="M54.2323 71.3679C54.2323 71.3679 55.0166 70.4126 54.5213 69.929C54.0259 69.4453 53.2695 70.1897 53.2695 70.1897C53.2695 70.1897 54.0109 70.6492 54.2327 71.3679H54.2323Z" fill="#072542"/>
<path d="M49.085 69.6654C49.085 69.6654 46.4045 67.7436 44.0659 69.5051C41.7269 71.2665 41.705 73.5357 40.1971 74.1944C38.6891 74.8531 34.4748 73.5316 33.6388 77.494C32.8027 81.4563 37.4517 81.7959 39.1143 79.3863C40.7769 76.9763 43.7758 80.6845 45.2048 77.5622C46.6339 74.44 44.548 72.5416 46.0488 71.1892C47.5495 69.8367 48.994 70.0562 48.994 70.0562L49.085 69.6654Z" fill="#1F3A6F"/>
<path d="M50.9033 73.6078C50.9033 73.6078 52.0656 74.7075 53.4219 75.2398C54.5231 75.6714 54.6295 74.3684 54.6302 73.8628C54.6302 73.7372 54.6857 73.6172 54.7789 73.5339L54.8283 73.4894C54.8951 73.4297 54.9151 73.3335 54.8773 73.2524C54.7279 72.9337 54.3729 72.101 54.3235 71.279C54.3043 70.953 54.1764 70.6697 54.0096 70.4343C53.6411 69.914 53.0838 69.627 53.0838 69.627C52.8043 69.6556 52.5587 69.7167 52.3433 69.8035C50.3619 70.6052 50.9036 73.6078 50.9036 73.6078H50.9033Z" fill="#FDC8AA"/>
<path d="M48.8813 69.2858L48.1755 70.1453C47.9837 70.3789 48.0175 70.7239 48.2512 70.9157L48.3331 70.983C48.5668 71.1749 48.9117 71.141 49.1036 70.9073L49.8093 70.0478C50.0012 69.8142 49.9673 69.4692 49.7337 69.2774L49.6517 69.2101C49.4181 69.0182 49.0731 69.0521 48.8813 69.2858Z" fill="white"/>
<path d="M51.6406 71.2473L52.5283 72.404C52.5283 72.404 52.8795 70.9674 54.0068 70.4343C53.6382 69.914 53.081 69.627 53.081 69.627C52.8015 69.6556 52.5559 69.7167 52.3404 69.8035L51.6406 71.2473Z" fill="#EFA37D"/>
<path d="M54.3474 71.555C54.3353 71.463 54.3255 71.3709 54.3202 71.2781C54.3184 71.2464 54.3157 71.2147 54.3116 71.1838C54.4304 70.9367 54.7333 70.2006 54.2437 69.9992C54.0977 69.9396 53.9139 69.9837 53.7204 70.1029C53.13 70.4655 52.4547 71.5218 52.5279 72.4035C52.5279 72.4035 52.045 71.644 51.5247 71.9432C51.1199 72.1764 51.4259 72.8709 51.8281 73.2104C52.0035 73.3587 52.0423 73.6137 51.9069 73.7993C51.8465 73.8823 51.7779 73.9729 51.7024 74.0668C51.2324 74.6542 50.4137 74.9247 49.8893 74.5542C49.0458 73.9585 47.393 72.4755 48.8775 70.1897C50.5303 67.6443 54.0701 68.7346 54.65 69.6223C55.1336 70.3629 54.6537 71.2894 54.3474 71.5546V71.555Z" fill="#1F3A6F"/>
<path d="M49.9986 78.2427C50.4664 78.3986 51.1651 78.6732 51.8031 79.0863C51.1998 78.5197 50.4721 78.1005 49.9941 77.8594C49.8647 77.7949 49.7813 77.6799 49.7508 77.5527L49.7379 77.5765C49.5972 77.8315 49.7221 78.1503 49.9986 78.2431V78.2427Z" fill="#1E67D3"/>
<path d="M54.4571 89.4942L47.8262 94.8753C47.7465 94.94 47.6292 94.9278 47.5646 94.8481L43.5325 89.8796C43.4679 89.7999 43.4801 89.6826 43.5597 89.6179L50.1907 84.2368C50.2704 84.1721 50.3876 84.1843 50.4523 84.264L54.4844 89.2325C54.549 89.3122 54.5368 89.4295 54.4571 89.4942Z" fill="#1F3A6F"/>
<path d="M52.964 88.0539L53.4578 87.6528C53.565 87.5657 53.5714 87.3963 53.4725 87.2744L53.1953 86.9327C53.3552 86.7353 53.3454 86.4241 53.1571 86.1921C52.9689 85.9604 52.6667 85.8865 52.4404 86.0027L52.1631 85.6609C52.0638 85.5387 51.8967 85.5104 51.7896 85.5971L51.2957 85.9982C51.1886 86.0853 51.1822 86.2547 51.281 86.3766L52.5905 87.9897C52.6897 88.112 52.8568 88.1403 52.964 88.0535V88.0539Z" fill="#F4B545"/>
<path d="M49.2765 78.6903C50.0178 79.2773 50.1427 80.3544 49.5553 81.0957C49.5202 81.1402 49.4833 81.1821 49.4448 81.2221L44.185 87.2273C43.7357 87.7943 42.9117 87.8902 42.3443 87.4408C41.7773 86.9915 41.6815 86.1676 42.1308 85.6002L46.7734 79.106C46.8036 79.0592 46.836 79.0136 46.8711 78.9694C47.4581 78.2281 48.5352 78.1032 49.2765 78.6906V78.6903Z" fill="#3B82F4"/>
<path d="M49.4603 81.2035L46.6535 85.5801C46.6078 85.2493 46.5618 84.9086 46.5195 84.5611L49.4603 81.2031V81.2035Z" fill="#1E67D3"/>
<path d="M49.3532 91.8729C49.7561 92.2634 50.1416 92.8225 50.6558 93.0296C51.1697 93.2364 51.5745 92.4456 51.6824 92.0593C51.7903 91.6734 51.1184 91.5783 51.0652 91.2931C51.012 91.0079 51.768 91.2444 51.5005 90.8653C51.2331 90.4861 50.6913 90.7551 50.2876 90.7117C50.1714 90.6993 50.0028 90.7068 49.8591 90.6287C49.6829 90.5333 49.4637 90.3009 49.2849 90.1719C48.971 90.5276 48.5956 90.8325 48.2734 91.1743C48.4074 91.2614 48.8412 91.4681 48.9295 91.5123C49.1434 91.6191 49.2449 91.7673 49.3535 91.8726L49.3532 91.8729Z" fill="#FDC8AA"/>
<path d="M42.3765 87.4847L42.3754 87.484C41.7952 87.0516 41.6748 86.2311 42.1072 85.6509C42.5391 85.0706 43.36 84.9503 43.9403 85.3822L43.9414 85.3834C43.9795 85.4117 44.0157 85.4422 44.0497 85.4735L49.7591 90.2365L48.6941 91.667L42.4942 87.5628C42.4539 87.539 42.4146 87.513 42.3761 87.4847H42.3765Z" fill="#3B82F4"/>
<path d="M153.359 45.2803C157.38 45.2803 160.64 42.0206 160.64 37.9995C160.64 33.9785 157.38 30.7188 153.359 30.7188C149.338 30.7188 146.078 33.9785 146.078 37.9995C146.078 42.0206 149.338 45.2803 153.359 45.2803Z" fill="#C4D7F2"/>
<path d="M57.7101 18.863C59.1963 17.3767 59.1963 14.967 57.7101 13.4808C56.2238 11.9945 53.8141 11.9945 52.3278 13.4808C50.8416 14.967 50.8416 17.3767 52.3278 18.863C53.8141 20.3493 56.2238 20.3493 57.7101 18.863Z" fill="#C4D7F2"/>
<path d="M146.823 116.007C148.697 116.007 150.216 114.488 150.216 112.614C150.216 110.74 148.697 109.221 146.823 109.221C144.949 109.221 143.43 110.74 143.43 112.614C143.43 114.488 144.949 116.007 146.823 116.007Z" fill="#C4D7F2"/>
</svg>
