<svg width="177" height="173" viewBox="0 0 177 173" fill="none" xmlns="http://www.w3.org/2000/svg">
<circle cx="77.9973" cy="75.7415" r="62.095" fill="#EEF8F4"/>
<g style="mix-blend-mode:multiply">
<path d="M97.7028 148.434C97.7028 154.002 88.6294 158.524 77.4471 158.524C66.2647 158.524 57.1914 154.002 57.1914 148.434C57.1914 142.865 66.2647 138.344 77.4471 138.344C88.6294 138.344 97.7028 142.865 97.7028 148.434Z" fill="#E2E9FB"/>
</g>
<path d="M67.6464 144.37C68.2078 142.564 69.6189 141.396 70.8175 141.76C72.001 142.124 72.1527 143.793 71.9555 145.705C71.9251 146.054 71.7127 146.357 71.5458 146.645C71.212 147.252 71.0451 147.935 71.0603 148.633C71.0603 149.164 70.9844 149.741 70.8023 150.317C70.423 151.546 69.194 152.366 68.2837 152.821C67.525 153.2 66.5995 152.866 66.2505 152.093C65.7498 151.015 65.4919 149.407 66.205 148.117C66.4933 147.586 67.5402 144.703 67.6464 144.37Z" fill="#343C6B"/>
<path d="M79.9976 141.531C80.2859 141.744 80.7108 142.229 80.999 142.548C81.697 143.291 82.6832 143.716 83.6846 144.065C85.0653 144.551 86.173 144.657 86.9771 144.444C87.7509 144.247 88.0696 143.337 87.6144 142.684C87.1744 142.047 86.3702 141.213 85.2778 140.257C84.6557 139.711 84.0791 139.21 83.6088 138.815C82.9563 138.254 82.5315 137.465 82.4556 136.6C82.4101 136.13 82.3494 135.705 82.2735 135.675C80.5894 135.037 78.1921 135.386 77.7672 136.206C77.7672 136.206 77.2969 138.709 77.2969 139.331C77.2969 139.726 77.4183 140.378 78.1465 140.651C78.6017 140.818 79.33 141.031 80.0128 141.516L79.9976 141.531Z" fill="#343C6B"/>
<path d="M65.7339 77.3809V83.4348C65.7339 84.3452 67.2664 142.715 67.2664 142.715C67.2664 144.217 72.9258 144.354 72.9107 142.411L75.8845 99.9125L77.0528 135.978C77.0377 137.799 83.3344 137.359 83.2282 135.842L84.1082 87.5163C84.1233 86.6666 84.0475 85.8018 83.8654 84.9673L65.7188 77.396L65.7339 77.3809Z" fill="#B8C9F5"/>
<path d="M75.8867 100.124L77.1005 99.3804C77.7833 98.9707 78.633 99.4866 78.6026 100.276L76.9792 132.578L75.8867 100.124Z" fill="#819BEA"/>
<path d="M95.7436 77.8203C95.7436 77.8203 96.1078 78.5183 95.9105 80.3997C95.774 81.7197 95.0457 82.706 95.0457 82.706L93.6953 81.7045L94.5602 78.1389L95.7436 77.8203Z" fill="#343C6B"/>
<path d="M96.9004 78.3667C96.9004 78.3667 97.1887 78.9281 97.0369 80.4302C96.9307 81.4772 96.339 82.2661 96.339 82.2661L95.2617 81.462L95.9445 78.6095L96.8852 78.3516L96.9004 78.3667Z" fill="#9BA1A7"/>
<path d="M103.984 81.0989C103.635 81.4023 100.95 82.3279 100.13 82.2975C98.4764 82.2217 95.4722 81.9637 95.0625 81.8879C94.7439 81.8423 94.3949 81.7816 94.0156 81.7361L94.8501 78.0947C95.275 78.2312 95.6846 78.3829 96.1246 78.5347C96.4433 78.6409 96.6253 78.6712 96.8074 78.7016C96.8378 78.7016 97.2474 77.8671 97.2474 77.8671C97.4143 77.5333 97.6874 77.2602 98.0364 77.0781C98.0364 77.0781 98.962 76.6077 99.5992 76.3498C100.373 76.016 100.965 75.6518 101.208 75.9705C101.481 76.3194 100.859 76.8201 100.601 77.0022L99.2654 78.0188C100.859 77.2602 102.497 76.3346 102.71 77.4119C102.71 77.4119 106.048 79.263 104.014 81.0989H103.984Z" fill="#FCBAC0"/>
<path d="M96.336 82.2675C96.336 82.2675 95.4408 82.3282 94.2422 82.2978L94.9857 78.0039C96.0781 78.2163 96.8974 78.3681 96.8974 78.3681C95.9871 78.7777 95.9415 81.5847 96.336 82.2675Z" fill="#C6D0E9"/>
<path d="M95.7468 77.8181C94.6088 78.3188 94.5481 81.8541 95.0488 82.7037C95.0488 82.7037 83.5934 82.7037 81.6816 81.0954C80.3616 79.9726 78.4195 68.7599 77.6457 64.0109C77.5546 63.6467 77.6153 63.1915 77.8581 62.8274C78.1008 62.4481 78.465 62.1901 78.905 62.0991C78.905 62.0991 83.9879 61.4467 84.1396 62.2356C84.5189 64.2233 86.4155 73.6456 86.7645 75.7091C86.7948 75.9063 86.9466 76.0125 87.1438 76.0884C87.9631 76.3919 95.7468 77.8333 95.7468 77.8333V77.8181Z" fill="#343C6B"/>
<path d="M62.7461 67.2919L65.0675 74.9997L65.5227 89.08C66.3269 94.2995 83.6542 92.7519 83.6542 85.9696V62.3001C83.6542 58.2641 80.7562 56.4585 77.7823 56.7772C77.1451 56.8379 76.4926 57.0048 75.8706 57.2627C75.6278 57.3537 73.8222 56.3675 73.5795 56.4889L68.7545 59.2807C68.4207 59.4779 68.1021 59.66 67.7986 59.8421C64.6427 61.7538 62.7461 63.5594 62.7461 67.3071V67.2919Z" fill="#C6D0E9"/>
<path d="M70.5312 52.362V59.0532C70.5616 59.3415 70.7285 59.6298 71.0775 59.8574C71.9727 60.434 73.6265 60.5402 74.8251 60.1153C75.5079 59.8574 75.8872 59.4781 75.8872 59.0684V53.6972L73.3534 50.4199H73.0803L70.5312 52.3772V52.362Z" fill="#FCBAC0"/>
<path d="M69.042 106.24C68.7386 106.346 68.3289 105.951 68.2075 105.542C68.0861 105.162 67.5399 104.176 67.5399 104.176C67.5399 104.176 66.7813 106.224 65.7799 105.815C63.2308 104.753 63.2308 103.433 63.4281 102.492C63.6405 101.521 64.2322 100.853 64.3688 99.9277L64.0653 96.6504H67.5247L67.464 98.6077C67.4337 99.3967 67.6309 100.201 68.0254 100.884L68.3896 101.506C68.5717 101.824 68.693 102.173 68.7689 102.522L69.3151 105.147C69.482 105.693 69.4365 106.088 69.042 106.224V106.24Z" fill="#FCBAC0"/>
<path d="M85.6415 89.14C85.6415 91.3552 82.1063 93.9649 81.6511 93.6463C81.1656 93.3125 82.0608 79.7177 80.9531 70.7809C80.3918 66.2746 79.4359 62.1324 77.8731 59.553C77.0993 58.2937 75.8399 57.3075 75.9613 57.2923C76.6592 57.1557 76.4923 56.8219 77.0234 56.7157C77.0993 56.7006 77.7213 56.7157 77.7972 56.7157C80.8014 56.7157 84.1394 58.1875 84.1394 62.2235L84.5946 72.1313L85.6567 89.1248L85.6415 89.14Z" fill="#445393"/>
<path d="M65.4163 93.6741L65.0673 74.9812L61.8203 67.6831C61.8203 63.9506 64.6425 61.7354 67.8136 59.8236C68.117 59.6415 68.4357 59.4443 68.7695 59.2622L70.5447 58.2305L70.3929 59.2622C70.135 61.0374 73.731 68.0169 74.8234 72.766C76.2648 79.0172 77.0386 95.2976 76.7048 95.5859C76.0979 96.0866 65.8866 96.6631 65.4314 93.6893L65.4163 93.6741Z" fill="#445393"/>
<path d="M63.0034 69.5816L62.5938 82.706C62.5938 83.1461 62.5938 83.6164 62.6393 84.0564L64.1869 98.7892C64.4297 99.6541 67.6311 99.4113 67.7525 98.4251L68.1622 83.9502C68.1622 83.4192 68.1622 82.8729 68.2229 82.3419C68.4808 80.0812 69.3001 72.5251 69.4518 70.4464L63.0034 69.5664V69.5816Z" fill="#C6D0E9"/>
<path d="M69.9681 70.5365C69.8164 72.6607 68.9364 80.5809 68.7391 82.432C68.6784 82.9327 68.6632 83.4486 68.6784 83.9645L68.3294 96.9068C68.375 98.2572 63.5348 98.4393 63.4286 97.2558L62.1238 84.1314C62.0783 83.661 62.0631 83.1755 62.0783 82.7051L61.8203 67.6992L69.9833 70.5365H69.9681Z" fill="#445393"/>
<path d="M70.5312 52.3595V52.6781C70.5312 55.212 72.6251 57.3968 75.159 57.2148C75.3865 57.1996 75.5686 57.1692 75.7507 57.1389C75.7962 57.1389 75.8417 57.1086 75.9024 57.1086V53.6795L73.3686 50.4022L73.2624 50.2656L73.0954 50.4022L70.5464 52.3595H70.5312Z" fill="#ED8B8B"/>
<path d="M78.177 45.9421C79.4515 48.0056 80.3619 51.9657 79.2846 54.1354C78.617 55.4858 77.646 56.1837 76.2652 56.2444C75.719 56.2596 73.2003 55.9561 71.41 54.7726C70.2416 53.9988 69.2858 53.043 68.6789 52.0871C66.5243 48.7491 67.4043 45.3352 70.0747 43.5903C74.9756 40.3888 76.4473 43.1503 78.177 45.9421Z" fill="#FCBAC0"/>
<path d="M65.2344 48.3555C65.4013 50.8438 67.222 53.7115 70.5297 55.1074V53.757C70.1048 53.3625 69.68 52.9225 69.4828 52.3156C69.3614 51.9515 69.9379 51.739 70.5297 51.9666C70.56 51.9666 70.5904 51.9666 70.6207 51.997C70.8787 52.1184 71.258 52.088 71.6525 52.0273C72.2897 51.9211 72.6387 51.2383 72.3808 50.6618C70.6207 46.5348 75.476 45.5789 76.6747 44.2133C77.1905 44.714 78.2071 45.943 78.2071 45.943C78.0706 45.3361 77.6912 44.6533 77.4181 43.9251C76.6747 42.0285 74.7174 40.9057 72.7297 41.1636C72.4111 41.1939 72.0773 41.2546 71.7283 41.3457C66.8882 42.514 65.0978 45.8975 65.2647 48.3555H65.2344Z" fill="#343C6B"/>
<path d="M71.6074 51.6762C72.533 52.5107 72.8516 53.6638 72.3206 54.2707C71.7895 54.8777 70.5909 54.6956 69.6653 53.8611C68.7398 53.0266 68.4211 51.8734 68.9522 51.2665C69.4832 50.6596 70.6819 50.8417 71.6074 51.6762Z" fill="#FCBAC0"/>
<path d="M145.741 37.7629L95.9131 66.8491C93.622 68.1691 92.2109 70.6119 92.2109 73.252V112.58C92.2109 115.432 95.3062 117.208 97.7642 115.781L147.576 86.5586C149.852 85.2385 151.263 82.7957 151.263 80.1556V40.9643C151.263 38.1118 148.183 36.3366 145.71 37.7629H145.741Z" fill="#81A0EA"/>
<path d="M147.593 38.9601L97.7803 68.0464C95.4892 69.3664 94.0781 71.8092 94.0781 74.4493V113.777C94.0781 116.63 97.1734 118.405 99.6314 116.979L149.444 87.7558C151.72 86.4358 153.131 83.993 153.131 81.3529V42.1616C153.131 39.3091 150.051 37.5339 147.577 38.9601H147.593Z" fill="#E2E9FB"/>
<path d="M155.331 69.1531L124.682 87.0418C123.271 87.8611 122.406 89.3633 122.406 90.9867V115.187C122.406 116.947 124.303 118.04 125.82 117.16L156.469 99.18C157.865 98.3607 158.73 96.8586 158.73 95.2503V71.1407C158.73 69.3807 156.833 68.2882 155.316 69.1683L155.331 69.1531Z" fill="#81A0EA"/>
<path d="M157.167 70.3054L126.518 88.1942C125.107 89.0135 124.242 90.5156 124.242 92.1391V116.34C124.242 118.1 126.139 119.192 127.656 118.312L158.305 100.332C159.701 99.5131 160.566 98.011 160.566 96.4026V72.2931C160.566 70.533 158.669 69.4406 157.152 70.3206L157.167 70.3054Z" fill="#E2E9FB"/>
<path d="M23.3553 60.4593L54.0043 78.348C55.4154 79.1673 56.2802 80.6694 56.2802 82.2929V106.494C56.2802 108.254 54.3836 109.346 52.8664 108.466L22.2022 90.4711C20.8063 89.6517 19.9414 88.1496 19.9414 86.5413V62.4317C19.9414 60.6717 21.838 59.5793 23.3553 60.4593Z" fill="#81A0EA"/>
<path d="M21.3675 61.6116L52.0165 79.5003C53.4276 80.3197 54.2924 81.8218 54.2924 83.4453V107.646C54.2924 109.406 52.3958 110.498 50.8785 109.618L20.2295 91.6234C18.8336 90.8041 17.9688 89.302 17.9688 87.6937V63.5841C17.9688 61.824 19.8653 60.7316 21.3826 61.6116H21.3675Z" fill="#E2E9FB"/>
<path d="M28.5316 104.066L48.408 115.673C49.3184 116.204 49.8798 117.175 49.8798 118.237V133.941C49.8798 135.079 48.6508 135.792 47.6645 135.216L27.7882 123.548C26.8778 123.017 26.3164 122.046 26.3164 120.999V105.356C26.3164 104.218 27.5454 103.505 28.5316 104.081V104.066Z" fill="#81A0EA"/>
<path d="M26.7582 105.052L46.6346 116.66C47.5449 117.191 48.1063 118.162 48.1063 119.224V134.928C48.1063 136.066 46.8773 136.779 45.8911 136.202L26.0147 124.534C25.1044 124.003 24.543 123.032 24.543 121.985V106.342C24.543 105.204 25.772 104.491 26.7582 105.068V105.052Z" fill="#E2E9FB"/>
<g style="mix-blend-mode:multiply">
<path d="M147.105 95.3894L116.456 113.278C115.045 114.097 114.18 115.6 114.18 117.223V141.424C114.18 143.184 116.076 144.276 117.594 143.396L148.243 125.416C149.639 124.597 150.503 123.095 150.503 121.487V97.3771C150.503 95.617 148.607 94.5246 147.089 95.4046L147.105 95.3894Z" fill="#B8C9F5"/>
</g>
<g style="mix-blend-mode:multiply">
<path d="M17.4096 49.5068L37.5288 61.2505C38.4543 61.7816 39.0157 62.7678 39.0157 63.8451V79.731C39.0157 80.8841 37.7715 81.5972 36.7701 81.0207L16.651 69.2162C15.7255 68.6852 15.1641 67.699 15.1641 66.6369V50.7965C15.1641 49.6433 16.4082 48.9302 17.4096 49.5068Z" fill="#B8C9F5"/>
</g>
<g style="mix-blend-mode:multiply">
<path d="M120.434 42.4814L100.315 54.2251C99.3895 54.7562 98.8281 55.7424 98.8281 56.8197V72.7056C98.8281 73.8587 100.072 74.5718 101.074 73.9953L121.193 62.1908C122.118 61.6598 122.68 60.6736 122.68 59.6115V43.7711C122.68 42.6179 121.436 41.9048 120.434 42.4814Z" fill="#B8C9F5"/>
</g>
</svg>
