<svg width="177" height="173" viewBox="0 0 177 173" fill="none" xmlns="http://www.w3.org/2000/svg">
<circle cx="88.3176" cy="78.4719" r="62.095" fill="#EEF8F4"/>
<path d="M78.3446 34.3108L107.396 50.9441C110.811 52.8904 112.937 56.5204 112.948 60.4608L112.865 132.725V137.37C112.411 143.699 106.095 146.326 102.274 144.833C102.238 144.833 102.214 144.833 102.214 144.821C102.13 144.785 102.035 144.726 101.963 144.69L75.9206 125.68C72.5295 123.71 70.416 120.068 70.404 116.128L67.0965 70.6103L66.5353 40.7468C66.3562 36.4124 72.1713 31.3495 78.3326 34.3347L78.3446 34.3108Z" fill="#81A0EA"/>
<g style="mix-blend-mode:multiply">
<path d="M76.0545 37.2478L103.721 53.0811C107.124 55.0393 109.249 58.6693 109.273 62.5978L109.369 138.194C109.572 144.319 104.772 146.505 101.07 144.355L72.2813 127.71C68.8782 125.728 66.7408 122.193 66.7408 118.265L66.3945 41.2479C66.3945 36.9971 71.1827 34.1671 76.0545 37.2478Z" fill="#E2E9FB"/>
</g>
<path d="M75.7202 38.0957L102.981 53.7021C106.336 55.6246 108.426 59.2068 108.449 63.0755L108.545 137.585C108.748 143.627 104.008 145.776 100.366 143.651L71.9828 127.244C68.6275 125.286 66.526 121.811 66.526 117.931L66.1797 42.0242C66.1797 37.833 70.8962 35.0509 75.7083 38.0838L75.7202 38.0957Z" fill="#343C6B"/>
<path d="M106.301 136.223L106.17 76.9143L106.146 66.92L68.6406 45.3672L68.8197 99.1478L68.8794 114.754L106.301 136.223Z" fill="#819BEA"/>
<path d="M101.977 78.2431V97.0854L88.0781 89.0135V70.207L101.977 78.2431Z" fill="#E2E9FB"/>
<path d="M85.9887 69.1298V87.9721L72.0898 79.9002V61.0938L85.9887 69.1298Z" fill="#3754E0"/>
<path d="M101.977 115.985V122.362L88.0781 114.29V107.949L101.977 115.985Z" fill="#3754E0"/>
<path d="M85.9887 106.876V113.252L72.0898 105.18V98.8398L85.9887 106.876Z" fill="#E2E9FB"/>
<path d="M101.977 101.192V102.482L72.0781 85.1795V83.9258L101.977 101.192Z" fill="#E2E9FB"/>
<path d="M101.977 73.2386V74.5282L72.0781 57.2262V55.9844L101.977 73.2386Z" fill="#E2E9FB"/>
<path d="M101.977 105.752V107.054L72.0781 89.752V88.4863L101.977 105.752Z" fill="#E2E9FB"/>
<path d="M101.977 110.325V111.614L72.0781 94.3121V93.0703L101.977 110.325Z" fill="#C71B48"/>
<g style="mix-blend-mode:multiply">
<path d="M70.6054 155.708C80.8205 155.708 89.1014 151.437 89.1014 146.168C89.1014 140.898 80.8205 136.627 70.6054 136.627C60.3903 136.627 52.1094 140.898 52.1094 146.168C52.1094 151.437 60.3903 155.708 70.6054 155.708Z" fill="#E2E9FB"/>
</g>
<path d="M93.4563 71.8858C93.3727 71.7425 93.313 71.6112 93.313 71.6112C93.4682 71.1574 94.7459 69.9992 94.5548 69.7484C93.9578 68.9842 91.3906 71.9097 91.3906 71.9097C91.3906 71.9097 91.6652 71.1216 91.7727 70.8708C91.8921 70.5843 91.7965 70.2619 91.6413 70.1544C91.3309 69.9395 90.9846 70.3216 90.9129 70.5365L89.9577 72.2321C89.8263 72.4589 89.7428 72.7097 89.695 72.9724L89.5995 73.4858C89.492 74.047 89.0024 75.0739 88.8711 75.468L89.4801 77.7725C89.6114 77.4382 91.1995 75.5038 91.4742 75.2769C91.8801 74.9545 92.31 74.6202 92.6563 74.2262C92.6563 74.2262 93.5279 73.3187 93.5876 72.8649C93.6712 72.5425 93.6235 72.1962 93.4563 71.8977V71.8858Z" fill="#FCBAC0"/>
<path d="M68.7654 141.867C68.7654 141.867 68.7654 142.834 67.5833 143.706C67.4162 143.825 67.1893 143.98 66.9505 144.136C66.2818 144.553 65.3743 145.342 64.7892 145.891C64.4668 146.189 64.1086 146.404 63.619 146.428C62.8907 146.464 62.2578 146.237 62.3533 145.139C62.3533 145.067 62.3653 144.936 62.3772 144.804C62.3772 144.745 62.3892 144.685 62.4011 144.625C62.413 144.542 62.4608 142.524 62.4727 142.476C62.5563 142.846 63.0698 141.413 63.3802 141.401C63.8579 141.377 63.7862 142.512 64.1086 142.213C64.6818 141.664 65.3027 141.915 66.8908 141.103L67.1893 141.055C68.4192 140.912 68.6102 141.318 68.7296 141.688C68.7416 141.747 68.7535 141.807 68.7654 141.855V141.867Z" fill="#343C6B"/>
<path d="M78.0318 146.857C78.0318 146.857 76.9213 146.749 76.5511 146.737C75.6795 146.701 73.757 146.152 73.16 146.57C72.4794 147.036 70.9629 147.43 70.951 146.164L70.0913 146.439C70.0793 146.713 69.9957 148.278 69.9957 148.385C69.9719 148.851 70.0674 149.328 70.3181 149.722C70.8913 150.63 72.6704 150.104 73.6854 149.89L76.7302 149.484C77.8407 149.257 78.5572 148.481 78.7602 147.812C78.8079 147.358 78.4975 146.94 78.0557 146.857H78.0318Z" fill="#343C6B"/>
<path d="M61.898 103.179L61.5398 104.493C61.4562 104.815 61.3846 105.149 61.3607 105.484C61.2054 107.06 61.1935 108.648 61.301 110.236L61.5517 113.699L62.3398 142.165C62.2682 143.312 66.0772 143.419 66.0653 142.058L66.8295 112.553L67.9041 112.97L69.9579 146.285C69.9579 147.455 73.767 147.574 73.8147 146.153C73.8147 146.153 74.9372 112.29 75.0685 106.976C75.164 103.239 68.3579 104.242 68.3579 104.075L71.8804 101.316L61.8741 103.155L61.898 103.179Z" fill="#445393"/>
<path d="M71.175 97.4959C71.175 97.4959 58.6971 99.7169 56.9418 96.9825C56.1537 95.7526 60.7867 83.215 60.7867 83.215L61.8972 81.8418L65.0256 82.7373C65.4435 82.8567 66.0406 82.2239 66.0406 82.2239C65.5271 83.9075 62.8405 92.0749 62.2076 93.9854C62.1121 94.2839 71.3183 94.9168 71.3183 94.9168C70.6138 95.1078 70.5183 97.1974 71.175 97.4959Z" fill="#C71B48"/>
<path d="M61.6132 97.6732L61.2431 104.026C61.4102 107.25 74.3897 107.847 75.4285 105.685C75.6315 105.267 75.4285 100.324 75.2733 97.0762C75.1897 95.1896 75.3569 93.3029 75.7867 91.4521C75.8106 91.3686 75.8345 91.273 75.8584 91.1775C76.145 89.9596 76.933 88.9327 78.0435 88.3715C79.6436 87.5476 82.975 86.1505 84.0377 85.6609C84.6944 85.3624 85.2676 84.8967 85.6975 84.3117L90.9752 77.3622C91.5603 76.6577 89.005 74.4726 88.3244 75.0099L82.2108 81.4817L78.6644 82.6519C77.8883 82.9146 77.0524 82.9862 76.2405 82.831C74.6763 82.5206 73.0882 82.7474 72.9926 82.7116C72.4553 82.5564 71.9299 82.3295 71.4284 82.0549C71.0105 81.828 70.712 81.6608 70.712 81.6608L70.6403 81.637L68.4671 80.4787L68.3 80.3951C68.2164 80.3474 67.8582 80.5145 67.5 80.6817C67.1298 80.8608 66.7477 81.0399 66.6283 81.0399C66.1268 80.8608 65.6372 80.7414 65.1476 80.7175C64.9566 80.7056 64.7536 80.7175 64.5745 80.7175C62.4968 80.825 60.4311 82.222 60.5266 85.0042L61.6013 96.109C61.649 96.6463 61.661 97.1598 61.6252 97.6971L61.6132 97.6732Z" fill="#FF4A59"/>
<path d="M65.6565 82.2479C65.6565 83.2629 67.3162 84.0987 69.37 84.0987C71.1014 84.0987 72.5582 83.5017 72.9641 82.7016C72.4268 82.5345 71.9014 82.3195 71.3999 82.0449C70.982 81.818 70.6835 81.6509 70.6835 81.6509L70.6118 81.627L68.4386 80.4688C68.0924 80.5165 67.758 80.5762 67.4595 80.6717C67.1371 80.7673 66.8386 80.8867 66.5878 81.03C65.9908 81.3524 65.6445 81.7822 65.6445 82.2598L65.6565 82.2479Z" fill="#FCBAC0"/>
<path d="M73.5722 77.6852C72.9512 80.7659 70.9094 81.0524 68.987 80.1211C66.8496 79.0822 65.5361 76.5747 65.4048 74.7359C65.2137 71.9298 66.9809 70.1029 69.2974 69.9477C74.5871 69.5775 73.7871 76.6225 73.5722 77.6852Z" fill="#FCBAC0"/>
<path d="M66.7109 76.2292L66.9259 82.3428C66.9259 82.6294 67.2124 82.8921 67.702 83.0473C68.5498 83.322 69.72 83.2025 70.3289 82.7727C70.5797 82.5936 70.6872 82.4025 70.6872 82.1995L70.4842 76.0859L66.7109 76.2173V76.2292Z" fill="#FCBAC0"/>
<path d="M69.1453 73.8531C69.8139 74.7367 70.8169 75.1904 71.7722 75.1426C72.0826 75.1426 72.3812 74.3784 72.7633 73.9366C73.014 73.6501 73.4081 73.662 73.5633 73.5187C74.2558 72.9097 74.3633 70.7007 72.823 69.8171C71.3184 68.9574 69.79 68.9335 68.7512 69.1365C68.596 69.1604 69.5751 69.638 69.4557 69.7335C68.2616 70.653 68.1184 72.4918 69.1572 73.8531H69.1453Z" fill="#343C6B"/>
<path d="M68.522 78.4511L68.9757 76.6241C69.0952 76.1465 69.334 75.6928 69.6683 75.3346C70.0146 74.9644 70.4444 74.6778 70.934 74.5226L72.7609 73.9375C72.6535 75.4778 71.9967 76.7435 70.5758 78.2481C69.8952 78.9764 69.1549 79.4063 68.4504 79.5615V79.263C68.4265 78.9884 68.4504 78.7137 68.522 78.4391V78.4511Z" fill="#343C6B"/>
<path d="M68.7379 69.1365C70.9588 68.9335 72.7738 70.7604 72.7858 73.447C72.7858 73.6142 72.7857 73.7694 72.7619 73.9247L70.935 74.5097C70.4454 74.665 70.0155 74.9396 69.6692 75.3217C69.3349 75.6919 69.0961 76.1337 68.9767 76.6113L68.5229 78.4382C68.4513 78.7009 68.4274 78.9875 68.4394 79.2621V79.5606C67.0901 79.8711 65.5259 78.8561 65.0005 76.9456C64.7258 75.9426 62.2899 69.7216 68.7498 69.1365H68.7379Z" fill="#343C6B"/>
<path d="M72.0581 77.0415C72.5715 77.6744 72.6432 78.4505 72.2372 78.7849C71.8312 79.1192 71.079 78.8685 70.5775 78.2475C70.064 77.6147 69.9924 76.8385 70.3983 76.5042C70.8043 76.1699 71.5566 76.4206 72.0581 77.0415Z" fill="#FCBAC0"/>
</svg>
