<svg width="177" height="173" viewBox="0 0 177 173" fill="none" xmlns="http://www.w3.org/2000/svg">
<circle cx="88.22" cy="77.7883" r="62.095" fill="#EEF8F4"/>
<path d="M104.615 135.138L104.564 135.087C104.748 134.383 104.279 133.567 103.167 132.935L96.4348 129.059C95.2821 128.396 94.5783 127.172 94.5783 125.846V122.612L82.0728 115.35V117.583C82.0728 119.012 80.5325 119.899 79.2983 119.185L76.3198 117.471C74.6061 116.482 72.0357 116.298 70.577 117.063L62.733 121.174C62.07 121.521 61.7741 122.01 61.7843 122.531C61.7639 122.531 61.7639 124.397 61.7639 124.397C61.7639 125.019 62.2842 125.703 63.2328 126.244L90.0392 141.697C91.7528 142.686 94.3233 142.87 95.782 142.105L103.626 137.994C104.87 137.229 104.605 136.209 104.605 135.128L104.615 135.138Z" fill="#E2E9FB"/>
<path d="M94.5781 121.05V110.238L82.0726 104.148V115.348L94.5781 122.611V121.05Z" fill="#B8C9F5"/>
<path d="M94.5861 121.092V110.279L92.5052 109.27V124.59C92.5052 125.916 93.209 127.14 94.3617 127.803L95.8203 128.64C95.0553 127.946 94.5963 126.957 94.5963 125.896V121.092H94.5861Z" fill="#81A0EA"/>
<path d="M104.564 135.045C104.626 134.8 104.585 134.535 104.493 134.28C104.36 134.627 104.105 134.953 103.636 135.239L95.7922 139.35C94.3437 140.115 91.7732 139.931 90.0494 138.942L63.243 123.488C62.5086 123.06 62.0394 122.56 61.8557 122.07C61.8047 122.213 61.7843 122.356 61.7843 122.499C61.7639 122.499 61.7639 124.365 61.7639 124.365C61.7639 124.988 62.2842 125.671 63.2328 126.212L90.0392 141.665C91.7528 142.655 94.3233 142.838 95.782 142.073L103.626 137.962C104.87 137.197 104.605 136.177 104.605 135.096L104.554 135.045H104.564Z" fill="#B8C9F5"/>
<path d="M49.6452 41.2215L51.7057 87.7349C51.7057 90.9072 53.3887 93.8347 56.1326 95.4259L121.751 135.789C124.719 137.512 130.523 135.666 130.523 130.913V83.6242C130.523 80.4519 128.83 77.5142 126.076 75.9229L58.3869 36.7742C54.4904 34.8463 49.6452 37.8044 49.6452 41.2215Z" fill="#343C6B"/>
<path d="M49.63 83.2695V88.7675C49.63 91.9398 51.313 94.8673 54.0569 96.4585L121.756 135.791C124.725 137.515 128.438 135.373 128.438 131.945V129.048L49.63 83.2695Z" fill="#445393"/>
<path d="M128.445 84.6562C128.445 81.4839 126.752 78.5463 123.998 76.955L56.3088 37.8062C53.3405 36.0926 49.6378 38.2347 49.6378 41.662V83.269L128.445 129.048V84.6562Z" fill="#E2E9FB"/>
<path d="M54.564 42.0996V81.4728L123.508 121.519V81.9828L54.564 42.0996Z" fill="#819BEA"/>
<path d="M118.367 98.8121V114.908L106.494 108.013V91.9473L118.367 98.8121Z" fill="#E2E9FB"/>
<path d="M70.3746 56.6348L86.5625 65.9986V82.0641L70.3746 72.6594V56.6348Z" fill="#E2E9FB"/>
<path d="M89.0413 67.0078L118.367 83.9403V85.0522L89.0413 68.0788V67.0078Z" fill="#3754E0"/>
<path d="M89.0413 70.9141L118.367 87.8466V88.9482L89.0413 71.9749V70.9141Z" fill="#E2E9FB"/>
<path d="M89.0413 74.8203L118.367 91.7528V92.8545L89.0413 75.8811V74.8203Z" fill="#445393"/>
<path d="M58.9927 50.2988V51.3903L67.7344 56.4394V55.348L58.9927 50.2988Z" fill="#E2E9FB"/>
<path d="M58.9927 58.3242V59.4157L67.7344 64.4648V63.3734L58.9927 58.3242Z" fill="#3754E0"/>
<g style="mix-blend-mode:multiply">
<path d="M59.1873 143.764C52.0723 143.764 46.3043 140.891 46.3043 137.348C46.3043 133.804 52.0723 130.932 59.1873 130.932C66.3024 130.932 72.0703 133.804 72.0703 137.348C72.0703 140.891 66.3024 143.764 59.1873 143.764Z" fill="#E2E9FB"/>
</g>
<path d="M80.0255 73.0049C79.954 72.8825 79.903 72.7703 79.903 72.7703C80.0356 72.3827 81.1271 71.3933 80.9639 71.1791C80.4539 70.5263 78.2608 73.0253 78.2608 73.0253C78.2608 73.0253 78.4954 72.3521 78.5872 72.1379C78.6892 71.8931 78.6076 71.6177 78.475 71.5259C78.2098 71.3423 77.914 71.6687 77.8528 71.8523L77.0368 73.3007C76.9246 73.4945 76.8532 73.7088 76.8124 73.9332L76.7308 74.3718C76.6389 74.8512 76.2207 75.7284 76.1085 76.065L76.6287 78.0337C76.741 77.7481 78.0976 76.0956 78.3322 75.9018C78.679 75.6264 79.0462 75.3408 79.342 75.0042C79.342 75.0042 80.0867 74.229 80.1377 73.8414C80.2091 73.5659 80.1683 73.2701 80.0255 73.0151V73.0049Z" fill="#FCBAC0"/>
<path d="M58.7383 132.787C58.7383 132.787 58.7383 133.613 57.7284 134.358C57.5856 134.46 57.3918 134.593 57.1878 134.725C56.6166 135.082 55.8414 135.755 55.3416 136.225C55.0662 136.48 54.7602 136.663 54.3419 136.684C53.7197 136.714 53.1791 136.52 53.2607 135.582C53.2607 135.521 53.2709 135.409 53.2811 135.296C53.2811 135.245 53.2913 135.194 53.3015 135.143C53.3117 135.072 53.3525 133.348 53.3627 133.307C53.4341 133.624 53.8727 132.4 54.1379 132.389C54.546 132.369 54.4848 133.338 54.7602 133.083C55.2498 132.614 55.7802 132.828 57.1368 132.134L57.3918 132.094C58.4425 131.971 58.6057 132.318 58.7077 132.634C58.7179 132.685 58.7281 132.736 58.7383 132.777V132.787Z" fill="#445393"/>
<path d="M66.6471 137.053C66.6471 137.053 65.6985 136.961 65.3822 136.951C64.6376 136.92 62.9954 136.451 62.4854 136.808C61.9039 137.206 60.6085 137.542 60.5983 136.461L59.8639 136.696C59.8537 136.93 59.7823 138.266 59.7823 138.358C59.7619 138.756 59.8435 139.164 60.0577 139.501C60.5473 140.276 62.0671 139.827 62.9342 139.643L65.5352 139.297C66.4839 139.103 67.0959 138.44 67.2693 137.869C67.3101 137.481 67.0449 137.124 66.6675 137.053H66.6471Z" fill="#445393"/>
<path d="M52.8654 99.7397L52.5594 100.862C52.488 101.137 52.4268 101.423 52.4064 101.708C52.2738 103.055 52.2636 104.411 52.3554 105.768L52.5696 108.726L53.2428 133.044C53.1816 134.023 56.4355 134.115 56.4253 132.952L57.0781 107.747L57.9962 108.104L59.7506 136.563C59.7506 137.562 63.0045 137.664 63.0453 136.451C63.0453 136.451 64.0041 107.523 64.1163 102.983C64.1979 99.7907 58.3838 100.648 58.3838 100.505L61.3929 98.1484L52.845 99.7193L52.8654 99.7397Z" fill="#343C6B"/>
<path d="M60.9815 94.8843C60.9815 94.8843 50.3222 96.7816 48.8228 94.4457C48.1496 93.3951 52.0971 82.6848 52.0971 82.6848L53.0457 81.5117L55.7182 82.2767C56.0752 82.3787 56.5852 81.8381 56.5852 81.8381C56.1466 83.2764 53.8515 90.2534 53.3109 91.8854C53.2293 92.1404 61.0938 92.6811 61.0938 92.6811C60.4919 92.8443 60.4103 94.6293 60.9713 94.8843H60.9815Z" fill="#3754E0"/>
<path d="M52.8124 95.0356L52.4962 100.462C52.639 103.216 63.7268 103.726 64.6142 101.88C64.7876 101.523 64.6142 97.3 64.4816 94.5255C64.4102 92.9139 64.553 91.3022 64.9202 89.7212C64.9406 89.6498 64.961 89.5682 64.9814 89.4866C65.2262 88.4462 65.8994 87.5689 66.8481 87.0895C68.2149 86.3857 71.0608 85.1923 71.9686 84.7741C72.5296 84.519 73.0192 84.1212 73.3865 83.6214L77.895 77.6848C78.3948 77.083 76.2119 75.2164 75.6305 75.6754L70.408 81.1937L67.3785 82.1934C66.7155 82.4178 66.0014 82.479 65.3078 82.3464C63.9716 82.0812 62.6149 82.275 62.5333 82.2444C62.0743 82.1118 61.6255 81.918 61.1971 81.6834C60.8401 81.4896 60.5851 81.3467 60.5851 81.3467L60.5239 81.3263L58.6674 80.3369L58.5246 80.2655C58.4532 80.2247 58.1472 80.3675 57.8412 80.5103C57.525 80.6633 57.1986 80.8163 57.0966 80.8163C56.6682 80.6633 56.2499 80.5613 55.8317 80.5409C55.6685 80.5307 55.4951 80.5409 55.3421 80.5409C53.5673 80.6327 51.8026 81.8262 51.8842 84.2028L52.8022 93.6891C52.843 94.1481 52.8532 94.5969 52.8226 95.0458L52.8124 95.0356Z" fill="#5278FF"/>
<path d="M56.2808 81.8597C56.2808 82.7267 57.6987 83.4407 59.4531 83.4407C60.9322 83.4407 62.1766 82.9307 62.5234 82.2473C62.0644 82.1045 61.6156 81.9209 61.1872 81.6863C60.8302 81.4925 60.5752 81.3497 60.5752 81.3497L60.514 81.3293L58.6575 80.3398C58.3617 80.3806 58.0761 80.4316 57.8211 80.5132C57.5457 80.5948 57.2907 80.6969 57.0765 80.8193C56.5665 81.0947 56.2706 81.4619 56.2706 81.8699L56.2808 81.8597Z" fill="#FCBAC0"/>
<path d="M63.0329 77.9617C62.5025 80.5933 60.7582 80.8381 59.116 80.0425C57.2901 79.1551 56.1681 77.013 56.0559 75.4422C55.8927 73.0451 57.4023 71.4845 59.3812 71.3519C63.8999 71.0357 63.2165 77.0538 63.0329 77.9617Z" fill="#FCBAC0"/>
<path d="M57.1697 76.7181L57.3533 81.9407C57.3533 82.1855 57.5981 82.4099 58.0163 82.5425C58.7406 82.7771 59.7402 82.6751 60.2604 82.3079C60.4746 82.1549 60.5664 81.9917 60.5664 81.8183L60.393 76.5957L57.1697 76.7079V76.7181Z" fill="#FCBAC0"/>
<path d="M59.2496 74.6874C59.8208 75.4422 60.6776 75.8298 61.4937 75.789C61.7589 75.789 62.0139 75.1362 62.3403 74.7588C62.5545 74.514 62.8911 74.5242 63.0237 74.4018C63.6153 73.8816 63.7071 71.9945 62.3913 71.2397C61.106 70.5053 59.8004 70.4849 58.913 70.6583C58.7804 70.6787 59.6168 71.0867 59.5148 71.1683C58.4948 71.9537 58.3724 73.5246 59.2598 74.6874H59.2496Z" fill="#343C6B"/>
<path d="M58.7187 78.6057L59.1063 77.0451C59.2084 76.6371 59.4124 76.2494 59.698 75.9434C59.9938 75.6272 60.361 75.3824 60.7792 75.2498L62.3398 74.75C62.248 76.0658 61.687 77.1471 60.4732 78.4323C59.8918 79.0545 59.2594 79.4217 58.6575 79.5543V79.2993C58.6371 79.0647 58.6575 78.8301 58.7187 78.5955V78.6057Z" fill="#343C6B"/>
<path d="M58.9015 70.6596C60.7987 70.4862 62.3492 72.0469 62.3594 74.3419C62.3594 74.4847 62.3594 74.6173 62.339 74.7499L60.7783 75.2498C60.3601 75.3824 59.9929 75.617 59.6971 75.9434C59.4115 76.2596 59.2075 76.637 59.1055 77.045L58.7179 78.6057C58.6567 78.8301 58.6363 79.0749 58.6465 79.3095V79.5645C57.4938 79.8297 56.1576 78.9627 55.7088 77.3306C55.4742 76.4738 53.3933 71.1594 58.9117 70.6596H58.9015Z" fill="#343C6B"/>
<path d="M61.7407 77.4103C62.1793 77.9509 62.2405 78.6139 61.8937 78.8995C61.5469 79.1851 60.9043 78.9709 60.4758 78.4405C60.0474 77.9101 59.976 77.2369 60.3228 76.9513C60.6697 76.6657 61.3123 76.8799 61.7407 77.4103Z" fill="#FCBAC0"/>
<g style="mix-blend-mode:multiply">
<path d="M91.7655 157.465C84.6504 157.465 78.8825 154.592 78.8825 151.049C78.8825 147.505 84.6504 144.633 91.7655 144.633C98.8805 144.633 104.648 147.505 104.648 151.049C104.648 154.592 98.8805 157.465 91.7655 157.465Z" fill="#E2E9FB"/>
</g>
<path d="M93.9757 122.571L93.2617 134.506C93.2311 135.159 93.1189 135.811 92.9353 136.434L90.1098 147.287C90.4362 147.083 90.9156 146.858 91.2624 146.848C91.3848 146.848 91.497 146.838 91.6092 146.838H91.8132C92.1498 146.838 92.4456 147.073 92.5477 147.379C92.5579 147.43 92.5681 147.481 92.5783 147.521C92.5783 147.521 92.5783 148.317 91.599 149.041C91.4562 149.143 91.2726 149.276 91.0686 149.398C90.5076 149.745 89.9976 150.153 89.5182 150.612C89.253 150.857 88.9469 151.041 88.5491 151.061C87.9473 151.092 87.4577 150.592 87.4985 150C87.4985 149.939 87.5087 149.827 87.5189 149.725C87.5189 149.674 87.5291 149.623 87.5393 149.582C87.5393 149.521 87.5495 149.49 87.5597 149.439C87.6005 149.194 87.6413 148.909 87.6821 148.654C87.7739 148.062 87.8351 147.481 87.8657 146.889C87.9881 144.319 88.4063 137.841 89.508 134.261L87.9779 121.307L93.9961 122.612L93.9757 122.571Z" fill="#F8AFAC"/>
<path d="M98.0475 151.581L96.1298 151.428C95.6096 151.428 95.12 151.194 94.7732 150.806C94.6202 150.633 94.559 150.388 94.61 150.153C95.6708 145.522 100.985 120.899 98.3331 115.299C95.375 109.056 88.9488 114.024 88.9488 114.024C88.9488 114.024 87.021 118.604 87.9696 121.266C88.8264 123.663 92.5597 124.663 92.5597 124.663L93.2227 135.485C92.5801 139.372 92.0191 151.245 91.8049 152.387C91.7131 152.907 91.8151 153.632 92.0293 153.948C92.5087 154.672 93.6001 154.417 94.4468 154.244L96.9458 153.754C97.8639 153.57 98.4657 152.928 98.6289 152.367C98.6697 151.989 98.4147 151.643 98.0373 151.581H98.0475Z" fill="#FEC7C4"/>
<path d="M92.5397 147.369C92.5397 147.369 92.5601 147.471 92.5703 147.512C92.5703 147.512 92.5703 147.991 92.1011 148.552C92.1419 148.052 92.1725 147.512 92.2133 146.961C92.3663 147.053 92.4785 147.196 92.5397 147.369Z" fill="#535873"/>
<path d="M92.5703 147.513C92.5703 147.513 92.5703 148.308 91.5911 149.032C91.4483 149.134 91.2647 149.267 91.0607 149.389C90.4997 149.736 89.9896 150.144 89.5102 150.603C89.245 150.848 88.939 151.032 88.5412 151.052C87.9394 151.083 87.409 150.889 87.4906 149.991C87.4906 149.93 87.5008 149.818 87.511 149.716C87.511 149.665 87.5212 149.614 87.5314 149.573C87.5416 149.502 87.5416 149.471 87.5518 149.43C87.6232 149.736 87.9598 149.808 88.2148 149.797C88.6126 149.777 88.9594 149.685 89.2246 149.44C89.704 148.981 93.1313 147.023 91.0097 146.901L91.2545 146.86C92.2745 146.737 92.4275 147.074 92.5397 147.39C92.5499 147.441 92.5601 147.492 92.5703 147.533V147.513Z" fill="#343C6B"/>
<path d="M87.97 121.278C87.5926 120.217 87.664 118.86 87.8986 117.605C88.2454 115.698 88.9493 114.025 88.9493 114.025C88.9493 114.025 95.1306 109.18 98.3335 115.3C98.6395 115.892 98.8639 116.667 98.9965 117.595C100.394 126.643 94.743 150.063 94.743 150.063C94.6614 150.226 94.4472 150.338 94.1718 150.41C94.1208 150.43 94.0698 150.44 94.0188 150.45C93.2946 150.583 92.2643 150.43 91.8767 149.971C91.8767 149.971 92.8254 137.812 93.213 135.487L93.1926 135.191C93.1416 135.609 93.0498 136.027 92.9274 136.425L90.3569 146.534C90.2345 146.676 89.9591 146.809 89.6123 146.901C89.5613 146.911 89.5001 146.921 89.4491 146.942C88.8472 147.054 88.1128 146.993 87.7864 146.554C87.7864 146.554 87.6946 137.629 89.4797 134.232L87.9496 121.278H87.97Z" fill="#B8C9F5"/>
<path d="M92.9883 131.153L92.4885 122.38L90.5402 121.523L92.9883 131.153Z" fill="#819BEA"/>
<path d="M98.0471 151.582L96.8129 151.48C97.3025 151.613 97.4657 152.062 96.9761 152.409C96.4151 152.796 91.8249 153.439 91.8045 152.388C91.7841 152.592 91.7739 152.766 91.7637 152.847C91.7433 153.235 91.8249 153.633 92.0289 153.959C92.5083 154.714 93.5998 154.428 94.4464 154.255L96.9455 153.765C97.8635 153.582 98.4653 152.939 98.6285 152.378C98.6693 152.001 98.4143 151.654 98.0369 151.593L98.0471 151.582Z" fill="#343C6B"/>
<path d="M96.7435 110.575C96.7435 110.575 86.992 112.544 85.564 110.432C84.9315 109.484 88.4506 99.069 88.4506 99.069L89.1749 98.457L91.6433 99.0997C91.9697 99.1813 92.4288 98.6814 92.4288 98.6814C92.0513 100.007 90.0929 106.474 89.6339 107.984C89.5625 108.219 96.8047 108.555 96.8047 108.555C96.2539 108.719 96.2131 110.361 96.7435 110.575Z" fill="#343C6B"/>
<path d="M92.5585 98.754C93.0685 99.315 93.7723 99.6924 94.5475 99.7638C94.8944 99.7638 95.2208 99.723 95.537 99.6312C96.1286 99.468 97.1384 99.1416 97.6484 98.9682C97.475 98.8662 97.3016 98.754 97.1282 98.652L96.5162 98.295L94.2925 97.0098L92.8951 97.4892C92.3749 97.6728 92.1811 98.3358 92.5483 98.7336L92.5585 98.754Z" fill="#FBB2B8"/>
<path d="M98.7088 94.6227C98.0661 97.3258 96.2403 97.5196 94.5776 96.6424C92.711 95.6632 91.6298 93.3987 91.5788 91.7667C91.4972 89.2778 93.1088 87.7171 95.1693 87.6457C99.8614 87.4825 98.9332 93.6945 98.7088 94.6227Z" fill="#FEC7C4"/>
<path d="M92.6825 93.125V98.5414C92.6825 98.7964 92.9171 99.0412 93.3455 99.1942C94.0902 99.4696 95.1306 99.3982 95.6814 99.0412C95.9058 98.8984 96.0078 98.7148 96.0078 98.5414V93.125H92.6825Z" fill="#FBB2B8"/>
<path d="M107.482 108.657L108.522 110.351C109.134 109.932 109.512 109.647 109.512 109.647C109.797 109.575 110.419 109.422 111.011 109.127C111.817 108.719 112.011 107.637 111.409 106.964L111.307 106.852C111.307 106.852 112.031 106.189 112.204 106.036C112.398 105.862 112.48 105.679 112.398 105.536C112.245 105.261 111.96 105.393 111.725 105.556C111.276 105.862 109.93 106.76 109.93 106.76C109.756 106.882 109.593 107.035 109.471 107.209L109.216 107.556C108.93 107.933 108.553 108.229 108.114 108.402C108.114 108.402 107.869 108.504 107.482 108.668V108.657Z" fill="#FBB2B8"/>
<path d="M88.6413 107.527L88.3047 104.65L87.8355 100.733C87.8151 97.9791 89.7022 96.8673 91.5994 97.1121C91.9666 97.1529 92.3236 97.2447 92.6806 97.3977C92.8234 97.4589 93.9557 96.8367 94.1087 96.9081L94.2923 97.0203L96.0467 98.0301L96.516 98.2953L97.128 98.6523C97.3014 98.7543 97.4748 98.8563 97.6482 98.9685C97.6788 98.9889 97.7196 99.0093 97.7604 99.0297C98.6172 99.5499 99.321 100.04 99.8515 100.621C100.372 101.192 100.708 101.865 100.831 102.763C100.831 102.763 101.647 109.658 101.8 110.444C101.861 110.77 108.338 108.281 108.338 108.281C108.756 108.434 109.277 109.424 109.175 109.862C109.175 109.862 101.871 115.197 99.4638 113.433C99.2598 113.28 99.015 112.749 98.7804 112.005C98.6886 114.116 99.1578 115.83 99.0864 116.187C99.0864 116.217 99.0762 116.227 99.066 116.238C96.4854 118.125 88.9473 117.645 88.0905 115.554C87.9783 115.269 88.6005 113.28 88.7943 112.433C89.1615 110.811 88.8351 109.179 88.6413 107.527Z" fill="#343C6B"/>
<path d="M98.7717 88.4816C97.5477 86.819 92.8351 85.7785 89.5914 88.2878C89.4282 88.4204 89.2854 88.5734 89.1018 88.6754C88.2858 89.114 87.5514 89.8893 87.0923 90.9195C86.6945 91.8171 86.5517 92.7657 86.6333 93.643C86.6741 94.051 86.5313 94.4488 86.2559 94.765C86.0315 95.0302 85.8275 95.3362 85.6745 95.683C85.0217 97.1315 85.2869 98.7635 86.2355 99.5795C86.3477 99.6815 86.4701 99.7734 86.6027 99.8448C86.7557 99.9264 86.9189 99.9978 87.0923 100.039C86.9291 101.161 87.2453 102.242 87.9594 102.854C88.0716 102.956 88.194 103.048 88.3266 103.119C89.3568 103.68 90.6318 103.241 91.4479 102.16C91.4887 102.181 91.5193 102.211 91.5601 102.232C93.2533 103.16 95.4362 102.13 96.4358 99.9264C97.0784 98.4881 97.0682 96.9173 96.5072 95.734C96.4154 95.5402 96.3134 95.3668 96.191 95.1934C96.7826 94.612 97.2416 93.898 97.5476 93.1738C97.6803 92.8575 97.9047 92.5821 98.2005 92.4087C98.2617 92.3781 98.3127 92.3373 98.3739 92.2965C99.5163 91.4907 99.7203 89.7771 98.7819 88.5122L98.7717 88.4816Z" fill="#FF4A59"/>
<path d="M97.3824 94.0109C97.8108 94.5821 97.8618 95.2757 97.4844 95.5613C97.107 95.8367 96.4644 95.6021 96.0257 95.0309C95.5871 94.4597 95.5463 93.7661 95.9237 93.4804C96.3011 93.205 96.9438 93.4396 97.3824 94.0109Z" fill="#FEC7C4"/>
</svg>
