<svg width="177" height="136" viewBox="0 0 177 136" fill="none" xmlns="http://www.w3.org/2000/svg">
<path d="M88.466 116.014C116.396 116.014 139.037 93.3724 139.037 65.4426C139.037 37.5127 116.396 14.8711 88.466 14.8711C60.5361 14.8711 37.8945 37.5127 37.8945 65.4426C37.8945 93.3724 60.5361 116.014 88.466 116.014Z" fill="#ECF3FE"/>
<path d="M90.5398 122.74C122.329 122.74 148.099 121.008 148.099 118.872C148.099 116.736 122.329 115.004 90.5398 115.004C58.7506 115.004 32.9805 116.736 32.9805 118.872C32.9805 121.008 58.7506 122.74 90.5398 122.74Z" fill="#D7E4F9"/>
<path d="M124.446 109.46L124.843 109.649L125.252 109.843L125.547 109.984C125.547 109.984 127.572 107.055 130.596 104.647C130.767 104.511 130.94 104.376 131.117 104.244C132.49 103.22 134.044 102.332 135.692 101.872C136.18 101.736 136.678 101.637 137.179 101.585C137.188 101.584 137.199 101.582 137.208 101.581C139.183 101.379 141.328 100.928 143.349 100.067C143.632 99.9487 143.912 99.8192 144.19 99.6831C145.851 98.8621 147.394 97.7362 148.646 96.2091C148.754 96.0789 148.859 95.9453 148.961 95.8093C149.845 94.6354 150.564 93.2412 151.047 91.5867C151.09 91.441 151.13 91.2942 151.169 91.1447C151.504 89.852 151.703 88.4078 151.731 86.7926C151.737 86.4322 151.712 86.0959 151.656 85.7817C151.631 85.6298 151.597 85.4841 151.556 85.3436C151.12 83.7999 149.885 82.9018 148.169 82.6004C147.587 82.4972 146.95 82.4637 146.269 82.4965C146.11 82.5041 145.948 82.5151 145.784 82.53C145.617 82.5441 145.448 82.5645 145.276 82.5859C143.525 82.8162 141.55 83.4367 139.532 84.4155C139.381 84.488 139.233 84.5629 139.081 84.6399C137.399 85.4976 135.695 86.6024 134.073 87.9369C133.921 88.0601 133.771 88.1872 133.622 88.3153C132.405 89.3597 131.239 90.5343 130.172 91.8321C130.033 92.002 129.895 92.1746 129.759 92.3487C129.706 92.416 129.652 92.484 129.6 92.5527C128.31 94.2335 127.185 96.1055 126.315 98.1547C126.144 98.551 125.986 98.9546 125.838 99.3645C125.502 100.288 125.216 101.245 124.991 102.234C124.476 104.483 124.267 106.896 124.446 109.46L124.446 109.46Z" fill="#C4D7F2"/>
<path d="M124.844 109.648L125.254 109.843C125.855 108.065 126.555 106.416 127.33 104.889C127.734 104.807 129.175 104.55 130.597 104.646C130.768 104.51 130.94 104.376 131.118 104.243C129.761 104.066 128.321 104.254 127.593 104.381C128.428 102.795 129.343 101.345 130.311 100.016C130.71 100.54 131.939 101.374 135.692 101.872C136.181 101.735 136.678 101.636 137.18 101.584C134.601 101.342 133.057 100.965 132.138 100.624C130.987 100.197 130.677 99.7881 130.596 99.6296C131.934 97.8422 133.365 96.2847 134.812 94.9323C135.108 95.4885 135.886 96.7297 137.428 97.8712C138.611 98.7482 139.997 99.3828 141.553 99.7574C142.059 99.8799 142.584 99.9742 143.126 100.041C143.2 100.051 143.275 100.059 143.35 100.067C143.632 99.9483 143.912 99.8188 144.19 99.6828C141.102 99.4988 139.021 98.4875 137.718 97.5259C136.132 96.3575 135.379 95.0542 135.155 94.616C136.806 93.111 138.473 91.8708 140.046 90.854C140.345 91.3488 141.212 92.6048 142.904 93.8219C144.156 94.7227 146.03 95.706 148.646 96.2084C148.754 96.0782 148.859 95.9446 148.961 95.8086C146.315 95.339 144.433 94.3643 143.188 93.4728C141.55 92.2983 140.702 91.0639 140.428 90.6123C140.832 90.3565 141.232 90.1165 141.621 89.8907C142.831 89.1902 144.009 88.5929 145.12 88.0888C145.341 88.4289 145.897 89.196 146.844 89.9353C147.702 90.6023 149.014 91.3377 150.798 91.559C150.881 91.568 150.965 91.577 151.047 91.5853C151.091 91.4396 151.13 91.2928 151.169 91.1433C149.32 90.988 147.979 90.2477 147.122 89.58C146.279 88.9229 145.762 88.2372 145.537 87.9016C148.144 86.7502 150.345 86.1066 151.657 85.7807C151.632 85.6287 151.598 85.483 151.557 85.3425C150.229 85.6723 148.011 86.321 145.385 87.477C145.36 87.3012 145.33 87.0502 145.307 86.7443C145.246 85.9699 145.227 84.846 145.446 83.7225C145.525 83.3196 145.635 82.9167 145.784 82.5293C145.618 82.5435 145.449 82.5638 145.277 82.5852C145.065 83.1946 144.941 83.8292 144.874 84.4386C144.756 85.5138 144.817 86.5088 144.887 87.1427C144.912 87.3679 144.938 87.547 144.956 87.6682C144.25 87.989 143.516 88.3456 142.766 88.7417C142.764 88.7424 142.764 88.7437 142.762 88.7437C142.312 88.9806 141.856 89.2326 141.396 89.4995C141.389 89.5047 141.381 89.5085 141.374 89.513C141.371 89.5137 141.371 89.5144 141.369 89.5151C140.993 89.7333 140.623 89.9563 140.257 90.1856C140.245 90.1393 140.231 90.0875 140.216 90.0302C140.123 89.6811 139.993 89.1353 139.869 88.443C139.683 87.3844 139.515 85.9826 139.533 84.4141C139.382 84.4866 139.233 84.5615 139.082 84.6385C139.081 86.2181 139.262 87.6209 139.454 88.6688C139.576 89.3379 139.705 89.8621 139.794 90.1956C139.819 90.2919 139.842 90.3727 139.86 90.4362C138.117 91.5539 136.488 92.7944 134.985 94.1461C134.84 93.6721 134.576 92.7136 134.369 91.4696C134.342 91.3073 134.316 91.1399 134.292 90.9686C134.161 90.0595 134.069 89.0272 134.074 87.9355C133.922 88.0587 133.773 88.1858 133.623 88.3139C133.637 89.3058 133.725 90.218 133.833 90.9835C133.844 91.0643 133.856 91.1433 133.868 91.2221C133.883 91.3229 133.899 91.4209 133.916 91.5179C134.163 93.0185 134.494 94.1047 134.616 94.4814C133.703 95.3238 132.837 96.2105 132.02 97.1378C131.442 97.7949 130.888 98.4716 130.359 99.1697C130.211 98.8835 129.988 98.3128 129.869 97.3357C129.799 96.7577 129.759 95.9864 129.808 94.9858C129.846 94.2076 129.938 93.2902 130.109 92.2168C130.13 92.0911 130.152 91.9609 130.174 91.8304C130.034 92.0003 129.897 92.1729 129.761 92.3469C129.708 92.4143 129.654 92.4823 129.602 92.551C129.425 93.7428 129.348 94.7489 129.337 95.5952C129.301 98.0811 129.827 99.1898 130.066 99.563C128.969 101.055 127.987 102.635 127.122 104.297C126.875 103.925 126.436 102.947 126.321 100.604C126.286 99.9128 126.28 99.1024 126.316 98.1529C126.146 98.5493 125.987 98.9529 125.839 99.3627C125.838 100.128 125.866 100.825 125.925 101.455C125.983 102.087 126.072 102.649 126.191 103.142C126.421 104.092 126.715 104.541 126.896 104.741C126.109 106.306 125.424 107.943 124.844 109.646L124.844 109.648Z" fill="white"/>
<g style="mix-blend-mode:multiply" opacity="0.18">
<path d="M124.988 102.233L125.186 102.274L125.542 102.348C125.542 102.348 125.669 102.014 125.921 101.455C126.029 101.212 126.161 100.925 126.317 100.605C126.951 99.296 127.967 97.4219 129.333 95.5962C129.416 95.4847 129.501 95.3735 129.587 95.262C129.659 95.1701 129.731 95.0779 129.804 94.9868C129.882 94.8873 129.963 94.7886 130.044 94.6909C131.135 93.3713 132.413 92.1332 133.864 91.2227C134.004 91.1343 134.145 91.0501 134.288 90.9693C134.312 90.9558 134.335 90.9423 134.358 90.9296C134.849 90.6537 135.359 90.4168 135.887 90.2276C135.897 90.2238 135.907 90.22 135.917 90.2166C137.079 89.8047 138.278 89.2947 139.45 88.6698C139.59 88.5966 139.728 88.521 139.866 88.444C140.647 88.0065 141.414 87.5176 142.146 86.9704C142.421 86.7663 142.689 86.554 142.952 86.3334C143.636 85.7599 144.281 85.1298 144.87 84.4389C145.068 84.2072 145.259 83.9687 145.443 83.7228C145.737 83.332 146.012 82.9228 146.267 82.4961C146.108 82.5037 145.946 82.5147 145.781 82.5296C145.614 82.5437 145.446 82.5641 145.274 82.5855C143.522 82.8158 141.548 83.4363 139.53 84.4151C139.379 84.4876 139.23 84.5625 139.079 84.6395C137.396 85.4971 135.692 86.602 134.071 87.9364C133.919 88.0597 133.769 88.1868 133.62 88.3149C132.403 89.3593 131.237 90.5339 130.17 91.8317C130.03 92.0016 129.893 92.1742 129.757 92.3483C129.704 92.4156 129.65 92.4836 129.598 92.5523C128.308 94.2331 127.183 96.1051 126.312 98.1543C126.142 98.5506 125.983 98.9542 125.836 99.3641C125.499 100.288 125.213 101.245 124.989 102.234L124.988 102.233Z" fill="#003889"/>
</g>
<path d="M123.751 101.91L124.234 101.976L124.734 102.045L125.093 102.095C125.093 102.095 126.253 98.3138 128.644 94.7485C128.779 94.5476 128.918 94.3466 129.061 94.1471C130.17 92.601 131.516 91.1391 133.107 90.0995C133.578 89.7909 134.071 89.5195 134.585 89.2944C134.595 89.2906 134.605 89.2857 134.614 89.2816C136.636 88.4032 138.757 87.2062 140.607 85.6162C140.866 85.3942 141.12 85.164 141.367 84.9261C142.849 83.4994 144.106 81.7893 144.918 79.7516C144.988 79.5772 145.054 79.4008 145.117 79.2219C145.658 77.6831 145.95 75.9654 145.906 74.0512C145.902 73.8834 145.896 73.7139 145.886 73.5426C145.808 72.0611 145.531 70.4656 145.019 68.7469C144.905 68.363 144.765 68.0149 144.601 67.7014C144.522 67.5499 144.438 67.4062 144.348 67.2712C142.956 65.1596 140.302 64.9676 137.291 66.233C137.119 66.3041 136.946 66.3815 136.773 66.4626C134.995 67.2961 133.113 68.615 131.306 70.3299C131.172 70.4567 131.038 70.5861 130.904 70.718C129.411 72.192 127.979 73.9342 126.71 75.8918C126.592 76.0738 126.476 76.2582 126.361 76.4436C125.422 77.9579 124.584 79.5927 123.891 81.3256C123.764 81.6405 123.643 81.9585 123.527 82.2803C122.726 84.4938 122.165 86.8533 121.931 89.3154C121.885 89.7919 121.851 90.2722 121.832 90.7559C121.683 94.328 122.237 98.0897 123.751 101.909V101.91Z" fill="#C4D7F2"/>
<path d="M123.475 94.6391C122.892 93.6778 122.344 92.38 121.832 90.7572C121.851 90.2735 121.885 89.7933 121.931 89.3168C123.165 93.7759 124.349 95.1473 124.849 95.5492C125.205 93.4987 125.715 91.4958 126.375 89.5488C125.867 89.1266 124.369 87.48 123.527 82.2817C123.643 81.9599 123.764 81.6419 123.891 81.327C124.301 84.3059 124.915 86.1573 125.417 87.2569C125.872 88.252 126.3 88.7802 126.554 89.0344C126.878 88.1173 127.237 87.2138 127.629 86.3237C128.181 85.0686 128.801 83.8398 129.485 82.6397C129.199 82.2419 128.342 80.9945 127.48 79.2002C127.108 78.4264 126.709 77.4907 126.361 76.4449C126.476 76.2592 126.592 76.0751 126.71 75.8932C127.661 78.9412 129.193 81.336 129.761 82.1618C130.899 80.2249 132.207 78.365 133.677 76.5962C133.276 75.9954 131.871 73.7702 130.905 70.7194C131.038 70.5878 131.172 70.4584 131.306 70.3313C132.2 73.265 133.532 75.4599 134.013 76.1974C134.33 75.8231 134.656 75.4537 134.988 75.0887C136.051 73.92 137.117 72.8759 138.142 71.9534C137.81 71.2905 136.704 68.8947 136.773 66.464C136.947 66.3828 137.12 66.3055 137.291 66.2344C137.153 68.481 138.152 70.814 138.531 71.6067C140.922 69.5006 143.053 68.0681 144.349 67.2726C144.438 67.4076 144.523 67.5509 144.601 67.7028C143.321 68.489 141.208 69.9101 138.834 72.0045C139.185 72.2841 139.963 72.8369 141.076 73.2488C142.209 73.668 143.877 74.0001 145.886 73.544C145.896 73.7153 145.902 73.8848 145.906 74.0526C145.814 74.0726 145.723 74.0909 145.634 74.1078C143.67 74.4738 142.035 74.1365 140.902 73.718C139.652 73.254 138.804 72.629 138.457 72.3425C137.45 73.2498 136.403 74.2774 135.357 75.4261C135.021 75.7958 134.68 76.1836 134.337 76.5903C134.78 76.9753 136.092 77.9986 138.221 78.6909C139.837 79.216 142.157 79.6155 145.117 79.2233C145.055 79.4021 144.988 79.5786 144.918 79.7529C141.979 80.1006 139.664 79.689 138.037 79.156C135.838 78.4361 134.498 77.3968 134.015 76.9742C132.692 78.5783 131.344 80.4521 130.102 82.5996C130.484 82.9881 131.72 84.115 133.791 84.8194C135.494 85.3987 138.036 85.7716 141.368 84.9271C141.12 85.165 140.867 85.3953 140.607 85.6173C140.525 85.6338 140.443 85.6501 140.361 85.6653C139.765 85.7764 139.179 85.8524 138.601 85.8931C136.829 86.0181 135.147 85.8127 133.6 85.2827C131.585 84.5908 130.344 83.5391 129.844 83.0499C128.767 84.9678 127.776 87.0974 126.959 89.4394C127.098 89.5799 127.564 89.9082 128.926 89.9738C130.012 90.026 131.774 89.9065 134.586 89.295C134.071 89.5202 133.579 89.7915 133.108 90.1002C128.967 90.8339 127.386 90.3633 126.787 89.9441C126.209 91.675 125.728 93.5187 125.377 95.4777C126.103 95.0997 127.566 94.4157 129.061 94.1478C128.918 94.3473 128.78 94.5479 128.644 94.7492C127.109 95.1255 125.668 95.8824 125.268 96.103C124.962 97.9809 124.774 99.9617 124.734 102.046L124.234 101.977C124.276 99.9796 124.451 98.0168 124.758 96.0951C124.5 95.9442 124.038 95.5678 123.475 94.6394L123.475 94.6391Z" fill="white"/>
<path d="M72.7912 54.5273L76.4772 51.2C75.4647 48.7551 74.4507 46.307 73.4354 43.8558L68.4757 44.1089C66.7083 42.3415 65.8154 41.4486 64.0473 39.6812L64.3014 34.7215C61.8565 33.7089 59.4084 32.695 56.9573 31.6797L53.6293 35.3657H47.3672L44.0391 31.6797C41.5949 32.6922 39.1472 33.7062 36.696 34.7215L36.9491 39.6812C35.1817 41.4486 34.2888 42.3415 32.5214 44.1089L27.5617 43.8558C26.5489 46.3008 25.5348 48.7488 24.5195 51.2L28.2056 54.5273V60.7894L24.5195 64.1174C25.5321 66.5624 26.546 69.0104 27.5613 71.4616L32.5211 71.2085C34.2885 72.9759 35.1813 73.8688 36.9488 75.6362L36.6957 80.5959C39.1406 81.6085 41.5883 82.6224 44.0388 83.6377L47.3668 79.9517H53.6289L56.9569 83.6377C59.4019 82.6252 61.8499 81.6113 64.3011 80.5959L64.047 75.6362C65.8151 73.8688 66.7079 72.9759 68.4753 71.2085L73.4351 71.4616C74.4476 69.0166 75.4616 66.5686 76.4769 64.1174L72.7908 60.7894V54.5273H72.7912ZM50.498 67.9292C44.826 67.9292 40.2274 63.3313 40.2274 57.6585C40.2274 51.9858 44.826 47.3886 50.498 47.3886C56.1701 47.3886 60.7687 51.9865 60.7687 57.6585C60.7687 63.3306 56.1701 67.9292 50.498 67.9292Z" fill="#C4D7F2"/>
<path d="M105.004 56.3465L97.8786 62.7919C97.3234 63.2943 96.6774 63.5722 96.067 63.5722H64.2697C63.3865 63.5722 62.4906 64.4478 62.2686 65.5278L51.6016 117.439H114.239L123.208 73.7945L125.308 63.5718L126.496 57.7935C126.718 56.7135 126.181 55.8379 125.298 55.8379H106.183C105.786 55.8379 105.365 56.0192 105.004 56.3461V56.3465Z" fill="#1A71D8"/>
<g style="mix-blend-mode:multiply" opacity="0.2">
<path d="M115.905 36.6035H60.5367C59.9684 36.6035 59.5078 37.0641 59.5078 37.6324V117.439H117.42V38.1189C117.42 37.282 116.742 36.6035 115.905 36.6035Z" fill="#003889"/>
</g>
<path d="M114.241 38.1189V117.439H56.3281V37.6324C56.3281 37.0641 56.7887 36.6035 57.357 36.6035H112.725C113.562 36.6035 114.241 37.282 114.241 38.1189Z" fill="white"/>
<path d="M79.7414 60.8513C83.8057 56.787 83.8057 50.1974 79.7414 46.1331C75.6771 42.0688 69.0875 42.0688 65.0232 46.1331C60.9588 50.1974 60.9588 56.787 65.0232 60.8513C69.0875 64.9156 75.6771 64.9156 79.7414 60.8513Z" fill="#ECF3FE"/>
<path d="M78.0729 59.3151C78.0746 59.5927 78.0598 59.8644 78.0287 60.132C76.4905 61.3501 74.5512 62.0831 72.4378 62.0966C70.3244 62.11 68.3744 61.4019 66.8207 60.2035C66.7858 59.9366 66.7678 59.6649 66.7658 59.3873C66.744 56.0009 69.2572 53.2408 72.3808 53.2208C75.5031 53.2008 78.0511 55.9287 78.0729 59.3148V59.3151Z" fill="#ACC6E5"/>
<g style="mix-blend-mode:multiply" opacity="0.2">
<path d="M72.4019 55.9619C73.7041 55.9535 74.7472 54.0096 74.7318 51.6202C74.7163 49.2308 73.6482 47.3006 72.3461 47.309C71.0439 47.3174 70.0008 49.2612 70.0162 51.6507C70.0317 54.0401 71.0998 55.9703 72.4019 55.9619Z" fill="#003889"/>
</g>
<path d="M72.3931 54.5762C74.2692 54.5641 75.7779 52.6583 75.7628 50.3196C75.7477 47.9809 74.2145 46.0949 72.3384 46.107C70.4623 46.1191 68.9536 48.0248 68.9688 50.3635C68.9839 52.7022 70.517 54.5883 72.3931 54.5762Z" fill="#ACC6E5"/>
<path d="M106.932 44.6406H88.3809C87.4629 44.6406 86.7188 45.3848 86.7188 46.3027C86.7188 47.2207 87.4629 47.9648 88.3809 47.9648H106.932C107.85 47.9648 108.594 47.2207 108.594 46.3027C108.594 45.3848 107.85 44.6406 106.932 44.6406Z" fill="#33DA82"/>
<path d="M106.932 51.8281H88.3809C87.4629 51.8281 86.7188 52.5723 86.7188 53.4902C86.7188 54.4082 87.4629 55.1523 88.3809 55.1523H106.932C107.85 55.1523 108.594 54.4082 108.594 53.4902C108.594 52.5723 107.85 51.8281 106.932 51.8281Z" fill="#ECF3FE"/>
<path d="M106.932 59.0176H88.3809C87.4629 59.0176 86.7188 59.7617 86.7188 60.6797C86.7188 61.5976 87.4629 62.3418 88.3809 62.3418H106.932C107.85 62.3418 108.594 61.5976 108.594 60.6797C108.594 59.7617 107.85 59.0176 106.932 59.0176Z" fill="#ECF3FE"/>
<path d="M106.933 69.9121H69.998C69.0801 69.9121 68.3359 70.6563 68.3359 71.5742C68.3359 72.4922 69.0801 73.2363 69.998 73.2363H106.933C107.85 73.2363 108.595 72.4922 108.595 71.5742C108.595 70.6563 107.85 69.9121 106.933 69.9121Z" fill="#ECF3FE"/>
<path d="M106.934 77.0215H63.6387C62.7207 77.0215 61.9766 77.7656 61.9766 78.6836C61.9766 79.6016 62.7207 80.3457 63.6387 80.3457H106.934C107.852 80.3457 108.596 79.6016 108.596 78.6836C108.596 77.7656 107.852 77.0215 106.934 77.0215Z" fill="#ECF3FE"/>
<path d="M106.934 84.1309H63.6387C62.7207 84.1309 61.9766 84.875 61.9766 85.793C61.9766 86.7109 62.7207 87.4551 63.6387 87.4551H106.934C107.852 87.4551 108.596 86.7109 108.596 85.793C108.596 84.875 107.852 84.1309 106.934 84.1309Z" fill="#ECF3FE"/>
<path d="M106.934 91.2402H63.6387C62.7207 91.2402 61.9766 91.9844 61.9766 92.9023C61.9766 93.8203 62.7207 94.5645 63.6387 94.5645H106.934C107.852 94.5645 108.596 93.8203 108.596 92.9023C108.596 91.9844 107.852 91.2402 106.934 91.2402Z" fill="#ECF3FE"/>
<path d="M106.934 98.3496H63.6387C62.7207 98.3496 61.9766 99.0938 61.9766 100.012C61.9766 100.93 62.7207 101.674 63.6387 101.674H106.934C107.852 101.674 108.596 100.93 108.596 100.012C108.596 99.0938 107.852 98.3496 106.934 98.3496Z" fill="#ECF3FE"/>
<path d="M106.934 105.459H63.6387C62.7207 105.459 61.9766 106.203 61.9766 107.121C61.9766 108.039 62.7207 108.783 63.6387 108.783H106.934C107.852 108.783 108.596 108.039 108.596 107.121C108.596 106.203 107.852 105.459 106.934 105.459Z" fill="#ECF3FE"/>
<g style="mix-blend-mode:multiply" opacity="0.2">
<path d="M114.241 105.22V117.036H56.3281L57.5652 75.1932H75.96C76.578 75.1932 77.1062 74.9632 77.4425 74.5475L78.0802 73.7582L81.7539 69.2139C81.9738 68.9435 82.317 68.793 82.7196 68.793H102.064C102.958 68.793 103.894 69.5184 104.156 70.4116L105.134 73.7582L105.553 75.1932L106.105 77.0821L107.211 80.8683L108.024 83.6529L108.182 84.1925L109.48 88.6175V88.6185L109.825 89.7934L114.242 105.22H114.241Z" fill="#003889"/>
</g>
<path d="M114.24 117.44H50.8526L38.2311 74.221C38.0311 73.5364 38.5446 72.8517 39.2579 72.8517L71.6273 72.8634C72.2453 72.8634 72.7735 72.6335 73.1098 72.2174L77.4212 66.8838C77.6411 66.6124 77.9843 66.4629 78.3869 66.4629H97.7318C98.6253 66.4629 99.561 67.1873 99.8231 68.0815L101.22 72.8634L103.691 81.3221L114.241 117.44H114.24Z" fill="#3B82F4"/>
<g style="mix-blend-mode:multiply" opacity="0.22">
<path d="M72.4599 116.926L72.3242 116.002H72.6374L70.8489 90.374L71.2218 89.6759L70.7533 89.0029L71.6026 90.2231C71.6026 90.2231 74.0229 85.8696 74.2128 82.8247C74.402 79.7798 72.5928 74.7151 72.3325 73.7121C72.0725 72.7098 68.1886 71.5159 68.1834 71.5142L67.9642 70.6817L67.9083 70.7297C67.8599 70.4518 67.8061 70.14 67.7567 69.8493C67.7305 69.696 67.707 69.5586 67.6887 69.4481C67.9065 69.1436 68.0906 68.7803 68.2287 68.376C68.4666 68.2966 68.9044 68.0515 69.0525 67.3016C69.2054 66.5268 68.7531 66.6131 68.507 66.7112C68.508 66.6034 68.5052 66.4992 68.4994 66.398C68.7248 66.1615 68.904 65.2155 68.835 65.0497C68.7649 64.8813 69.5932 63.9497 69.1284 63.5534C68.6637 63.157 65.6537 62.9616 64.4563 64.0419C63.4778 64.9244 63.9619 65.8673 64.071 66.1505C64.0813 66.1774 64.1024 66.1947 64.1262 66.2012C64.0924 66.3621 64.0672 66.5327 64.0499 66.7115C63.8138 66.6138 63.3708 66.5271 63.4419 67.3019C63.5106 68.0518 63.9225 68.297 64.1521 68.3764C64.2605 68.8349 64.4335 69.2406 64.6562 69.5679L64.3693 70.738L64.3631 70.7639L64.2761 70.6817L63.9688 71.5142L63.9926 71.5825C63.4388 71.5946 59.8939 71.8159 58.4953 75.4837C56.9761 79.4677 57.9176 93.4099 57.9176 93.4099H58.1638C58.1807 93.4765 58.1997 93.5601 58.2153 93.6564C58.2484 93.857 58.2671 94.1115 58.227 94.3718C58.1386 94.9498 58.0043 95.2091 58.216 95.5019C58.3741 95.719 59.0146 96.4006 59.4265 96.6357L59.0857 116.003H59.4579L59.3111 116.922L56.375 119.083L56.4016 119.776C56.4016 119.776 61.6686 119.36 61.6648 119.258C61.6621 119.19 61.8682 117.282 62.0073 116.003H62.3937L65.1254 90.9647L69.2728 116.003H69.7516C69.8708 117.255 70.0738 119.404 70.07 119.477C70.0645 119.58 75.3291 119.518 75.3291 119.518L75.366 118.822L72.4596 116.926L72.4599 116.926ZM71.3578 82.4619C71.48 83.3796 70.6383 85.9301 70.6383 85.9301L71.0074 82.9048L70.5958 79.1114C70.5958 79.1114 71.2356 81.5441 71.3578 82.4619ZM65.1244 90.9703L65.1251 90.9623V90.9637L65.1244 90.9703Z" fill="#003889"/>
</g>
<g style="mix-blend-mode:multiply" opacity="0.18">
<path d="M124.38 119.45C133.44 119.45 140.784 112.106 140.784 103.046C140.784 93.9867 133.44 86.6426 124.38 86.6426C115.321 86.6426 107.977 93.9867 107.977 103.046C107.977 112.106 115.321 119.45 124.38 119.45Z" fill="#003889"/>
</g>
<path d="M72.0092 115.25L72.3445 116.926L75.3511 118.821V119.517C75.3511 119.517 70.0899 119.579 70.0899 119.476C70.0899 119.373 69.457 115.121 69.457 115.121L72.0092 115.25Z" fill="#072542"/>
<path d="M59.3788 115.223L59.1972 116.922L56.375 119.083L56.4382 119.776C56.4382 119.776 61.6835 119.36 61.6741 119.258C61.6648 119.155 61.9089 114.863 61.9089 114.863L59.3788 115.223V115.223Z" fill="#072542"/>
<path d="M58.5582 96.6832C58.3413 96.9238 57.1985 95.7938 56.9703 95.5017C56.7431 95.2089 56.8636 94.9492 56.9216 94.3716C56.9482 94.1113 56.9157 93.8568 56.8722 93.6562C56.8194 93.4104 56.75 93.2447 56.75 93.2447L58.4104 93.1473L58.5513 93.1387C58.5513 93.1387 58.7757 96.4415 58.5582 96.6828V96.6832Z" fill="#FDC8AA"/>
<path d="M57.5833 95.3806C57.5626 95.3616 57.5561 95.3309 57.5695 95.306C57.6099 95.2308 57.699 95.0857 57.7681 95.1179C57.8606 95.1607 57.9566 95.7083 57.8889 95.6941C57.8254 95.6806 57.7618 95.5449 57.583 95.3809L57.5833 95.3806Z" fill="#EFA37D"/>
<path d="M58.4104 93.1468L58.3617 93.944L56.8722 93.6554C56.8194 93.4096 56.75 93.2438 56.75 93.2438L58.4104 93.1465V93.1468Z" fill="#EFA37D"/>
<path d="M72.4761 116.002H69.1119L63.6411 90.9622L62.2328 116.002H58.9248L58.1283 93.4094V86.7085L58.043 86.0963L68.6989 85.8691V86.7085L68.8722 87.2454L68.9976 87.6328L69.154 88.9099L72.4761 116.002Z" fill="#1F3A6F"/>
<path d="M69.1507 88.9106H68.2544L58.125 88.5291V87.7284L68.869 87.2461L68.9943 87.6335L69.1507 88.9106Z" fill="#15315E"/>
<path d="M68.965 87.6996L58.0898 88.0959V86.709H68.965V87.6996Z" fill="white"/>
<path d="M65.545 71.5823C65.545 71.5823 65.3289 74.0168 63.3785 73.9878C61.4281 73.9588 61.6142 71.7708 61.6142 71.7708L61.813 70.7388L62.1134 69.1758H65.0064C65.0064 69.1903 65.0685 69.4727 65.1531 69.8501C65.3289 70.638 65.545 71.5819 65.545 71.5819V71.5823Z" fill="#FDC8AA"/>
<path d="M69.9338 73.7116C69.6206 72.7086 65.6684 71.5137 65.6684 71.5137L63.5105 72.5115L61.5573 71.581C61.5573 71.581 57.499 71.4992 56.1905 75.4828C54.8819 79.4669 56.5603 93.4091 56.5603 93.4091H58.1257V86.7081H68.696L68.2872 87.834L70.0764 90.2226C70.0764 90.2226 72.2668 85.8691 72.2958 82.8242C72.3241 79.7793 70.247 74.7146 69.9338 73.7116ZM68.8856 85.9296L68.4826 79.1109C68.4826 79.1109 69.2509 81.5436 69.4218 82.4614C69.5923 83.3791 68.8856 85.9296 68.8856 85.9296Z" fill="#F4B545"/>
<path d="M65.1526 69.8501C64.7086 70.5082 63.5043 71.8972 61.8125 70.7388L62.1129 69.1758H65.0059C65.0059 69.1903 65.068 69.4727 65.1526 69.8501Z" fill="#EFA37D"/>
<path d="M63.6367 72.2716L65.4034 70.6816L65.6665 71.5137L64.7785 73.712L63.6367 72.2716Z" fill="white"/>
<path d="M63.4829 72.2716L61.7166 70.6816L61.4531 71.5137L62.3415 73.712L63.4829 72.2716Z" fill="white"/>
<path d="M63.5428 72.043H63.943L64.2437 72.6551L63.8522 72.8913L64.7913 82.8253L63.6388 84.2126L62.2305 83.0601L63.3402 72.8947L62.892 72.7546L63.1195 72.0803L63.5428 72.043Z" fill="#1F3A6F"/>
<path d="M69.6696 89.676L69.0429 90.9776L68.2578 88.9098L68.4857 88.0957L69.6696 89.676Z" fill="#FDC8AA"/>
<path d="M58.135 78.9414C58.5379 81.5306 59.1491 84.3928 59.8569 86.7095H58.125L58.135 78.9414Z" fill="#E59D29"/>
<path d="M65.7453 66.9413C65.7453 68.8678 64.7441 70.4298 63.5094 70.4298C62.2747 70.4298 61.2734 68.8678 61.2734 66.9413C61.2734 65.0147 62.2747 64.041 63.5094 64.041C64.7441 64.041 65.7453 65.0147 65.7453 66.9413Z" fill="#FDC8AA"/>
<path d="M61.4009 66.1881C61.3564 66.2205 61.2953 66.2026 61.2725 66.1505C61.1485 65.8673 60.6144 64.9248 61.5463 64.0419C62.687 62.9616 65.7071 63.157 66.1929 63.5534C66.6783 63.9497 65.8994 64.8813 65.9785 65.0497C66.0575 65.2182 65.9236 66.1915 65.705 66.4097C65.705 66.4097 64.0294 66.5285 63.2954 65.8846C62.6725 65.338 61.6861 65.9806 61.4013 66.1881H61.4009Z" fill="#1F3A6F"/>
<path d="M61.4268 66.7814C61.4268 66.7814 60.5536 66.2535 60.7052 67.3014C60.8567 68.3496 61.6288 68.4135 61.6288 68.4135L61.4268 66.7814Z" fill="#FDC8AA"/>
<path d="M65.5926 66.7814C65.5926 66.7814 66.4658 66.2535 66.3142 67.3014C66.1626 68.3496 65.3906 68.4135 65.3906 68.4135L65.5926 66.7814Z" fill="#FDC8AA"/>
<path d="M65.7188 67.2564C65.7188 67.2564 65.8893 67.0244 66.0095 67.1283C66.13 67.2323 65.9518 67.8123 65.8641 67.8724C65.7764 67.9325 66.0326 67.3283 65.9173 67.2882C65.802 67.2482 65.7188 67.2561 65.7188 67.2561V67.2564Z" fill="#EFA37D"/>
<path d="M61.3234 67.2564C61.3234 67.2564 61.1529 67.0244 61.0327 67.1283C60.9122 67.2323 61.0904 67.8123 61.1781 67.8724C61.2658 67.9325 61.0096 67.3283 61.1249 67.2882C61.2402 67.2482 61.3234 67.2561 61.3234 67.2561V67.2564Z" fill="#EFA37D"/>
<path d="M69.0961 82.9049L68.8872 85.9301L68.6976 86.7087H67.6953L68.1718 78.0391L68.4842 79.1115L69.0961 82.9049Z" fill="#E59D29"/>
<path d="M68.2578 88.9102L68.8917 91.3136L69.2187 90.978L69.1334 90.796L69.0429 90.978L68.2578 88.9102Z" fill="#072542"/>
<path d="M63.6368 90.9629L60.9766 116.003H62.2285L63.6368 90.9629Z" fill="#15315E"/>
<path d="M64.4281 88.1101L63.0781 87.7904L63.1202 87.6126L64.2455 87.8791V86.7998H63.2839V86.6172H64.4281V88.1101Z" fill="#15315E"/>
<path d="M64.6837 87.2019L63.8086 87.2305L63.8142 87.4009L64.6893 87.3724L64.6837 87.2019Z" fill="#15315E"/>
<path d="M115.186 107.699C114.725 108.55 113.942 109.225 112.948 109.521L104.612 111.987L80.5093 119.115C78.5216 119.706 76.4113 118.563 75.8199 116.575C75.2288 114.587 76.3716 112.477 78.3607 111.885L103.493 104.451L110.799 102.291C112.788 101.699 114.898 102.843 115.489 104.831C115.784 105.826 115.647 106.851 115.187 107.7L115.186 107.699Z" fill="#F4B545"/>
<path d="M115.186 107.699C114.725 108.55 113.942 109.225 112.948 109.521L104.611 111.987C104.425 111.524 104.259 111.048 104.114 110.56C103.507 108.518 103.316 106.451 103.493 104.451L110.798 102.291C112.787 101.699 114.897 102.843 115.489 104.831C115.784 105.826 115.647 106.851 115.186 107.7V107.699Z" fill="#E59D29"/>
<path d="M121.497 119.45C130.557 119.45 137.901 112.106 137.901 103.046C137.901 93.9867 130.557 86.6426 121.497 86.6426C112.438 86.6426 105.094 93.9867 105.094 103.046C105.094 112.106 112.438 119.45 121.497 119.45Z" fill="white"/>
<path d="M129.716 111.268C134.258 106.727 134.258 99.3633 129.716 94.8218C125.175 90.2803 117.812 90.2803 113.27 94.8218C108.728 99.3633 108.728 106.727 113.27 111.268C117.812 115.81 125.175 115.81 129.716 111.268Z" fill="#6EA9FF"/>
<g style="mix-blend-mode:multiply" opacity="0.22">
<path d="M131.592 85.2738C131.996 83.7981 131.705 82.6325 131.149 81.6498C131.149 81.6474 131.15 81.645 131.151 81.6423C131.037 81.442 130.912 81.2497 130.779 81.0632L131.668 78.5863C131.815 78.2248 131.777 77.8326 131.565 77.5419L126.605 70.5675C126.605 70.5675 126.598 70.5627 126.589 70.5558C126.577 70.5395 126.566 70.5233 126.554 70.5078C125.139 68.6516 122.856 69.2016 122.729 69.1529L122.005 67.6113L121.875 67.3344C121.956 67.1898 122.03 67.0365 122.095 66.8763C123.517 67.6175 123.904 66.1105 123.804 64.6621C123.746 63.8355 123.529 63.0283 123.256 62.6702C122.495 61.6748 121.489 62.1699 121.155 62.1168C120.82 62.0636 120.595 61.2256 118.907 60.7996C117.22 60.3735 115.949 62.4147 116.678 63.7792C117.001 64.3841 117.386 64.6548 117.884 64.7453C117.851 64.8955 117.825 65.0495 117.806 65.2062C117.789 65.3509 117.779 65.498 117.776 65.6468C117.739 67.3645 118.655 68.6931 119.854 68.721L119.857 69.4937L119.859 69.8935C119.859 69.8935 119.857 69.8942 119.856 69.8946C119.821 69.9074 119.779 69.9257 119.73 69.9505C118.824 70.3531 113.452 72.7437 112.188 73.3065C112.024 73.3797 111.841 73.3617 111.712 73.2599L106.842 69.425L106.62 69.7009C106.523 69.628 106.468 69.5869 106.468 69.5869C106.468 69.5869 106.15 67.2792 105.789 67.7377C105.427 68.1962 105.663 69.0259 105.22 68.4306C104.776 67.8354 103.693 66.7613 103.552 67.9152C103.411 69.069 104.116 69.8652 105.424 70.5672C105.52 70.6186 105.631 70.6908 105.753 70.7771L105.42 71.1911L111.068 75.8946C111.219 76.0203 111.429 76.061 111.633 76.0044L117.887 74.2784C117.911 74.6689 117.96 75.095 118.045 75.5638C118.622 78.7693 119.918 80.3765 120.158 81.6768C120.01 82.4581 119.822 83.0761 119.822 83.0761C119.822 83.0761 119.865 83.0813 119.942 83.0906L107.98 86.4791L99.7202 94.7517L99.8162 94.8601L99.3255 95.235L99.2658 95.1304C98.856 95.2326 98.122 95.3051 97.4577 94.7972C96.4688 94.0418 95.9178 93.6606 95.2562 94.0646C94.6986 94.405 97.5053 97.5031 98.4006 98.4674C98.5456 98.6235 98.8052 98.6135 98.971 98.4453L100.356 97.0411L100.289 96.9234L101.071 96.2774L101.168 96.3868C101.168 96.3868 105.789 93.7708 109.188 89.988L111.073 89.7477L111.297 101.46H111.564L111.5 102.098L111.376 102.086C111.162 102.459 110.693 103.066 109.821 103.297C108.523 103.641 107.831 103.855 107.673 104.59C107.539 105.209 111.967 104.762 113.361 104.606C113.586 104.581 113.764 104.375 113.752 104.154L113.648 102.305L113.508 102.292L113.556 101.461H113.803L114.854 91.385C114.854 91.385 125.215 88.6584 126.6 84.5235C126.885 84.4866 127.175 84.47 127.464 84.4696L127.206 85.9498L127.339 85.9964C127.246 86.2381 127.19 86.3817 127.19 86.3817C127.19 86.3817 124.988 87.7058 125.525 87.8567C126.063 88.0076 126.826 87.413 126.343 88.1077C125.86 88.8024 125.055 90.3316 126.227 89.9621C127.399 89.5927 128.019 88.5552 128.403 86.9697C128.438 86.824 128.499 86.6414 128.579 86.4321L128.823 86.5181L129.481 84.6854C130.605 84.9098 131.462 85.2344 131.581 85.281C131.587 85.2852 131.591 85.2872 131.591 85.2872C131.591 85.2865 131.591 85.2855 131.591 85.2848C131.594 85.2858 131.597 85.2872 131.597 85.2872L131.594 85.2748L131.592 85.2738Z" fill="#003889"/>
</g>
<path d="M100.789 95.7026L99.2201 97.1227L98.1328 95.3743L99.4061 94.3164L100.789 95.7026Z" fill="white"/>
<path d="M94.1137 94.0621C94.7331 93.6582 95.3242 94.0393 96.3914 94.7948C97.1085 95.3023 97.8349 95.2298 98.2341 95.128L99.5236 97.0387L98.2848 98.4429C98.1364 98.611 97.8777 98.621 97.7165 98.4653C96.7208 97.501 93.5909 94.4029 94.113 94.0625L94.1137 94.0621Z" fill="#15315E"/>
<path d="M113.137 100.473L113.236 102.587L111.195 102.315L111.188 100.659L113.137 100.473Z" fill="white"/>
<path d="M107.625 104.588C107.707 103.853 108.377 103.639 109.639 103.295C110.486 103.064 110.892 102.457 111.067 102.084L113.362 102.303L113.659 104.151C113.695 104.373 113.538 104.579 113.315 104.604C111.938 104.76 107.557 105.207 107.626 104.588L107.625 104.588Z" fill="#15315E"/>
<path d="M103.486 70.0797C103.056 69.7838 102.774 69.5863 102.774 69.5863C102.774 69.5863 102.215 67.2785 101.902 67.737C101.589 68.1955 101.911 69.0252 101.405 68.43C100.9 67.8347 99.7047 66.7603 99.684 67.9145C99.6633 69.0687 100.451 69.8646 101.833 70.5665C102.133 70.7194 102.577 71.0416 103.103 71.4469L103.486 70.0797Z" fill="#FDC8AA"/>
<path d="M125.487 85.5174C125.343 86.0363 125.246 86.3788 125.246 86.3788C125.246 86.3788 123.181 87.7029 123.735 87.8538C124.288 88.0047 124.99 87.4101 124.579 88.1048C124.168 88.7995 123.523 90.3287 124.656 89.9592C125.79 89.5898 126.301 88.5523 126.52 86.9668C126.568 86.6215 126.733 86.0798 126.951 85.4297L125.487 85.5174H125.487Z" fill="#FDC8AA"/>
<path d="M129.538 85.2838C129.538 85.2838 126.074 83.958 123.688 84.6827L124.059 80.6172L129.061 84.064L129.538 85.2838Z" fill="#36588E"/>
<path d="M117.824 83.0404L106.046 86.4782L98.6484 94.7508L100.266 96.3859C100.266 96.3859 104.614 93.7699 107.619 89.9871L112.816 89.3156C112.816 89.3156 121.44 88.4003 121.795 82.8125L117.824 83.0407V83.0404Z" fill="#15315E"/>
<path d="M124.536 84.0181C124.338 88.4344 113.434 91.384 113.434 91.384V101.46H110.928L109.391 88.9975L117.953 82.9523L124.285 82.7227C124.303 82.7634 124.319 82.8038 124.335 82.8442C124.491 83.2457 124.553 83.6376 124.536 84.0181Z" fill="#1F3A6F"/>
<path d="M124.532 84.018C123.302 84.7848 118.605 83.197 118.605 83.197L124.331 82.8438C124.487 83.2453 124.549 83.6372 124.532 84.0177V84.018Z" fill="#072542"/>
<path d="M116.198 69.8924C116.095 69.9397 110.189 72.6959 108.883 73.3053C108.726 73.3785 108.542 73.3605 108.402 73.2587L103.132 69.4238L101.895 71.1895L108.033 75.8931C108.197 76.0188 108.41 76.0595 108.609 76.0032L115.883 73.9365L116.199 69.8924H116.198Z" fill="#1F3A6F"/>
<path d="M115.54 70.4883C115.54 70.4883 113.807 71.4606 114.974 75.5613C116.141 79.6623 118.209 81.147 117.749 82.7204L121.32 82.2076L115.54 70.4883H115.54Z" fill="#15315E"/>
<path d="M124.689 81.8962V81.8969C124.681 82.18 124.672 82.4352 124.663 82.6537C124.643 83.1571 124.624 83.464 124.624 83.464C123.669 83.8173 117.533 83.0749 117.533 83.0749C117.533 83.0749 117.872 81.3779 117.73 80.0521C117.589 78.7263 115.074 75.1162 115.074 72.584C115.074 70.0518 116.298 69.8619 116.298 69.8619C116.298 69.8619 118.097 69.208 118.999 69.1683C119.9 69.1286 123.386 72.593 124.2 74.7848C124.759 76.2925 124.75 79.8332 124.689 81.8965V81.8962Z" fill="white"/>
<path d="M124.691 81.8981V81.8988C124.683 82.1819 124.673 82.4371 124.665 82.6556C120.123 79.4022 118.955 76.542 118.938 76.4961L124.32 80.6628L124.691 81.8985L124.691 81.8981Z" fill="#ACC6E5"/>
<path d="M119.066 69.2821C119.066 69.2821 117.603 70.435 116.198 69.8915L116.154 69.4917L116.004 68.1155L117.826 67.1211L118.106 67.6096L119.066 69.2821Z" fill="#FDC8AA"/>
<path d="M129.534 85.2839C129.534 85.2839 128.754 84.7929 127.598 83.9974C127.398 83.859 127.185 83.7115 126.963 83.5558C126.633 83.3241 126.283 83.0742 125.919 82.8097C125.66 82.6215 125.394 82.4251 125.124 82.2227C121.81 79.7389 117.854 76.2952 117.947 74.0683C118.106 70.25 118.992 69.1513 118.992 69.1513C119.124 69.2 121.35 68.6503 122.958 70.5061C124.567 72.3623 125.53 78.2574 126.936 79.6364C127.252 79.9468 127.581 80.2706 127.894 80.6162C128.185 80.9366 128.464 81.276 128.71 81.6403C129.373 82.6271 129.789 83.7985 129.534 85.2839Z" fill="#1F3A6F"/>
<path d="M126.482 79.5994L125.923 82.8093C125.663 82.6211 125.398 82.4247 125.127 82.2224L124.891 79.1926L120.734 74.0147L121.232 73.3594L126.482 79.5994Z" fill="#072542"/>
<path d="M128.715 81.6412C128.423 82.9505 127.604 83.9984 127.604 83.9984C127.403 83.8599 127.19 83.7125 126.969 83.5568L127.9 80.6172C128.191 80.9376 128.47 81.277 128.715 81.6412Z" fill="#072542"/>
<path d="M120.152 70.1981C120.152 70.1981 118.587 72.0804 120.735 74.0164C122.499 75.606 124.728 77.8398 125.468 78.5873C125.628 78.7486 125.708 78.972 125.689 79.1981L125.216 85.9481L126.892 86.5164L128.912 78.5859C129.021 78.2245 128.942 77.8322 128.7 77.5415L123.013 70.5671C123.013 70.5671 121 69.1108 120.152 70.1981Z" fill="#1F3A6F"/>
<path d="M118.106 67.6096C117.493 69.1951 116.523 69.453 116.154 69.4917L116.004 68.1155L117.826 67.1211L118.106 67.6096H118.106Z" fill="#EFA37D"/>
<path d="M118.047 66.8388L118.299 65.0002L119.596 64.6602C119.853 66.132 119.612 67.666 118.047 66.8384V66.8388Z" fill="#1F3A6F"/>
<path d="M118.281 65.2671C118.429 67.0676 117.518 68.6117 116.245 68.717C114.972 68.8216 113.821 67.4474 113.672 65.6469C113.66 65.4977 113.655 65.3506 113.657 65.2063C113.676 63.6018 114.54 62.294 115.708 62.197C116.611 62.1231 117.453 62.7932 117.919 63.8318C118.11 64.2568 118.238 64.7436 118.281 65.2671Z" fill="#FDC8AA"/>
<path d="M117.919 63.8302L117.668 65.436C117.668 65.436 117.478 64.6744 115.443 65.1263C114.594 65.3148 114.028 65.2938 113.656 65.2043C113.676 63.5999 114.54 62.292 115.707 62.195C116.611 62.1211 117.452 62.7913 117.919 63.8298V63.8302Z" fill="#EFA37D"/>
<path d="M114.296 60.798C116.028 61.224 116.341 62.062 116.681 62.1152C117.021 62.1683 117.976 61.6732 118.84 62.6686C119.151 63.0267 119.452 63.8339 119.596 64.6605L118.298 65.0005L118.332 64.7561C118.332 64.7561 118.032 65.9728 117.705 65.9459C117.378 65.9186 118.121 64.2586 116.186 64.5334C114.251 64.8082 113.249 65.1414 112.378 63.7773C111.507 62.4131 112.564 60.3716 114.296 60.7976V60.798Z" fill="#1F3A6F"/>
<path d="M117.859 65.2919C117.914 65.0688 118.055 64.872 118.263 64.776C118.435 64.697 118.667 64.678 118.91 64.9169C119.397 65.3951 118.687 66.5203 118.089 66.2952L117.839 65.9703C117.797 65.6772 117.82 65.4517 117.859 65.2915V65.2919Z" fill="#FDC8AA"/>
<path d="M48.1811 111.129L47.9726 111.205L43.8346 112.715L40.9727 104.869L45.3192 103.283L46.634 106.886L48.1811 111.129Z" fill="#33DA82"/>
<path d="M48.1806 111.129L47.972 111.205C46.457 111.193 44.4766 111.109 44.4766 111.109L46.6334 106.887L48.1806 111.129Z" fill="#1DB562"/>
<path d="M51.9222 105.533L47.3711 104.697L45.862 112.911L50.4131 113.748L51.9222 105.533Z" fill="#33DA82"/>
<path d="M55.9419 109.648H48.4531V118.124H55.9419V109.648Z" fill="#36588E"/>
<path d="M48.4554 109.648H40.168V118.124H48.4554V109.648Z" fill="#ACC6E5"/>
<path d="M46.0996 113.083H37.8125L40.1665 109.648H48.4539L46.0996 113.083Z" fill="white"/>
<path d="M57.6766 113.083H50.1877L48.4531 109.648H55.9419L57.6766 113.083Z" fill="#ACC6E5"/>
<path d="M85.1287 26.0369C85.0807 26.0836 85.0586 26.1512 85.07 26.2172L85.5133 28.8225C85.5413 28.989 85.3669 29.1153 85.2181 29.0366L82.8803 27.8033C82.8209 27.7722 82.7501 27.7722 82.6911 27.8033L80.3495 29.0297C80.2007 29.1081 80.0267 28.981 80.0553 28.8153L80.5056 26.211C80.5173 26.145 80.4952 26.0773 80.4479 26.0307L78.5572 24.1825C78.4371 24.0648 78.5041 23.86 78.6708 23.8359L81.2872 23.4599C81.3532 23.4502 81.4105 23.4088 81.4402 23.3487L82.6138 20.9802C82.6883 20.8293 82.9038 20.8296 82.978 20.9805L83.3768 21.7916L84.1229 23.309L84.1443 23.3525C84.174 23.4122 84.231 23.4544 84.2973 23.464L86.9127 23.848C87.0791 23.8725 87.1454 24.0772 87.0249 24.1949L85.1294 26.0369H85.1287Z" fill="white"/>
<path d="M128.133 48.3549C128.089 48.397 128.07 48.4578 128.08 48.5172L128.479 50.8646C128.504 51.0145 128.347 51.1284 128.212 51.0573L126.106 49.9462C126.053 49.9183 125.989 49.9183 125.936 49.9462L123.826 51.0511C123.692 51.1215 123.535 51.0072 123.561 50.8577L123.967 48.5113C123.977 48.4519 123.957 48.3908 123.915 48.349L122.211 46.6842C122.103 46.5782 122.163 46.3938 122.314 46.372L124.671 46.033C124.73 46.0244 124.782 45.9867 124.809 45.9329L125.866 43.7991C125.933 43.6631 126.127 43.6634 126.194 43.7995L126.553 44.5304L127.225 45.8976L127.245 45.937C127.271 45.9909 127.323 46.0288 127.382 46.0375L129.739 46.3834C129.888 46.4055 129.948 46.5899 129.839 46.6959L128.132 48.3552L128.133 48.3549Z" fill="white"/>
<path d="M111.58 22.1575C113.359 20.378 113.359 17.493 111.58 15.7136C109.8 13.9342 106.915 13.9342 105.136 15.7136C103.357 17.493 103.357 20.378 105.136 22.1575C106.915 23.9369 109.8 23.9369 111.58 22.1575Z" fill="#C4D7F2"/>
<path d="M35.7566 96.68C36.0263 95.5056 35.2928 94.3351 34.1184 94.0654C32.944 93.7958 31.7734 94.5293 31.5038 95.7037C31.2342 96.878 31.9677 98.0486 33.142 98.3183C34.3164 98.5879 35.487 97.8544 35.7566 96.68Z" fill="#C4D7F2"/>
</svg>
