<svg width="177" height="173" viewBox="0 0 177 173" fill="none" xmlns="http://www.w3.org/2000/svg">
<circle cx="88.2668" cy="75.7415" r="62.095" fill="#EEF8F4"/>
<path d="M86.5492 31.7109L113.198 46.9622C116.329 48.7468 118.278 52.0861 118.289 55.6882L118.212 121.949V126.208C117.796 132.011 112.005 134.419 108.501 133.051C108.468 133.051 108.446 133.051 108.446 133.04C108.37 133.007 108.282 132.952 108.216 132.919L84.3376 115.489C81.2282 113.683 79.2903 110.343 79.2794 106.73L76.2466 64.9945L75.7321 37.6122C75.5678 33.6378 80.8998 28.9957 86.5492 31.7328V31.7109Z" fill="#81A0EA"/>
<path d="M84.4478 34.4036L109.816 48.9214C112.936 50.7169 114.885 54.0453 114.907 57.6474L114.994 126.963C115.18 132.579 110.779 134.583 107.385 132.612L80.9881 117.35C77.8678 115.532 75.908 112.292 75.908 108.689L75.5905 38.0714C75.5905 34.1737 79.9808 31.5789 84.4478 34.4036Z" fill="#E2E9FB"/>
<path d="M84.1396 35.1816L109.146 49.5023C112.223 51.265 114.139 54.5495 114.161 58.0969L114.248 126.416C114.434 131.956 110.088 133.926 106.748 131.978L80.7237 116.934C77.6471 115.139 75.7202 111.953 75.7202 108.394L75.4027 38.7946C75.4027 34.9516 79.7274 32.3897 84.1396 35.1816Z" fill="#343C6B"/>
<path d="M112.037 61.6117L112.059 70.7757L112.18 125.157L77.8669 105.472L77.8231 91.1619L77.648 41.8496L112.037 61.6117Z" fill="#819BEA"/>
<g style="mix-blend-mode:multiply">
<path d="M100.469 158.965C92.8319 158.965 86.6408 155.881 86.6408 152.078C86.6408 148.275 92.8319 145.191 100.469 145.191C108.106 145.191 114.297 148.275 114.297 152.078C114.297 155.881 108.106 158.965 100.469 158.965Z" fill="#E2E9FB"/>
</g>
<path d="M93.3523 100.18C92.4545 100.18 91.6115 99.6548 91.2283 98.7899L81.8235 77.2322L85.8416 74.7578L95.4763 96.9396C95.9909 98.1111 95.4544 99.4796 94.2829 99.9942C93.9764 100.126 93.6698 100.191 93.3523 100.191V100.18Z" fill="#343C6B"/>
<path d="M90.0562 67.6191C90.0562 59.8128 85.5673 51.043 79.2938 47.419C76.4472 45.7767 73.9619 45.5578 72.0678 46.5103L67.5789 49.0503L71.3342 49.127L74.8596 50.3642L78.8559 53.7801L82.0419 58.4332L84.571 63.9075L85.2608 70.8708L84.3082 75.0422L81.9762 78.8085L86.3885 76.3013C88.6877 75.0312 90.0781 71.9437 90.0781 67.6081L90.0562 67.6191Z" fill="#B8C9F5"/>
<path d="M69.2921 54.8858C69.2921 52.3895 69.7739 50.3422 70.6279 48.8203C65.7558 50.0794 65.1536 53.0793 65.1536 57.4259C65.1536 64.9804 69.741 73.5531 75.5876 76.9252C76.9999 77.7354 78.3028 78.1515 79.4743 78.1515C80.3392 78.1515 82.3647 78.1515 83.2734 76.6296C82.3428 76.4216 81.3574 76.0275 80.3283 75.4253C73.9234 71.7247 69.2921 62.7031 69.2921 54.8858Z" fill="#445393"/>
<path d="M85.75 70.0602C85.75 77.8665 81.2611 81.6328 74.9876 78.0088C68.5827 74.3082 63.9514 65.2866 63.9514 57.4693C63.9514 49.6521 68.5827 46.1595 74.9876 49.8492C81.2501 53.4731 85.75 62.232 85.75 70.0492V70.0602ZM84.5566 70.0054C84.5566 62.429 80.1881 54.1848 74.3964 50.8455C72.8855 49.9696 71.484 49.5317 70.225 49.5317C69.8418 49.5317 69.4805 49.5754 69.1301 49.663C66.6229 50.2762 65.1558 53.079 65.1558 57.4365C65.1558 64.991 69.7432 73.5637 75.5897 76.9359C77.0021 77.7461 78.305 78.1621 79.4765 78.1621C80.3414 78.1621 81.1078 77.9212 81.7757 77.4723C83.5274 76.2899 84.5566 73.6623 84.5566 70.0164V70.0054Z" fill="#E2E9FB"/>
<path d="M104.75 90.5688L102.549 97.762C102.122 97.0284 101.476 96.4481 100.677 96.1087C99.429 95.5832 95.2795 93.7329 93.8781 93.2402L89.849 83.9668L94.9839 88.8608C95.8817 89.6053 96.9437 90.1308 98.0823 90.3826C99.1224 90.6235 100.436 90.8863 101.487 90.9739C102.593 91.0615 103.721 90.9191 104.75 90.5578V90.5688Z" fill="#B8C9F5"/>
<path d="M81.2844 81.4162C81.2844 80.5075 81.4048 79.3907 82.0289 79.117C82.8391 78.7776 84.0762 81.5148 84.0762 81.5148C84.0762 81.5148 83.912 80.8031 83.9011 80.5294C83.9011 80.2228 84.0653 79.8615 84.2952 79.8615C84.5799 79.8615 84.7003 80.1134 84.7113 80.5075L85.2477 82.2921C85.2696 82.5439 85.2696 82.7957 85.2258 83.0476L85.1383 83.5402C85.0397 84.0767 85.0835 84.6461 85.2806 85.1606L85.9375 86.9015L83.6711 87.8868L82.9704 84.9964C82.7953 84.646 82.3792 84.1096 82.0179 83.584C81.5581 82.949 81.2953 82.1936 81.2953 81.4053L81.2844 81.4162Z" fill="#FCBAC0"/>
<path d="M101.299 147.809C101.299 147.809 101.299 148.718 102.415 149.528C102.569 149.649 102.788 149.791 103.018 149.933C103.653 150.327 104.507 151.061 105.043 151.576C105.35 151.86 105.689 152.057 106.138 152.079C106.817 152.112 107.419 151.893 107.331 150.875C107.331 150.809 107.32 150.678 107.309 150.557C107.309 150.503 107.298 150.448 107.288 150.393C107.277 150.316 107.233 148.422 107.222 148.379C107.134 148.718 106.663 147.382 106.368 147.371C105.919 147.349 105.985 148.411 105.678 148.138C105.142 147.623 104.561 147.853 103.072 147.098L102.788 147.054C101.638 146.922 101.452 147.306 101.342 147.656C101.332 147.711 101.321 147.765 101.31 147.809H101.299Z" fill="#343C6B"/>
<path d="M92.6071 152.494C92.6071 152.494 93.6581 152.395 93.9975 152.384C94.8187 152.351 96.6252 151.837 97.1836 152.231C97.8186 152.669 99.2419 153.041 99.2638 151.848L100.074 152.11C100.085 152.362 100.162 153.84 100.173 153.939C100.194 154.377 100.107 154.826 99.8769 155.198C99.3404 156.052 97.6653 155.548 96.7128 155.362L93.8552 154.979C92.8151 154.771 92.1363 154.037 91.9502 153.402C91.9064 152.975 92.191 152.581 92.618 152.505L92.6071 152.494Z" fill="#343C6B"/>
<path d="M107.76 111.46L108.099 112.697C108.187 113.003 108.242 113.321 108.274 113.627C108.417 115.116 108.439 116.605 108.329 118.094L108.088 121.346L107.344 148.082C107.42 149.155 103.829 149.265 103.84 147.973L103.183 119.978L102.045 120.459L100.173 151.947C100.173 153.053 96.5924 153.152 96.5595 151.827C96.5595 151.827 95.4975 120.021 95.3771 115.029C95.2895 111.514 101.672 112.456 101.672 112.303L98.3551 109.719L107.749 111.449L107.76 111.46Z" fill="#FF4A59"/>
<path d="M108.142 104.793L109.149 94.3696C109.237 91.7639 107.299 90.4391 105.35 90.3406C105.175 90.3406 104.989 90.3296 104.803 90.3406C104.343 90.3734 103.883 90.4719 103.434 90.6362C103.27 90.6909 102 89.9464 101.836 90.034L99.6352 91.2055L99.5695 91.2383C99.5695 91.2383 98.2009 92.1252 97.763 92.2237C96.2192 92.5522 95.5404 92.4536 93.8653 92.4865C92.2559 92.5193 90.1209 92.5193 89.2122 92.5193C88.9385 92.5193 88.7085 92.3551 88.5991 92.1142L85.6101 85.2276C85.1831 84.6035 82.5007 85.6108 82.7087 86.4319C82.7087 86.4319 85.216 96.2199 86.4641 96.844C87.9312 97.5666 92.2121 97.3038 93.712 98.0812C94.7521 98.6177 94.4675 99.0447 94.7302 100.183L94.7959 100.446C95.201 102.176 95.3653 103.95 95.2777 105.723C95.1353 108.778 94.9492 113.42 95.1353 113.814C96.1098 115.84 108.295 115.281 108.46 112.249L108.109 106.282C108.077 105.789 108.087 105.285 108.142 104.793Z" fill="#E2E9FB"/>
<path d="M96.8734 87.5051C97.4536 90.3955 99.3806 90.6692 101.187 89.7934C103.202 88.8189 104.428 86.465 104.548 84.7351C104.734 82.1075 103.07 80.3886 100.891 80.2353C95.9208 79.8959 96.6763 86.5088 96.8734 87.5051Z" fill="#FCBAC0"/>
<path d="M103.325 86.1361L103.117 91.8731C103.117 92.1468 102.854 92.3877 102.394 92.541C101.595 92.8037 100.5 92.6942 99.92 92.2891C99.6901 92.1249 99.5806 91.9388 99.5915 91.7527L99.7886 86.0156L103.336 86.1361H103.325Z" fill="#FCBAC0"/>
<path d="M101.036 83.9025C100.401 84.7236 99.4703 85.1616 98.5725 85.1178C98.2878 85.1178 98.0032 84.3952 97.6419 83.9791C97.401 83.7054 97.0397 83.7273 96.8974 83.5959C96.2514 83.0266 96.1529 80.9464 97.5981 80.1143C99.0104 79.3041 100.445 79.2931 101.43 79.4793C101.572 79.5121 100.653 79.9501 100.773 80.0376C101.901 80.9026 102.021 82.6325 101.058 83.9025H101.036Z" fill="#343C6B"/>
<path d="M101.618 88.2156L101.191 86.5076C101.081 86.0587 100.851 85.6427 100.534 85.2923C100.205 84.942 99.8 84.6792 99.3512 84.5369L97.6322 83.9785C97.7308 85.4237 98.3548 86.6171 99.6796 88.0295C100.326 88.7083 101.015 89.1243 101.683 89.2667V88.9929C101.705 88.7302 101.683 88.4784 101.618 88.2265V88.2156Z" fill="#343C6B"/>
<path d="M101.42 79.467C99.34 79.2808 97.6211 80.9888 97.6211 83.5179C97.6211 83.6712 97.6211 83.8245 97.643 83.9668L99.3619 84.5252C99.8218 84.6675 100.227 84.9303 100.544 85.2807C100.862 85.6201 101.081 86.0361 101.201 86.4959L101.628 88.2039C101.694 88.4557 101.716 88.7185 101.705 88.9703V89.244C102.975 89.5287 104.442 88.5762 104.935 86.7916C105.198 85.85 107.486 80.0035 101.42 79.456V79.467Z" fill="#343C6B"/>
<path d="M98.3001 86.9025C97.8184 87.4937 97.7417 88.2272 98.1249 88.5338C98.5081 88.8404 99.2088 88.6214 99.6906 88.0192C100.172 87.428 100.249 86.6944 99.8658 86.3879C99.4826 86.0813 98.7819 86.3003 98.3001 86.9025Z" fill="#FCBAC0"/>
</svg>
