<svg width="177" height="136" viewBox="0 0 177 136" fill="none" xmlns="http://www.w3.org/2000/svg">
<path d="M86.4781 121.847C116.988 121.847 141.722 97.1133 141.722 66.6031C141.722 36.0928 116.988 11.3594 86.4781 11.3594C55.9678 11.3594 31.2344 36.0928 31.2344 66.6031C31.2344 97.1133 55.9678 121.847 86.4781 121.847Z" fill="#ECF3FE"/>
<path d="M87.4944 124.919C117.97 124.919 142.676 123.203 142.676 121.086C142.676 118.97 117.97 117.254 87.4944 117.254C57.0183 117.254 32.3125 118.97 32.3125 121.086C32.3125 123.203 57.0183 124.919 87.4944 124.919Z" fill="#D7E4F9"/>
<path d="M121.863 33.8789H61.7968C60.4658 33.8789 59.3867 34.9579 59.3867 36.289V117.832C59.3867 119.163 60.4658 120.242 61.7968 120.242H121.863C123.194 120.242 124.273 119.163 124.273 117.832V36.289C124.273 34.9579 123.194 33.8789 121.863 33.8789Z" fill="#C4D7F2"/>
<path d="M52.3855 59.232L52.5455 61.4114L46.4175 61.8614L46.2578 59.6853L47.3823 59.0286L47.3375 58.4193L46.5292 58.3771L46.4903 57.8478C46.8511 57.1842 47.5307 56.7109 48.3347 56.6516L49.891 56.5374C50.6953 56.4785 51.4363 56.8474 51.8867 57.4516L51.9256 57.9809L51.1358 58.1403L51.1806 58.7496L52.3851 59.232H52.3855Z" fill="#36588E"/>
<path d="M62.7959 86.7375L65.0408 117.321C65.0954 118.066 64.5373 118.713 63.7923 118.767L43.6715 120.244C42.9265 120.299 42.2801 119.741 42.2255 118.996L39.9805 88.4123C39.9394 87.8517 39.9576 87.2904 40.0358 86.7349L41.0468 79.5723C41.2287 78.2848 40.9471 76.9752 40.2538 75.8744L39.6204 74.8743C39.3072 74.3756 39.1286 73.8041 39.1035 73.2216C39.0871 72.9499 39.1053 72.6752 39.1591 72.4057L40.085 67.6608L40.691 64.5675C40.9941 63.0192 42.1964 61.8038 43.741 61.4837L44.8757 61.2498C47.8686 60.6309 50.9327 60.4061 53.9875 60.5807L55.1439 60.6466C56.7188 60.7375 58.0826 61.7645 58.6083 63.252L59.6596 66.2238L61.2687 70.7824C61.5597 71.6013 61.5244 72.4999 61.173 73.2922L60.6957 74.3738C60.1704 75.5641 60.0831 76.9006 60.4513 78.1477L62.4976 85.0895C62.6562 85.6275 62.7558 86.1769 62.797 86.7371L62.7959 86.7375Z" fill="#C4D7F2"/>
<path d="M47.3125 90.8042L47.6941 96.0016L55.9954 88.2795L55.6138 83.082L47.3125 90.8042Z" fill="white"/>
<path d="M47.8555 98.2299L48.2367 103.427L56.538 95.7053L56.1564 90.5078L47.8555 98.2299Z" fill="white"/>
<path d="M62.7923 86.7359L65.0373 117.319C65.0918 118.064 64.5338 118.711 63.7887 118.766L49.2561 119.832C57.5298 114.615 54.6337 100.769 53.5816 86.435C52.5219 71.9999 42.5526 72.574 39.0996 73.2197C39.0832 72.9479 39.1014 72.6733 39.1552 72.4037L40.0811 67.6588L40.6871 64.5655C40.9902 63.0173 42.1925 61.8019 43.7371 61.4817L44.8718 61.2478C47.8647 60.629 50.9288 60.4042 53.9836 60.5788L55.14 60.6446C56.7149 60.7356 58.0787 61.7626 58.6044 63.2501L59.6557 66.2219L61.2648 70.7805C61.5558 71.5994 61.5205 72.4979 61.1691 73.2903L60.6918 74.3718C60.1665 75.5621 60.0792 76.8987 60.4473 78.1457L62.4936 85.0875C62.6523 85.6256 62.7519 86.1749 62.793 86.7351L62.7923 86.7359Z" fill="#ACC6E5"/>
<path d="M59.6599 66.2222C56.6001 66.1215 53.2863 66.1826 49.8358 66.4358C46.3853 66.689 43.0981 67.1124 40.0859 67.6588L40.692 64.5655C40.995 63.0173 42.1974 61.8019 43.742 61.4817L44.8767 61.2478C47.8695 60.629 50.9337 60.4042 53.9884 60.5788L55.1449 60.6446C56.7198 60.7356 58.0836 61.7626 58.6093 63.2501L59.6606 66.2219L59.6599 66.2222Z" fill="#93B6D8"/>
<path d="M119.982 115.97C120.626 114.725 123.096 111.805 127.715 110.899C128.471 110.751 130.149 110.422 130.757 110.86C131.966 111.73 126.571 115.124 127.271 115.577C128.016 116.058 134.369 112.48 135.447 113.061C135.954 113.334 131.066 115.553 131.201 118.564C131.231 119.244 131.508 119.81 131.771 120.215H118.576C118.576 120.215 118.398 119.036 119.982 115.97V115.97Z" fill="#33DA82"/>
<path d="M119.983 118.223L60.0072 121.074C58.6718 121.138 57.5375 120.106 57.4738 118.771L53.5653 36.5454C53.5016 35.21 54.533 34.0757 55.8688 34.012L115.845 31.161C117.18 31.0973 118.315 32.1287 118.378 33.4645L122.287 115.69C122.351 117.025 121.319 118.159 119.983 118.223Z" fill="#3B82F4"/>
<g style="mix-blend-mode:multiply" opacity="0.2">
<path d="M112.018 42.2888L57.5 43.0215L58.4465 113.448L112.965 112.716L112.018 42.2888Z" fill="#003889"/>
</g>
<path d="M112.021 42.3037L57.5742 39.4121L53.8038 110.407L108.251 113.299L112.021 42.3037Z" fill="white"/>
<path d="M65.1644 58.2212C63.0584 58.1182 61.429 56.3211 61.532 54.2152C61.6349 52.1092 63.432 50.4798 65.538 50.5827C66.2459 50.6173 66.9273 50.8465 67.5094 51.2448L67.0121 51.971C66.5646 51.6643 66.04 51.4882 65.4951 51.4617C63.874 51.3824 62.4905 52.6367 62.4112 54.2577C62.3319 55.8788 63.5863 57.2623 65.2073 57.3416C66.8284 57.4209 68.2118 56.1665 68.2911 54.5455C68.3064 54.2348 68.2733 53.927 68.1926 53.6302L69.042 53.3996C69.1468 53.7855 69.1897 54.1857 69.1701 54.5884C69.0671 56.6944 67.27 58.3238 65.164 58.2208L65.1644 58.2212Z" fill="#33DA82"/>
<path d="M65.3441 55.5522L63.9453 54.0098L64.5976 53.4186L65.4048 54.3092L69.6157 50.4727L70.2068 51.1246L65.3441 55.5522Z" fill="#33DA82"/>
<path d="M88.6391 54.221L73.4567 53.4782C72.9878 53.4552 72.6262 53.0565 72.6495 52.5876C72.6724 52.1187 73.0711 51.7571 73.5401 51.7804L88.7224 52.5232C89.1913 52.5461 89.5529 52.9448 89.5296 53.4138C89.5067 53.8827 89.108 54.2443 88.6391 54.221Z" fill="#E4ECF9"/>
<path d="M105.527 59.3937L73.2458 57.8141C72.7769 57.7912 72.4153 57.3925 72.4386 56.9235C72.4615 56.4546 72.8602 56.093 73.3291 56.1163L105.611 57.6959C106.079 57.7188 106.441 58.1175 106.418 58.5864C106.395 59.0553 105.996 59.4169 105.527 59.3937Z" fill="#E4ECF9"/>
<path d="M64.5628 69.5513C62.4569 69.4483 60.8275 67.6512 60.9304 65.5452C61.0334 63.4393 62.8305 61.8099 64.9364 61.9128C65.6444 61.9474 66.3257 62.1766 66.9078 62.5749L66.4105 63.301C65.963 62.9944 65.4385 62.8183 64.8935 62.7917C63.2725 62.7124 61.889 63.9668 61.8097 65.5878C61.7304 67.2088 62.9847 68.5923 64.6058 68.6716C66.2268 68.7509 67.6103 67.4966 67.6896 65.8756C67.7049 65.5649 67.6718 65.2571 67.591 64.9603L68.4404 64.7296C68.5452 65.1156 68.5881 65.5158 68.5685 65.9185C68.4655 68.0245 66.6684 69.6539 64.5625 69.5509L64.5628 69.5513Z" fill="#33DA82"/>
<path d="M64.7425 66.8803L63.3438 65.3379L63.996 64.7467L64.8033 65.6373L69.0141 61.8008L69.6053 62.4527L64.7425 66.8803Z" fill="#33DA82"/>
<path d="M88.0375 65.5491L72.8552 64.8063C72.3863 64.7834 72.0247 64.3847 72.0479 63.9157C72.0709 63.4468 72.4696 63.0852 72.9385 63.1085L88.1208 63.8513C88.5897 63.8743 88.9513 64.273 88.9281 64.7419C88.9051 65.2108 88.5064 65.5724 88.0375 65.5491Z" fill="#E4ECF9"/>
<path d="M104.926 70.7218L72.6442 69.1422C72.1753 69.1193 71.8137 68.7206 71.837 68.2517C71.8599 67.7827 72.2586 67.4211 72.7276 67.4444L105.009 69.024C105.478 69.0469 105.84 69.4456 105.816 69.9145C105.793 70.3835 105.395 70.7451 104.926 70.7218Z" fill="#E4ECF9"/>
<path d="M63.9613 80.8794C61.8553 80.7764 60.2259 78.9793 60.3288 76.8734C60.4318 74.7674 62.2289 73.138 64.3349 73.241C65.0428 73.2755 65.7242 73.5047 66.3062 73.903L65.8089 74.6292C65.3615 74.3225 64.8369 74.1464 64.2919 74.1199C62.6709 74.0406 61.2874 75.2949 61.2081 76.9159C61.1288 78.537 62.3831 79.9205 64.0042 79.9998C65.6252 80.0791 67.0087 78.8247 67.088 77.2037C67.1033 76.893 67.0702 76.5853 66.9894 76.2884L67.8389 76.0578C67.9436 76.4437 67.9866 76.8439 67.9669 77.2466C67.864 79.3526 66.0669 80.982 63.9609 80.879L63.9613 80.8794Z" fill="#33DA82"/>
<path d="M64.137 78.2088L62.7383 76.666L63.3902 76.0749L64.1978 76.9654L68.4083 73.1289L68.9998 73.7808L64.137 78.2088Z" fill="#33DA82"/>
<path d="M87.4359 76.8773L72.2536 76.1344C71.7847 76.1115 71.4231 75.7128 71.4464 75.2439C71.4693 74.7749 71.868 74.4133 72.3369 74.4366L87.5192 75.1795C87.9882 75.2024 88.3498 75.6011 88.3265 76.07C88.3036 76.5389 87.9049 76.9005 87.4359 76.8773Z" fill="#E4ECF9"/>
<path d="M104.324 82.0499L72.0427 80.4703C71.5738 80.4474 71.2122 80.0487 71.2354 79.5798C71.2584 79.1109 71.6571 78.7493 72.126 78.7725L104.407 80.3521C104.876 80.375 105.238 80.7737 105.215 81.2427C105.192 81.7116 104.793 82.0732 104.324 82.0499Z" fill="#E4ECF9"/>
<path d="M63.3597 92.2075C61.2537 92.1046 59.6243 90.3075 59.7273 88.2015C59.8302 86.0955 61.6273 84.4661 63.7333 84.5691C64.4412 84.6036 65.1226 84.8328 65.7047 85.2312L65.2074 85.9573C64.7599 85.6506 64.2353 85.4745 63.6904 85.448C62.0693 85.3687 60.6859 86.623 60.6066 88.2441C60.5272 89.8651 61.7816 91.2486 63.4026 91.3279C65.0237 91.4072 66.4072 90.1529 66.4865 88.5318C66.5017 88.2211 66.4686 87.9134 66.3879 87.6165L67.2373 87.3859C67.3421 87.7719 67.385 88.172 67.3654 88.5747C67.2624 90.6807 65.4653 92.3101 63.3593 92.2072L63.3597 92.2075Z" fill="#33DA82"/>
<path d="M63.5394 89.537L62.1406 87.9945L62.7925 87.403L63.6001 88.2935L67.811 84.457L68.4021 85.1093L63.5394 89.537Z" fill="#33DA82"/>
<path d="M86.8344 88.2073L71.6521 87.4645C71.1831 87.4416 70.8215 87.0429 70.8448 86.5739C70.8677 86.105 71.2664 85.7434 71.7354 85.7667L86.9177 86.5095C87.3866 86.5325 87.7482 86.9312 87.7249 87.4001C87.702 87.869 87.3033 88.2306 86.8344 88.2073Z" fill="#E4ECF9"/>
<path d="M103.723 93.378L71.4411 91.7985C70.9722 91.7755 70.6106 91.3768 70.6339 90.9079C70.6568 90.439 71.0555 90.0774 71.5244 90.1007L103.806 91.6802C104.275 91.7032 104.636 92.1019 104.613 92.5708C104.59 93.0397 104.191 93.4013 103.723 93.378Z" fill="#E4ECF9"/>
<path d="M62.7581 103.538C60.6522 103.435 59.0228 101.638 59.1257 99.5316C59.2287 97.4256 61.0258 95.7962 63.1317 95.8992C63.8397 95.9337 64.5211 96.1629 65.1031 96.5612L64.6058 97.2874C64.1584 96.9807 63.6338 96.8046 63.0888 96.7781C61.4678 96.6988 60.0843 97.9531 60.005 99.5741C59.9257 101.195 61.18 102.579 62.8011 102.658C64.4221 102.737 65.8056 101.483 65.8849 99.8619C65.9002 99.5512 65.8671 99.2435 65.7863 98.9466L66.6357 98.716C66.7405 99.1019 66.7834 99.5021 66.7638 99.9048C66.6609 102.011 64.8637 103.64 62.7578 103.537L62.7581 103.538Z" fill="#33DA82"/>
<path d="M86.2328 99.5335L71.0505 98.7907C70.5816 98.7677 70.22 98.369 70.2433 97.9001C70.2662 97.4312 70.6649 97.0696 71.1338 97.0929L86.3161 97.8357C86.785 97.8586 87.1466 98.2574 87.1234 98.7263C87.1004 99.1952 86.7017 99.5568 86.2328 99.5335Z" fill="#E4ECF9"/>
<path d="M103.121 104.706L70.8396 103.127C70.3706 103.104 70.009 102.705 70.0323 102.236C70.0552 101.767 70.4539 101.406 70.9229 101.429L103.204 103.008C103.673 103.031 104.035 103.43 104.012 103.899C103.989 104.368 103.59 104.729 103.121 104.706Z" fill="#E4ECF9"/>
<g style="mix-blend-mode:multiply" opacity="0.2">
<path d="M94.8702 37.4244C94.5468 33.939 91.659 31.1695 88.0735 31.0803C84.4881 30.9912 81.4657 33.613 80.9691 37.0777L73.7374 36.8973L73.4766 47.3471L101.841 48.0547L102.102 37.6049L94.8698 37.4244H94.8702Z" fill="#003889"/>
</g>
<path d="M93.3057 35.9539C93.0925 32.4601 90.2935 29.6007 86.7128 29.3981C83.132 29.1955 80.0282 31.7209 79.4224 35.1681L72.2002 34.7592L71.6094 45.1956L99.9372 46.7988L100.528 36.3625L93.3057 35.9536V35.9539Z" fill="#1F3A6F"/>
<g style="mix-blend-mode:multiply" opacity="0.2">
<path d="M151.724 108.67C151.517 106.636 150.187 104.136 149.759 103.501C149.329 102.868 148.637 99.4094 147.992 99.2657C147.799 99.2227 147.457 99.3232 147.067 99.4898C146.151 99.8808 144.965 100.636 144.798 100.762C144.718 100.822 144.697 100.913 144.704 101.006C144.501 101.087 144.284 101.165 144.089 101.216C144.077 101.219 144.063 101.222 144.044 101.226C143.147 101.356 134.529 100.978 133.57 101.013C132.592 101.049 131.676 101.468 130.79 101.623C129.904 101.778 129.093 99.9962 128.869 99.5414C128.734 99.2664 128.531 98.2383 128.39 97.4667C128.346 97.2237 128.309 97.0069 128.281 96.8461C128.479 96.6377 127.92 95.2062 127.396 93.5826C126.972 92.2664 126.746 90.9513 126.658 90.362C126.676 90.2768 126.692 90.2001 126.705 90.1342C126.73 90.1106 126.746 90.084 126.751 90.0531C126.855 89.4969 126.763 86.4996 125.047 83.1259C124.742 82.5256 124.466 81.8144 124.219 81.0468C124.097 80.6667 123.981 80.2727 123.873 79.8718C125.313 79.5244 126.643 79.0005 127.441 78.6753C128.615 78.1965 127.752 76.0313 127.723 75.9596C127.7 75.9029 125.902 73.3272 125.156 72.2617C125.034 72.0878 124.941 71.9543 124.888 71.8783C124.899 71.8725 124.908 71.8674 124.914 71.8641C125.086 71.7564 123.101 69.211 122.705 68.3674C122.412 67.7442 121.755 67.0759 121.43 66.7692C121.336 66.6241 121.236 66.5109 121.129 66.4353C120.089 65.6993 117.725 64.5414 117.383 64.138C117.167 63.8837 116.96 63.5621 116.733 63.5061C116.588 63.0884 116.376 62.2957 116.359 61.2138C116.385 61.2015 116.401 61.1789 116.405 61.144C116.446 60.7311 117.07 59.938 117.307 57.7666C117.545 55.5951 116.307 53.8722 113.894 53.5132C111.481 53.1541 109.412 54.0694 109.412 54.0694C108.119 54.7682 108.932 56.418 108.959 56.3966C108.959 56.3966 108.84 58.0714 108.907 58.5022C108.975 58.9329 108.785 59.7765 108.627 60.0814C108.47 60.3866 109.391 61.0949 109.445 61.3375C109.498 61.5802 109.506 63.5355 110.076 63.6167C110.425 63.6661 110.899 63.5519 111.342 63.6505C111.627 63.7131 111.897 63.8637 112.111 64.2005C112.294 64.489 112.452 64.7066 112.581 64.8917C112.836 65.2592 112.978 65.5025 112.972 65.9318C112.97 66.1617 112.938 66.3731 112.891 66.5586C112.884 66.5626 112.874 66.5706 112.862 66.5859C112.644 66.8613 112.351 67.2524 112.199 67.4332C112.132 67.5128 111.988 67.7235 111.825 68.0243L112.44 67.5099C112.44 67.5099 112.44 67.5099 112.44 67.5103L111.825 68.0243C111.41 68.7868 110.865 70.1314 111.099 71.4054C111.417 73.1424 112.475 75.8396 112.742 77.1499C112.59 77.1754 112.461 77.2074 112.365 77.238C112.053 77.3373 112.001 77.5184 112.036 77.6552C111.619 77.5403 111.184 77.4162 110.805 77.2984C110.216 77.1146 109.765 76.948 109.735 76.8589C109.644 76.5919 109.563 74.6536 108.085 74.0548C108.085 74.0548 107.96 74.029 107.846 74.0665C107.755 74.0959 107.67 74.1654 107.661 74.3186C107.638 74.6653 108.005 74.941 107.924 74.977C107.904 74.9858 107.812 74.9908 107.681 75.005C107.258 75.0509 106.429 75.1931 106.312 75.8501C106.182 76.5824 106.186 78.2133 107.009 78.7302C107.154 78.8223 107.325 78.8786 107.525 78.8896C107.787 78.9037 108.019 78.9139 108.229 78.9256C109.091 78.9743 109.593 79.0474 110.31 79.5C110.393 79.5524 110.487 79.6099 110.59 79.6702C110.819 79.8052 111.093 79.9536 111.39 80.0988C111.796 80.2956 112.247 80.4851 112.697 80.6212C112.628 80.7594 112.623 80.941 112.764 81.0974C112.959 81.3127 113.306 81.1454 113.398 81.0974C113.49 81.0494 113.7 81.1276 113.529 81.2531C113.359 81.3786 113.308 81.5099 113.364 81.6896C113.37 81.7104 113.379 81.7293 113.388 81.7457C113.462 81.8712 113.616 81.8777 113.616 81.8777C113.807 81.9225 114.043 81.9214 114.295 81.8912C114.414 81.945 114.547 81.9767 114.693 81.9894C114.76 82.1502 114.823 82.3063 114.883 82.458C114.792 82.7519 114.766 83.1477 115.191 83.3096C115.191 83.3103 115.191 83.3114 115.191 83.3121C115.28 83.593 115.336 83.8291 115.349 84.0048C115.366 84.2365 115.385 84.457 115.405 84.6687V84.6694C115.446 85.0849 115.495 85.4654 115.557 85.8321C115.434 86.1013 115.244 86.6848 115.778 86.8929C115.797 86.9722 115.818 87.0522 115.839 87.133C115.946 87.5321 116.023 87.9177 116.068 88.2549C116.136 88.7475 116.139 89.1378 116.082 89.3223C116.017 89.5278 115.91 89.7122 116.087 89.769C115.524 90.7847 114.599 95.172 114.432 95.6274C114.376 95.7817 114.368 95.9072 114.482 96.0196C114.411 96.1826 114.319 96.3947 114.213 96.6402C113.58 98.1088 112.443 100.757 112.349 101.054C112.217 101.467 112.54 105.433 112.436 105.971C112.331 106.509 111.947 115.01 111.882 116.087C111.86 116.446 111.711 116.833 111.52 117.191C111.496 117.236 111.472 117.28 111.447 117.324C111.443 117.331 111.439 117.337 111.436 117.343C111.414 117.381 111.392 117.419 111.37 117.455C111.364 117.465 111.358 117.474 111.353 117.483C111.332 117.517 111.311 117.551 111.29 117.584C111.283 117.594 111.277 117.604 111.27 117.614C111.25 117.645 111.229 117.677 111.209 117.708C111.202 117.718 111.195 117.728 111.189 117.737C111.169 117.767 111.149 117.796 111.129 117.824C111.122 117.835 111.114 117.845 111.107 117.856C111.089 117.882 111.071 117.907 111.053 117.931C111.043 117.945 111.034 117.958 111.024 117.971C111.011 117.989 110.998 118.007 110.985 118.024C110.887 118.156 110.797 118.267 110.73 118.349C110.68 118.325 110.643 118.321 110.622 118.345C110.456 118.533 108.869 120.166 107.412 120.23C106.136 120.284 104.122 120.241 103.641 120.926C103.572 121.024 103.535 121.137 103.535 121.267C103.539 122.308 108.318 123.863 110.164 123.912C112.01 123.959 115.195 123.828 115.375 123.684C115.557 123.54 115.822 123.409 115.766 122.799C115.738 122.502 115.624 122.129 115.501 121.711C115.371 121.269 115.232 120.779 115.176 120.274C115.101 119.58 114.911 119.377 114.734 119.36C114.735 119.143 114.739 118.904 114.749 118.657C114.77 118.097 114.819 117.501 114.921 117.068C115.176 115.979 117.083 108.262 117.071 107.448C117.06 106.635 116.606 103.333 117.879 101.754C118.382 101.13 119.106 100.26 119.799 99.4348C120.229 98.9226 120.646 98.4279 120.991 98.0208C121.182 98.3511 121.396 98.6742 121.524 98.8728C121.807 99.3126 122.015 98.9626 122.015 98.9626C122.028 98.9434 122.043 98.9244 122.058 98.9055C122.242 99.2617 122.67 99.875 123.219 100.602C124.747 102.624 127.21 105.517 127.923 106.133C128.983 107.048 133.707 105.773 134.823 105.827C135.94 105.881 142.542 104.445 143.557 104.577C143.709 104.597 143.874 104.627 144.046 104.665C144.536 104.773 145.072 104.94 145.482 105.078C145.388 105.234 145.322 105.33 145.322 105.33C145.155 105.678 146.339 105.989 146.756 106.132C147.173 106.276 149.718 109.04 149.992 109.518C150.266 109.996 150.932 110.93 151.374 110.918C151.486 110.915 151.577 110.9 151.648 110.845C151.854 110.685 151.88 110.186 151.725 108.668L151.724 108.67ZM123.636 76.0193C123.474 76.1564 123.299 76.2841 123.114 76.4038C123.039 75.9793 122.972 75.5693 122.913 75.1826C123.943 76.0193 123.636 76.0193 123.636 76.0193Z" fill="#003889"/>
</g>
<path d="M123.77 98.7044C123.749 98.9153 124.214 99.692 124.886 100.675C126.268 102.697 128.522 105.59 129.19 106.206C130.184 107.121 134.999 105.847 136.112 105.901C137.225 105.955 143.931 104.519 144.936 104.65C145.087 104.67 145.25 104.7 145.419 104.739C146.371 104.952 147.484 105.393 147.484 105.393C147.484 105.393 147.579 105.255 147.701 105.073C147.929 104.734 148.258 104.243 148.274 104.196C148.298 104.124 148.465 102.258 148.465 102.258L147.97 101.691L147.137 100.738C147.137 100.738 146.312 101.133 145.714 101.289C145.701 101.292 145.686 101.295 145.668 101.298C144.76 101.429 136.17 101.05 135.209 101.086C134.228 101.122 133.283 101.54 132.385 101.696C131.488 101.851 130.806 100.069 130.615 99.6138C130.499 99.3388 130.371 98.3107 130.286 97.5391C130.231 97.0317 130.195 96.6348 130.195 96.6348C130.195 96.6348 129.878 96.7057 129.385 96.8228C128.198 97.1055 125.992 97.657 124.727 98.1365C124.163 98.3504 123.786 98.5494 123.771 98.7044H123.77Z" fill="#FDC8AA"/>
<path d="M123.77 98.7059C123.749 98.9169 124.214 99.6936 124.886 100.677L130.286 97.5411C130.231 97.0336 130.195 96.6367 130.195 96.6367C130.195 96.6367 129.878 96.7077 129.385 96.8248C128.198 97.1075 125.991 97.659 124.726 98.1384C124.163 98.3523 123.786 98.5513 123.77 98.7063V98.7059Z" fill="#EFA37D"/>
<path d="M129.048 90.1136C129.048 90.1136 129.132 91.8846 129.574 93.6551C130.017 95.426 130.52 96.9692 130.149 96.9452C129.778 96.9212 124.735 97.8336 123.802 99.0359C123.802 99.0359 123.569 99.3859 123.317 98.946C123.066 98.5062 122.438 97.4563 122.519 97.0707C122.6 96.6847 129.048 90.1133 129.048 90.1133L129.048 90.1136Z" fill="#15315E"/>
<path d="M110.969 118.578C110.969 118.578 111.232 120.301 111.951 120.516C112.469 120.672 113.698 120.715 114.432 120.583C114.714 120.532 114.923 120.455 114.989 120.349C114.989 120.349 115.015 119.581 115.109 118.732C115.172 118.172 115.264 117.576 115.396 117.142C115.731 116.054 118.196 108.337 118.243 107.523C118.291 106.709 118.076 103.407 119.464 101.828C120.013 101.204 120.799 100.334 121.551 99.5093C122.703 98.2466 123.771 97.0902 123.771 97.0902L122.355 96.8224L117.689 95.9395L117.683 95.938L117.339 95.8725L116.658 95.7441C116.658 95.7441 116.458 96.1388 116.168 96.7147C115.429 98.1833 114.1 100.832 113.984 101.128C113.822 101.541 113.858 105.507 113.715 106.046C113.571 106.584 112.572 115.085 112.428 116.162C112.38 116.52 112.203 116.907 111.987 117.265C111.76 117.641 111.491 117.983 111.287 118.224C111.102 118.443 110.969 118.578 110.969 118.578L110.969 118.578Z" fill="#FDC8AA"/>
<path d="M116.168 96.7147C116.439 97.0199 116.981 97.3925 118.023 97.4339C119.035 97.4743 120.483 98.566 121.551 99.5093C122.702 98.2466 123.77 97.0902 123.77 97.0902L122.354 96.8224L117.689 95.9395L117.683 95.938L117.338 95.8726L116.658 95.7441C116.658 95.7441 116.458 96.1388 116.168 96.7147H116.168Z" fill="#EFA37D"/>
<path d="M129.191 89.9619C129.191 90.0215 128.808 91.5142 128.318 92.2679C127.827 93.0217 124.86 98.0707 124.86 98.2981C124.86 98.5254 122.766 97.1852 119.655 96.7905C116.544 96.3958 116.245 96.1925 116.461 95.7017C116.676 95.2113 118.1 90.1623 118.674 89.6716C119.248 89.1812 129.191 89.9619 129.191 89.9619H129.191Z" fill="#1F3A6F"/>
<path d="M110.263 78.8044C110.401 78.8965 110.568 78.9529 110.767 78.9638C111.028 78.978 111.259 78.9882 111.469 78.9998C112.327 79.0485 112.824 79.1217 113.507 79.5742C113.587 79.6266 113.677 79.6841 113.775 79.7445C113.995 79.8794 114.257 80.0279 114.544 80.173C115.493 80.6503 116.713 81.0847 117.587 80.8184C118.644 80.4968 117.525 78.8456 117.143 78.3293C117.071 78.2318 117.024 78.1744 117.024 78.1744C117.024 78.1744 115.318 77.7407 114.162 77.3733C113.586 77.1896 113.147 77.023 113.123 76.9338C113.052 76.6668 113.112 74.7286 111.676 74.1298C111.676 74.1298 111.554 74.1039 111.437 74.1414C111.344 74.1709 111.254 74.2404 111.234 74.3935C111.186 74.7402 111.533 75.016 111.449 75.052C111.429 75.0607 111.336 75.0654 111.203 75.08C110.778 75.1258 109.939 75.2681 109.774 75.9251C109.591 76.6574 109.477 78.2882 110.262 78.8052L110.263 78.8044Z" fill="#FDC8AA"/>
<path d="M114.164 77.3711L114.546 80.1708C115.494 80.6481 116.715 81.0825 117.588 80.8162C118.845 80.4335 117.026 78.1722 117.026 78.1722C117.026 78.1722 115.32 77.7385 114.164 77.3711Z" fill="#EFA37D"/>
<path d="M111.469 78.9992C112.327 79.0479 112.824 79.121 113.507 79.5736C113.587 79.626 113.677 79.6835 113.775 79.7439C113.515 79.3957 113.097 78.906 112.785 78.7689C112.294 78.5535 112.019 77.4051 112.127 77.046C112.235 76.6869 111.804 76.3282 111.648 76.568C111.492 76.807 111.887 77.046 111.756 77.2377C111.624 77.4294 111.648 77.6324 111.684 77.7165C111.72 77.7998 111.815 77.9915 111.684 78.1112C111.553 78.2305 111.828 78.4098 111.732 78.5892C111.67 78.7056 111.633 78.8777 111.469 78.9992Z" fill="#EFA37D"/>
<path d="M113.957 61.4119C113.993 61.6546 113.859 63.61 114.424 63.6911C114.769 63.7406 115.252 63.6263 115.688 63.7249C115.968 63.7875 116.227 63.9381 116.417 64.275C116.579 64.5634 116.722 64.781 116.836 64.9662C117.065 65.3336 117.189 65.577 117.152 66.0062C117.099 66.6523 116.829 67.1547 116.632 67.3428C116.434 67.5316 116.389 68.034 116.964 67.8725C117.538 67.7109 120.787 65.3514 120.921 64.8574C121.056 64.3634 121.217 63.9516 121.199 63.9155C121.182 63.8795 120.652 62.5783 120.966 60.4603C121.28 58.3427 117.475 54.807 115.752 55.1301C114.03 55.4531 113.829 56.4703 113.829 56.4703C113.829 56.4703 113.589 58.1451 113.625 58.5759C113.662 59.0066 113.411 59.8502 113.231 60.1551C113.052 60.4599 113.922 61.1686 113.958 61.4112L113.957 61.4119Z" fill="#FDC8AA"/>
<path d="M113.957 61.4119C113.993 61.6546 113.859 63.61 114.424 63.6911C114.769 63.7406 115.252 63.6263 115.688 63.7249C115.968 63.7875 116.227 63.9381 116.417 64.275C116.579 64.5634 116.722 64.781 116.836 64.9662C117.065 65.3336 117.189 65.577 117.152 66.0062C117.099 66.6523 116.829 67.1547 116.632 67.3428C116.434 67.5316 116.389 68.034 116.964 67.8725C117.538 67.7109 120.787 65.3514 120.921 64.8574C121.056 64.3634 121.217 63.9516 121.199 63.9155C121.182 63.8795 120.652 62.5783 120.966 60.4603C121.28 58.3427 117.475 54.807 115.752 55.1301C114.03 55.4531 113.829 56.4703 113.829 56.4703C113.829 56.4703 113.589 58.1451 113.625 58.5759C113.662 59.0066 113.411 59.8502 113.231 60.1551C113.052 60.4599 113.922 61.1686 113.958 61.4112L113.957 61.4119Z" fill="#FDC8AA"/>
<path d="M114.883 71.4789C115.081 73.2556 115.978 76.0375 116.122 77.3115C116.198 77.9929 116.793 79.5248 117.33 80.9927C117.463 81.3579 117.593 81.7192 117.711 82.0622C117.88 82.5541 118.022 83.0084 118.114 83.3846C118.182 83.6654 118.221 83.9015 118.221 84.0772C118.221 84.309 118.224 84.5294 118.229 84.7412V84.7419C118.25 85.5611 118.313 86.2458 118.438 86.9515C118.452 87.0356 118.468 87.1203 118.485 87.2058C118.562 87.6049 118.611 87.9905 118.633 88.3277C118.664 88.8203 118.639 89.2107 118.569 89.3951C118.449 89.7058 118.233 89.9695 119.083 89.8135C119.933 89.6585 122.493 89.6843 124.108 89.8593C125.723 90.035 129.043 90.6811 129.187 90.1248C129.33 89.5686 129.456 86.5714 127.984 83.1972C127.722 82.597 127.498 81.8858 127.307 81.1182C127.133 80.4219 126.986 79.6791 126.863 78.9315C126.799 78.5368 126.74 78.1402 126.688 77.7492C126.457 76.0106 126.346 74.363 126.312 73.3335C126.309 73.2244 126.306 73.1218 126.304 73.0268C126.296 72.6579 126.301 72.4044 126.315 72.3033C126.372 71.894 126.335 69.9717 126.05 68.4304C125.93 67.7886 125.768 67.2128 125.552 66.8403C125.468 66.6951 125.376 66.582 125.274 66.5063C124.287 65.7704 122.008 64.6124 121.694 64.209C121.38 63.8048 121.102 63.2304 120.644 63.8226C120.644 63.8226 120.615 63.8772 120.549 63.9812C120.313 64.3443 119.606 65.3065 117.988 66.6314C117.242 67.2422 116.938 67.3808 116.855 67.307L115.855 68.096C115.384 68.8585 114.742 70.2031 114.883 71.4771V71.4789Z" fill="#F4B545"/>
<path d="M115.688 63.7238C115.968 63.7864 116.227 63.937 116.417 64.2738C116.58 64.5623 116.722 64.7799 116.836 64.965C119.062 63.2029 119.1 60.7655 118.149 62.2959C117.53 63.2916 116.43 63.6219 115.688 63.7238H115.688Z" fill="#EFA37D"/>
<path d="M113.829 56.4708C113.803 56.4981 113.105 54.8436 114.451 54.1436C114.451 54.1436 116.587 53.2283 118.974 53.5874C121.36 53.9465 122.473 55.6694 122.079 57.8408C121.684 60.0123 121.003 60.8053 120.932 61.2182C120.86 61.6311 119.201 60.3593 119.452 59.9646C119.704 59.5699 120.015 58.9238 119.62 58.5887C119.225 58.2537 118.519 58.4691 118.172 58.8998C117.825 59.3305 117.286 59.1632 117.262 58.8758C117.238 58.5888 117.777 56.4351 117.238 56.3034C116.7 56.1717 114.893 55.3583 113.829 56.4708H113.829Z" fill="#1F3A6F"/>
<path d="M116.269 67.5064C116.434 67.3256 116.756 66.9345 116.994 66.6591C117.078 66.5616 117.039 66.725 117.005 66.797C116.879 66.9869 116.728 67.1979 116.852 67.3085L115.852 68.0975C116.037 67.7963 116.196 67.5857 116.268 67.5064H116.269Z" fill="#F4B545"/>
<path d="M118.375 85.7656C118.375 85.7656 117.738 86.7169 118.465 86.977C119.192 87.2372 118.375 85.7656 118.375 85.7656Z" fill="#F4B545"/>
<path d="M118.438 86.9531C118.452 87.0372 118.468 87.1219 118.484 87.2074C118.562 87.6065 118.61 87.9921 118.632 88.3293C121.416 88.8081 123.374 87.2791 121.679 87.4024C120.02 87.5232 118.788 87.0932 118.438 86.9531Z" fill="#E59D29"/>
<path d="M118.043 82.1797C118.043 82.1797 117.406 83.131 118.133 83.3911C118.86 83.6512 118.043 82.1797 118.043 82.1797Z" fill="#F4B545"/>
<path d="M118.109 83.3851C118.177 83.666 118.217 83.9021 118.217 84.0778C118.217 84.3095 118.22 84.53 118.225 84.7417V84.7424C120.436 85.2219 121.992 83.6922 120.646 83.8155C119.381 83.9312 118.43 83.5397 118.109 83.3848V83.3851Z" fill="#E59D29"/>
<path d="M116.923 81.5932C117.096 81.8941 117.36 82.0327 117.709 82.0636C118.913 82.1713 121.123 81.0105 124.03 80.8991C125.666 80.8366 126.681 80.961 127.305 81.1203C127.131 80.424 126.984 79.6812 126.862 78.9336C124.578 79.2472 118.945 80.0923 117.328 80.9937C116.97 81.192 116.809 81.3935 116.923 81.5932H116.923Z" fill="#E59D29"/>
<path d="M121.648 71.4824C121.684 71.5901 121.684 72.8328 123.683 74.1974C125.681 75.5627 124.783 78.147 124.783 78.147L126.686 77.7509C126.454 76.0123 126.344 74.3647 126.31 73.3352C125.557 72.9332 124.589 72.4134 124.568 72.3919C124.532 72.3559 121.648 71.4824 121.648 71.4824Z" fill="#E59D29"/>
<path d="M115.186 79.3151C115.234 79.4228 115.396 79.4824 115.458 79.4464C115.52 79.4104 115.802 79.5665 115.599 79.6978C115.396 79.8291 115.461 80.0871 115.497 80.1882C115.533 80.29 115.767 80.3857 115.845 80.3621C115.922 80.3384 116.078 80.4283 115.922 80.5596C115.767 80.6909 115.665 80.9543 115.845 81.1697C116.024 81.385 116.383 81.2177 116.478 81.1697C116.574 81.1217 116.778 81.1999 116.599 81.3254C116.419 81.4509 116.359 81.5822 116.401 81.7619C116.406 81.7827 116.413 81.8016 116.422 81.818C116.486 81.9435 116.64 81.95 116.64 81.95C117.51 82.1566 119.38 81.3909 119.595 81.2472C119.644 81.2141 119.838 81.1537 120.133 81.0776C120.785 80.9103 121.931 80.6684 123.109 80.4898C123.74 80.3944 124.378 80.3166 124.955 80.278C127.097 80.1343 129.489 79.2256 130.698 78.7469C131.907 78.2681 131.2 76.1028 131.177 76.0312C131.158 75.9744 129.546 73.3988 128.877 72.3333C128.702 72.0539 128.592 71.8789 128.592 71.8789L127.621 72.1696L125.191 72.8961L124.273 73.1711C124.273 73.1711 124.43 73.6196 125.818 74.7561C125.864 74.7928 125.911 74.8314 125.96 74.8703C127.48 76.0908 127.085 76.0908 127.085 76.0908C125.941 77.0047 124.24 77.5143 122.744 77.8028C122.272 77.8941 121.82 77.9636 121.412 78.0175C120.648 78.1171 120.041 78.1604 119.749 78.1848C119.663 78.1921 119.605 78.1979 119.577 78.2026C119.242 78.2623 118.566 77.6642 117.764 77.359C116.963 77.0538 116.104 77.1924 115.724 77.311C115.345 77.4296 115.324 77.6642 115.389 77.8014C115.455 77.9392 116.155 77.9753 116.358 77.9873C116.562 77.9989 116.604 78.131 116.514 78.2026C116.424 78.2743 115.706 78.5617 115.371 78.7589C115.036 78.9564 115.138 79.2074 115.186 79.3151H115.186Z" fill="#FDC8AA"/>
<path d="M120.134 81.0776C120.786 80.9102 121.932 80.6683 123.11 80.4897C123.087 79.853 123.007 78.4586 122.746 77.8027C121.387 78.0661 120.198 78.1472 119.75 78.1847C119.867 78.5718 120.228 79.833 120.134 81.0776Z" fill="#1F3A6F"/>
<path d="M124.273 73.1711C124.273 73.1711 124.431 73.6196 125.819 74.7561L128.878 72.3333C128.703 72.0539 128.593 71.8789 128.593 71.8789L127.622 72.1696L125.192 72.8961L124.273 73.1711Z" fill="#EFA37D"/>
<path d="M121.631 71.8444C121.643 72.3232 123.677 73.2319 124.108 73.8063C124.538 74.3808 124.658 74.1538 124.658 74.1538C124.737 73.8809 125.479 73.4436 126.304 73.0289C126.814 72.7728 127.355 72.5251 127.791 72.3297C128.264 72.118 128.614 71.9685 128.666 71.9372C128.846 71.8295 127.045 69.2841 126.71 68.4405C126.463 67.8173 125.854 67.149 125.552 66.8424C125.445 66.7332 125.377 66.6699 125.377 66.6699C124.825 66.5946 124.349 66.5859 123.936 66.631C120.381 67.0195 121.622 71.4148 121.632 71.8441L121.631 71.8444Z" fill="#F4B545"/>
<path d="M120.547 63.9839C120.811 64.1771 121.204 64.5372 121.201 64.9658C121.198 65.2623 122.489 65.6937 123.934 66.6312C124.647 67.0936 125.397 67.6786 126.048 68.4323C126.897 69.4138 127.579 70.6798 127.79 72.3296C128.262 72.1179 128.612 71.9683 128.664 71.9371C128.844 71.8294 127.043 69.2839 126.708 68.4403C126.461 67.8172 125.852 67.1489 125.55 66.8422C125.466 66.6971 125.374 66.5839 125.272 66.5082C124.286 65.7723 122.006 64.6144 121.692 64.2109C121.378 63.8068 121.1 63.2323 120.642 63.8246C120.642 63.8246 120.613 63.8792 120.547 63.9832L120.547 63.9839Z" fill="#E59D29"/>
<path d="M145.422 104.739C146.373 104.953 147.487 105.393 147.487 105.393C147.487 105.393 148.253 104.268 148.277 104.196C148.301 104.125 148.468 102.258 148.468 102.258L147.14 100.738C147.14 100.738 146.314 101.133 145.716 101.289C145.704 101.292 145.689 101.295 145.67 101.299L145.422 104.739Z" fill="white"/>
<path d="M110.973 118.577C110.973 118.577 111.236 120.299 111.954 120.515C112.672 120.73 114.754 120.73 114.993 120.348C114.993 120.348 115.019 119.58 115.113 118.73C114.797 118.718 113.919 118.65 113.33 118.254C112.89 117.958 112.35 117.545 111.991 117.264C111.559 117.98 110.973 118.577 110.973 118.577H110.973Z" fill="white"/>
<path d="M103.704 121.341C103.632 122.382 108.298 123.938 110.141 123.986C111.984 124.033 115.179 123.902 115.37 123.758C115.561 123.615 115.836 123.483 115.825 122.873C115.818 122.577 115.73 122.203 115.638 121.785C115.54 121.344 115.436 120.853 115.418 120.348C115.382 119.367 115.046 119.367 114.831 119.487C114.632 119.597 113.796 120.534 112.565 119.923C112.38 119.832 112.222 119.696 112.099 119.531C111.799 119.125 111.14 118.275 111.003 118.419C110.823 118.607 109.118 120.24 107.656 120.304C106.376 120.358 104.365 120.315 103.835 121C103.759 121.098 103.713 121.211 103.704 121.341V121.341Z" fill="#1F3A6F"/>
<path d="M103.704 121.341C103.632 122.382 108.298 123.938 110.141 123.986C111.984 124.033 115.179 123.902 115.37 123.758C115.561 123.615 115.836 123.483 115.825 122.873C115.818 122.577 115.73 122.203 115.638 121.785C115.087 122.846 112.207 122.762 110.159 122.816C107.79 122.879 106.821 122.529 105.081 122.027C104.04 121.726 103.833 121.297 103.835 121C103.759 121.098 103.714 121.211 103.704 121.341L103.704 121.341Z" fill="#15315E"/>
<path d="M147.521 103.131C147.832 103.837 146.647 105.404 146.647 105.404C146.455 105.752 147.616 106.063 148.023 106.206C148.43 106.35 150.775 109.113 151.014 109.592C151.254 110.07 151.852 111.004 152.295 110.992C152.407 110.989 152.499 110.973 152.574 110.919C152.792 110.759 152.854 110.26 152.809 108.742C152.749 106.709 151.601 104.208 151.218 103.574C150.834 102.94 150.392 99.4817 149.758 99.338C149.568 99.2951 149.219 99.3955 148.816 99.5621C147.872 99.9532 146.632 100.708 146.455 100.834C146.204 101.014 146.455 101.456 146.455 101.456C146.455 101.456 147.209 102.425 147.521 103.132L147.521 103.131Z" fill="#1F3A6F"/>
<path d="M148.817 99.5621C148.941 100.508 149.296 102.728 149.967 103.945C150.829 105.506 151.942 108.342 152.067 109.203C152.137 109.68 152.338 110.416 152.574 110.919C152.792 110.759 152.854 110.26 152.809 108.742C152.749 106.709 151.6 104.208 151.218 103.574C150.834 102.94 150.392 99.4817 149.758 99.338C149.568 99.2951 149.219 99.3955 148.816 99.5621H148.817Z" fill="#15315E"/>
<g style="mix-blend-mode:multiply" opacity="0.2">
<path d="M72.9651 116.196H72.9313C73.3191 114.308 72.6155 112.835 71.2157 112.685C70.7275 111.73 69.8704 111.207 68.7816 111.207C68.7168 111.207 68.6521 111.209 68.5866 111.213H66.9372C66.8804 111.21 66.8237 111.207 66.7655 111.207C65.2929 111.207 63.682 112.186 62.4426 113.672C62.1428 112.186 61.1508 111.207 59.6782 111.207C59.6145 111.207 59.5505 111.209 59.4864 111.213H57.8338C57.777 111.21 57.7203 111.207 57.6621 111.207C56.5496 111.207 55.3589 111.765 54.3087 112.679C52.6381 112.799 50.773 114.599 50.0767 116.802C49.3804 119.006 50.1076 120.806 51.7025 120.926C52.1754 121.839 53.0132 122.398 54.1257 122.398H56.1331C56.136 122.398 56.1385 122.398 56.1414 122.398C57.614 122.398 59.2249 121.419 60.4643 119.932C60.7641 121.419 61.7561 122.397 63.2291 122.397H65.2394C65.2412 122.397 65.243 122.397 65.2448 122.397C66.3337 122.397 67.5214 121.874 68.6135 120.919C70.1083 120.769 71.7425 119.297 72.5482 117.409H72.5821C72.8335 117.409 73.123 117.136 73.2289 116.802C73.3348 116.467 73.2169 116.195 72.9655 116.195L72.9651 116.196Z" fill="#003889"/>
</g>
<path d="M51.2508 120.755C52.9642 120.755 54.3532 118.74 54.3532 116.253C54.3532 113.767 52.9642 111.752 51.2508 111.752C49.5374 111.752 48.1484 113.767 48.1484 116.253C48.1484 118.74 49.5374 120.755 51.2508 120.755Z" fill="#5875A0"/>
<path d="M58.2423 116.253C58.2423 113.929 57.3256 111.905 55.981 110.876V110.16H54.1384C54.081 110.157 54.0231 110.154 53.9649 110.154C51.6065 110.154 49.6875 112.89 49.6875 116.253C49.6875 119.616 51.6061 122.352 53.9649 122.352H55.9807V121.63C57.3252 120.601 58.242 118.577 58.242 116.253H58.2423Z" fill="#36588E"/>
<path d="M55.9805 110.152C53.6221 110.152 51.7031 112.888 51.7031 116.251C51.7031 119.614 53.6217 122.351 55.9805 122.351C58.3393 122.351 60.258 119.614 60.258 116.251C60.258 112.888 58.3393 110.152 55.9805 110.152Z" fill="#F4B545"/>
<path d="M59.7938 118.177C59.6828 118.645 59.681 119.204 59.4947 119.61L55.7695 116.811L56.5626 115.754L59.7934 118.177H59.7938Z" fill="#E59D29"/>
<path d="M61.0676 115.592H56.0659C55.8146 115.592 55.6094 115.888 55.6094 116.253C55.6094 116.618 55.8146 116.915 56.0659 116.915C56.0681 116.915 56.0699 116.914 56.0721 116.914H61.068V115.592H61.0676Z" fill="white"/>
<path d="M67.3439 116.253C67.3439 113.929 66.4272 111.905 65.0826 110.876V110.16H63.24C63.1825 110.157 63.1247 110.154 63.0665 110.154C60.708 110.154 58.7891 112.89 58.7891 116.253C58.7891 119.616 60.7077 122.352 63.0665 122.352H65.0822V121.63C66.4268 120.601 67.3435 118.577 67.3435 116.253H67.3439Z" fill="#36588E"/>
<path d="M65.0825 122.113C67.3134 122.113 69.122 119.489 69.122 116.252C69.122 113.015 67.3134 110.391 65.0825 110.391C62.8515 110.391 61.043 113.015 61.043 116.252C61.043 119.489 62.8515 122.113 65.0825 122.113Z" fill="#F4B545"/>
<path d="M65.0821 122.351C63.9227 122.351 62.8386 121.705 62.0299 120.531C61.2398 119.385 60.8047 117.865 60.8047 116.252C60.8047 114.638 61.2398 113.118 62.0299 111.972C62.8386 110.799 63.9227 110.152 65.0821 110.152C66.2415 110.152 67.3256 110.798 68.1343 111.972C68.9244 113.118 69.3595 114.638 69.3595 116.252C69.3595 117.865 68.9244 119.385 68.1343 120.531C67.3256 121.704 66.2419 122.351 65.0821 122.351ZM65.0821 110.628C62.9856 110.628 61.2802 113.151 61.2802 116.252C61.2802 119.353 62.9856 121.876 65.0821 121.876C67.1786 121.876 68.884 119.353 68.884 116.252C68.884 113.151 67.1786 110.628 65.0821 110.628Z" fill="#F4B545"/>
<path d="M67.8316 111.752H65.8672V120.755H67.8316V111.752Z" fill="#4C5772"/>
<path d="M65.9383 120.755C67.6517 120.755 69.0407 118.74 69.0407 116.253C69.0407 113.767 67.6517 111.752 65.9383 111.752C64.2249 111.752 62.8359 113.767 62.8359 116.253C62.8359 118.74 64.2249 120.755 65.9383 120.755Z" fill="#36588E"/>
<path d="M67.743 120.755C69.4564 120.755 70.8454 118.74 70.8454 116.253C70.8454 113.767 69.4564 111.752 67.743 111.752C66.0296 111.752 64.6406 113.767 64.6406 116.253C64.6406 118.74 66.0296 120.755 67.743 120.755Z" fill="#5875A0"/>
<path d="M71.3003 116.254C71.3003 116.618 71.0966 116.915 70.8452 116.915H67.8359V115.592H70.8452C71.0966 115.592 71.3003 115.888 71.3003 116.253V116.254Z" fill="white"/>
<path d="M67.8344 116.914C68.0859 116.914 68.2898 116.618 68.2898 116.253C68.2898 115.888 68.0859 115.592 67.8344 115.592C67.5828 115.592 67.3789 115.888 67.3789 116.253C67.3789 116.618 67.5828 116.914 67.8344 116.914Z" fill="white"/>
<path d="M71.2984 116.253C71.2984 116.618 71.0947 116.915 70.8433 116.915C70.5919 116.915 70.3867 116.618 70.3867 116.253C70.3867 115.888 70.5919 115.592 70.8433 115.592C71.0947 115.592 71.2984 115.888 71.2984 116.253Z" fill="#CCD5E5"/>
<g style="mix-blend-mode:multiply" opacity="0.18">
<path d="M87.9475 123.454C90.1628 123.189 91.8618 122.166 91.7424 121.171C91.6229 120.175 89.7303 119.583 87.515 119.849C85.2997 120.115 83.6007 121.137 83.7201 122.133C83.8396 123.128 85.7322 123.72 87.9475 123.454Z" fill="#003889"/>
</g>
<path d="M90.8015 116.687C90.8015 120.232 87.9275 123.106 84.3831 123.106C80.8388 123.106 77.9648 120.233 77.9648 116.687C77.9648 116.254 78.0081 115.831 78.0896 115.422C78.6779 112.483 81.2717 110.27 84.3831 110.27C85.2089 110.27 85.998 110.426 86.7234 110.71C89.1106 111.645 90.8015 113.969 90.8015 116.688V116.687Z" fill="#ACC6E5"/>
<path d="M86.772 111.428C86.772 114.333 84.4172 116.687 81.5124 116.687C80.2053 116.687 79.0091 116.211 78.0898 115.422C78.6781 112.483 81.2719 110.27 84.3834 110.27C85.2092 110.27 85.9982 110.426 86.7236 110.71C86.7556 110.944 86.7724 111.184 86.7724 111.428L86.772 111.428Z" fill="#C4D7F2"/>
<path d="M82.5134 112.334C83.1559 112.421 83.7827 112.432 84.4455 112.444C86.1993 112.474 88.0033 112.506 90.0948 114.046C90.4109 114.725 90.6088 115.471 90.6612 116.258C90.6663 116.327 90.7241 116.379 90.7925 116.374C90.8605 116.369 90.9122 116.31 90.9075 116.242C90.8631 115.581 90.7205 114.948 90.4935 114.356C90.4324 114.195 90.364 114.036 90.2898 113.882C89.5283 112.285 88.1379 111.048 86.4518 110.482C86.4518 110.482 86.4511 110.482 86.4507 110.482C86.1502 110.381 85.8417 110.302 85.5245 110.246C85.1523 110.179 84.7704 110.145 84.3811 110.145C83.4738 110.145 82.6087 110.33 81.8226 110.665C81.6862 110.724 81.5516 110.786 81.4202 110.854C80.4784 111.334 79.6675 112.035 79.0574 112.889C78.9832 112.992 78.9123 113.097 78.845 113.205C78.208 114.214 77.8398 115.407 77.8398 116.686C77.8398 117.143 77.8875 117.592 77.9781 118.022V118.025C78.0523 118.382 78.1563 118.729 78.2866 119.062C78.2866 119.063 78.2866 119.064 78.2873 119.064C78.8501 120.503 79.9083 121.694 81.2507 122.43C81.2514 122.43 81.2514 122.431 81.2518 122.431C81.5221 122.578 81.8029 122.707 82.0947 122.815C82.0947 122.815 82.0951 122.816 82.0958 122.816C82.8074 123.083 83.5775 123.228 84.3811 123.228C85.2255 123.228 86.0356 123.069 86.7817 122.776C86.8862 122.735 86.9891 122.692 87.091 122.645C88.377 122.063 89.4454 121.076 90.1246 119.829C90.1722 119.743 90.2166 119.656 90.2599 119.568C90.5266 119.022 90.7197 118.432 90.8278 117.806C90.8391 117.739 90.7943 117.675 90.727 117.663C90.659 117.651 90.5957 117.697 90.5844 117.764C90.4898 118.312 90.3265 118.833 90.1042 119.318C88.656 117.102 85.6998 115.456 83.0431 113.977L82.719 113.797C82.285 113.555 81.887 113.369 81.5225 113.227C81.7422 112.924 81.9939 112.614 82.2839 112.296C82.3566 112.311 82.4334 112.324 82.5134 112.335V112.334ZM85.535 110.498C87.3729 110.842 88.9441 111.99 89.8496 113.571C87.8673 112.256 86.1364 112.226 84.4502 112.197C83.7947 112.186 83.1752 112.176 82.5476 112.09C82.5262 112.086 82.5058 112.084 82.4854 112.081C82.5254 112.039 82.5662 111.997 82.6084 111.954C83.5877 110.962 84.6521 110.597 85.5343 110.499C85.535 110.498 85.5354 110.499 85.5354 110.499L85.535 110.498ZM84.3811 110.391C84.4961 110.391 84.6099 110.394 84.7231 110.4C84.0042 110.603 83.1952 111.007 82.4323 111.78C82.3519 111.862 82.2744 111.942 82.1991 112.023C81.8109 111.925 81.5843 111.764 81.5246 111.545C81.4839 111.396 81.5192 111.221 81.601 111.039C82.4396 110.624 83.384 110.391 84.3811 110.391V110.391ZM79.1979 113.118H79.1986C79.6471 113.043 80.2816 113.061 81.135 113.348C80.824 113.809 80.5854 114.25 80.4002 114.67C79.757 114.504 79.2288 114.598 78.8301 114.95C78.4285 115.304 78.2051 115.881 78.089 116.513C78.1236 115.255 78.5285 114.088 79.1979 113.118ZM78.2276 118.011C78.2276 118.011 78.2269 118.01 78.2269 118.009C78.2145 116.97 78.3484 115.703 78.9927 115.135C79.319 114.848 79.7585 114.769 80.3016 114.9C79.9072 115.869 79.7876 116.711 79.6926 117.379L79.6828 117.45C79.5678 118.251 79.6199 119.525 80.1073 120.701C80.2729 121.101 80.4769 121.468 80.7181 121.803C79.4689 120.906 78.5605 119.565 78.2273 118.011L78.2276 118.011ZM84.3811 122.981C83.3043 122.981 82.2904 122.709 81.4028 122.23C80.9506 121.772 80.5944 121.23 80.3358 120.606C79.8669 119.477 79.8174 118.253 79.9273 117.485L79.9371 117.413C80.0309 116.756 80.1488 115.925 80.5413 114.97C81.7768 115.388 82.2049 116.522 82.7 117.831C83.301 119.423 84.0337 121.36 86.4769 122.625C85.8192 122.856 85.1138 122.981 84.3811 122.981ZM82.5989 114.012L82.923 114.192C85.6053 115.685 88.5945 117.35 89.978 119.578C89.2955 120.905 88.1605 121.941 86.7894 122.506C84.2734 121.296 83.5637 119.418 82.9311 117.744C82.4163 116.382 81.9703 115.2 80.6396 114.741C80.8254 114.327 81.0648 113.89 81.3766 113.434C81.7455 113.574 82.1522 113.762 82.5993 114.011L82.5989 114.012ZM81.282 113.137C80.4951 112.862 79.8756 112.802 79.4016 112.84C79.9138 112.178 80.5552 111.621 81.2867 111.206C81.2547 111.345 81.2511 111.482 81.286 111.611C81.3624 111.893 81.6069 112.098 82.0129 112.226C81.7356 112.536 81.4934 112.84 81.2816 113.137H81.282Z" fill="#3A4561"/>
<path d="M63.433 21.1456C65.1875 19.3911 65.1875 16.5464 63.433 14.7919C61.6784 13.0373 58.8338 13.0373 57.0792 14.7919C55.3247 16.5464 55.3247 19.3911 57.0792 21.1456C58.8338 22.9002 61.6784 22.9002 63.433 21.1456Z" fill="#C4D7F2"/>
<path d="M135.486 70.0771C136.984 70.0771 138.198 68.8628 138.198 67.3647C138.198 65.8667 136.984 64.6523 135.486 64.6523C133.988 64.6523 132.773 65.8667 132.773 67.3647C132.773 68.8628 133.988 70.0771 135.486 70.0771Z" fill="white"/>
<path d="M43.5444 52.2236C45.0425 52.2236 46.2568 51.0092 46.2568 49.5112C46.2568 48.0132 45.0425 46.7988 43.5444 46.7988C42.0464 46.7988 40.832 48.0132 40.832 49.5112C40.832 51.0092 42.0464 52.2236 43.5444 52.2236Z" fill="white"/>
</svg>
