<svg width="246" height="62" viewBox="0 0 246 62" fill="none" xmlns="http://www.w3.org/2000/svg">
<g clip-path="url(#clip0_1459_8142)">
<path d="M51.6146 0.853516L58.7433 13.0604L42.9281 41.2778L35.5039 28.5703L51.6146 0.853516Z" fill="url(#paint0_linear_1459_8142)"/>
<path d="M32.0169 28.6079L48.4384 0H47.2184L30.7969 28.6156L50.2493 61.8119H51.4733L32.0169 28.6079Z" fill="#A9A9A9"/>
<path d="M46.2626 0H45.0464L28.6211 28.6156L48.0737 61.8119H49.2975L29.8411 28.6079L46.2626 0Z" fill="#A9A9A9"/>
<path d="M44.087 0H42.8706L26.4453 28.6156L45.8979 61.8119H47.1257L27.6655 28.6079L44.087 0Z" fill="#A9A9A9"/>
<path d="M41.9189 0H40.6988L24.2773 28.6156L43.7299 61.8119H44.9538L25.4974 28.6079L41.9189 0Z" fill="#A9A9A9"/>
<path d="M39.7432 0H38.527L22.1016 28.6156L41.5541 61.8119H42.7781L23.3217 28.6079L39.7432 0Z" fill="#A9A9A9"/>
<path d="M37.5674 0H36.3512L19.9258 28.6156L39.3784 61.8119H40.6061L21.1459 28.6079L37.5674 0Z" fill="#A9A9A9"/>
<path d="M35.3955 0H34.1754L17.7539 28.6156L37.2065 61.8119H38.4305L18.9741 28.6079L35.3955 0Z" fill="#A9A9A9"/>
<path d="M30.6867 0H16.4253L0 28.6156L17.0046 57.8947L24.0451 45.3124L14.2614 28.6156L30.6867 0Z" fill="black"/>
<path d="M111.38 10.2285H101.961V51.5857H111.38V10.2285Z" fill="black"/>
<path d="M78.9076 43.5881V10.2285H69.4883V51.5857H69.657H78.9076H97.4431V43.5881H78.9076Z" fill="black"/>
<path d="M143.907 18.2262V10.2285H116.796H115.891V51.5857H125.31V34.6954H141.858V26.6978H125.31V18.2262H143.907Z" fill="black"/>
<path d="M217.357 10.2285H208.016L198.108 27.1832L188.205 10.2285H178.863L193.201 34.7751V51.5857H202.621V35.4539L217.357 10.2285Z" fill="black"/>
<path d="M175.858 14.1437C171.631 10.6284 165.215 9.81686 160.135 9.82824H148.418V51.9894H157.837V38.0229H160.131C160.158 38.0229 160.182 38.0229 160.209 38.0229C165.273 38.0229 171.649 37.2 175.854 33.7036C178.763 31.2842 180.302 27.9017 180.302 23.9237C180.302 19.9457 178.763 16.5631 175.854 14.1437H175.858ZM157.834 30.302V18.1861C157.834 18.1861 170.629 16.2748 170.629 24.2422C170.629 32.2094 157.834 30.2983 157.834 30.2983V30.302Z" fill="black"/>
<path d="M237.483 28.175L232.146 25.9451L231.843 25.8276C228.228 24.4131 226.179 23.4992 226.179 21.1936C226.179 18.888 228.148 17.5114 231.443 17.5114C234.474 17.5114 237.023 18.4936 239.708 20.693L240.142 21.0495L244.922 15.1868L244.574 14.8379C241.208 11.4592 236.424 9.51758 231.44 9.51758C222.976 9.51758 216.83 14.6332 216.83 21.6789C216.83 28.1256 221.495 31.3869 225.404 32.9834L231.225 35.4256C234.851 36.9424 236.596 37.7767 236.596 40.1847C236.596 42.7671 234.436 44.2461 230.672 44.2461C227.396 44.2461 223.678 42.6382 220.728 39.9419L220.297 39.5476L214.926 45.9184L215.302 46.2748C219.339 50.0973 224.879 52.2892 230.511 52.2892C239.632 52.2892 246.001 47.0636 246.001 39.5855C246.001 34.1627 243.292 30.5336 237.479 28.1712L237.483 28.175Z" fill="black"/>
</g>
<defs>
<linearGradient id="paint0_linear_1459_8142" x1="43.1621" y1="-0.769523" x2="49.876" y2="36.6752" gradientUnits="userSpaceOnUse">
<stop stop-color="#36FE9E"/>
<stop offset="0.21" stop-color="#33D386"/>
<stop offset="0.69" stop-color="#2E674C"/>
<stop offset="0.95" stop-color="#2B2B2B"/>
</linearGradient>
<clipPath id="clip0_1459_8142">
<rect width="246" height="62" fill="white"/>
</clipPath>
</defs>
</svg>
